<?xml version="1.0" encoding="utf-8" standalone="no"?>
<!DOCTYPE svg PUBLIC "-//W3C//DTD SVG 1.1//EN"
  "http://www.w3.org/Graphics/SVG/1.1/DTD/svg11.dtd">
<svg xmlns:xlink="http://www.w3.org/1999/xlink" width="590.175225pt" height="193.830937pt" viewBox="0 0 590.175225 193.830937" xmlns="http://www.w3.org/2000/svg" version="1.1">
 <metadata>
  <rdf:RDF xmlns:dc="http://purl.org/dc/elements/1.1/" xmlns:cc="http://creativecommons.org/ns#" xmlns:rdf="http://www.w3.org/1999/02/22-rdf-syntax-ns#">
   <cc:Work>
    <dc:type rdf:resource="http://purl.org/dc/dcmitype/StillImage"/>
    <dc:date>2025-11-24T16:43:24.010042</dc:date>
    <dc:format>image/svg+xml</dc:format>
    <dc:creator>
     <cc:Agent>
      <dc:title>Matplotlib v3.9.2, https://matplotlib.org/</dc:title>
     </cc:Agent>
    </dc:creator>
   </cc:Work>
  </rdf:RDF>
 </metadata>
 <defs>
  <style type="text/css">*{stroke-linejoin: round; stroke-linecap: butt}</style>
 </defs>
 <g id="figure_1">
  <g id="patch_1">
   <path d="M 0 193.830937 
L 590.175225 193.830937 
L 590.175225 0 
L 0 0 
L 0 193.830937 
z
" style="fill: none"/>
  </g>
  <g id="axes_1">
   <g id="patch_2">
    <path d="M 7.2 163.33 
L 579.6396 163.33 
L 579.6396 7.2 
L 7.2 7.2 
L 7.2 163.33 
z
" style="fill: none"/>
   </g>
   <g id="PolyCollection_1">
    <defs>
     <path id="mdfb737045f" d="M 24.268111 -113.010326 
L 24.268111 -108.565938 
L 26.011053 -108.565938 
L 27.753995 -108.565938 
L 29.496937 -108.565938 
L 31.239879 -108.565938 
L 32.982821 -108.565938 
L 34.725763 -108.565938 
L 36.468705 -108.565938 
L 38.211646 -108.565938 
L 39.954588 -108.565938 
L 41.69753 -108.565938 
L 43.440472 -108.565938 
L 45.183414 -108.565938 
L 46.926356 -108.565938 
L 48.669298 -108.565938 
L 50.41224 -108.565938 
L 52.155182 -108.565938 
L 53.898124 -108.565938 
L 55.641066 -108.565938 
L 57.384007 -108.565938 
L 59.126949 -108.565938 
L 60.869891 -108.565938 
L 62.612833 -108.565938 
L 64.355775 -108.565938 
L 66.098717 -108.565938 
L 67.841659 -108.565938 
L 69.584601 -108.565938 
L 71.327543 -108.565938 
L 73.070485 -108.565938 
L 74.813427 -108.565938 
L 76.556369 -108.565938 
L 78.29931 -108.565938 
L 80.042252 -108.565938 
L 81.785194 -108.565938 
L 83.528136 -108.565938 
L 85.271078 -108.565938 
L 87.01402 -108.565938 
L 88.756962 -108.565938 
L 90.499904 -108.565938 
L 92.242846 -108.565938 
L 93.985788 -108.565938 
L 95.72873 -108.565938 
L 97.471671 -108.565938 
L 99.214613 -108.565938 
L 100.957555 -108.565938 
L 102.700497 -108.565938 
L 104.443439 -108.565938 
L 106.186381 -108.565938 
L 107.929323 -108.565938 
L 109.672265 -108.565938 
L 111.415207 -108.565938 
L 113.158149 -108.565938 
L 114.901091 -108.565938 
L 116.644033 -108.565938 
L 118.386974 -108.565938 
L 120.129916 -108.565938 
L 121.872858 -108.565938 
L 123.6158 -108.565938 
L 125.358742 -108.565938 
L 127.101684 -108.565938 
L 128.844626 -108.565938 
L 130.587568 -108.565938 
L 132.33051 -108.565938 
L 134.073452 -108.565938 
L 135.816394 -108.565938 
L 137.559335 -108.565938 
L 139.302277 -108.565938 
L 141.045219 -108.565938 
L 142.788161 -108.565938 
L 144.531103 -108.565938 
L 146.274045 -108.565938 
L 148.016987 -108.565938 
L 149.759929 -108.565938 
L 151.502871 -108.565938 
L 153.245813 -108.565938 
L 154.988755 -108.565938 
L 156.731696 -108.565938 
L 158.474638 -108.565938 
L 160.21758 -108.565938 
L 161.960522 -108.565938 
L 163.703464 -108.565938 
L 165.446406 -108.565938 
L 167.189348 -108.565938 
L 168.93229 -108.565938 
L 170.675232 -108.565938 
L 172.418174 -108.565938 
L 174.161116 -108.565938 
L 175.904058 -108.565938 
L 177.646999 -108.565938 
L 179.389941 -108.565938 
L 181.132883 -108.565938 
L 182.875825 -108.565938 
L 184.618767 -108.565938 
L 186.361709 -108.565938 
L 188.104651 -108.565938 
L 189.847593 -108.565938 
L 191.590535 -108.565938 
L 193.333477 -108.565938 
L 195.076419 -108.565938 
L 196.81936 -108.565938 
L 198.562302 -108.565938 
L 200.305244 -108.565938 
L 202.048186 -108.565938 
L 203.791128 -108.565938 
L 205.53407 -108.565938 
L 207.277012 -108.565938 
L 209.019954 -108.565938 
L 210.762896 -108.565938 
L 212.505838 -108.565938 
L 214.24878 -108.565938 
L 215.991722 -108.565938 
L 217.734663 -108.565938 
L 219.477605 -108.565938 
L 221.220547 -108.565938 
L 222.963489 -108.565938 
L 224.706431 -108.565938 
L 226.449373 -108.565938 
L 228.192315 -108.565938 
L 229.935257 -108.565938 
L 231.678199 -108.565938 
L 233.421141 -108.565938 
L 235.164083 -108.565938 
L 236.907024 -108.565938 
L 238.649966 -108.565938 
L 240.392908 -108.565938 
L 242.13585 -108.565938 
L 243.878792 -108.565938 
L 245.621734 -108.565938 
L 247.364676 -108.565938 
L 249.107618 -108.565938 
L 250.85056 -108.565938 
L 252.593502 -108.565938 
L 254.336444 -108.565938 
L 256.079385 -108.565938 
L 257.822327 -108.565938 
L 259.565269 -108.565938 
L 261.308211 -108.565938 
L 263.051153 -108.565938 
L 264.794095 -108.565938 
L 266.537037 -108.565938 
L 268.279979 -108.565938 
L 270.022921 -108.565938 
L 271.765863 -108.565938 
L 273.508805 -108.565938 
L 275.251747 -108.565938 
L 276.994688 -108.565938 
L 278.73763 -108.565938 
L 280.480572 -108.565938 
L 282.223514 -108.565938 
L 283.966456 -108.565938 
L 285.709398 -108.565938 
L 287.45234 -108.565938 
L 289.195282 -108.565938 
L 290.938224 -108.565938 
L 292.681166 -108.565938 
L 294.424108 -108.565938 
L 296.167049 -108.565938 
L 297.909991 -108.565938 
L 299.652933 -108.565938 
L 301.395875 -108.565938 
L 303.138817 -108.565938 
L 304.881759 -108.565938 
L 306.624701 -108.565938 
L 308.367643 -108.565938 
L 310.110585 -108.565938 
L 311.853527 -108.565938 
L 313.596469 -108.565938 
L 315.339411 -108.565938 
L 317.082352 -108.565938 
L 318.825294 -108.565938 
L 320.568236 -108.565938 
L 322.311178 -108.565938 
L 324.05412 -108.565938 
L 325.797062 -108.565938 
L 327.540004 -108.565938 
L 329.282946 -108.565938 
L 331.025888 -108.565938 
L 332.76883 -108.565938 
L 334.511772 -108.565938 
L 336.254713 -108.565938 
L 337.997655 -108.565938 
L 339.740597 -108.565938 
L 341.483539 -108.565938 
L 343.226481 -108.565938 
L 344.969423 -108.565938 
L 346.712365 -108.565938 
L 348.455307 -108.565938 
L 350.198249 -108.565938 
L 351.941191 -108.565938 
L 353.684133 -108.565938 
L 355.427075 -108.565938 
L 357.170016 -108.565938 
L 358.912958 -108.565938 
L 360.6559 -108.565938 
L 362.398842 -108.565938 
L 364.141784 -108.565938 
L 365.884726 -108.565938 
L 367.627668 -108.565938 
L 369.37061 -108.565938 
L 371.113552 -108.565938 
L 372.856494 -108.565938 
L 374.599436 -108.565938 
L 376.342377 -108.565938 
L 378.085319 -108.565938 
L 379.828261 -108.565938 
L 381.571203 -108.565938 
L 383.314145 -108.565938 
L 385.057087 -108.565938 
L 386.800029 -108.565938 
L 388.542971 -108.565938 
L 390.285913 -108.565938 
L 392.028855 -108.565938 
L 393.771797 -108.565938 
L 395.514738 -108.565938 
L 397.25768 -108.565938 
L 399.000622 -108.565938 
L 400.743564 -108.565938 
L 402.486506 -108.565938 
L 404.229448 -108.565938 
L 405.97239 -108.565938 
L 407.715332 -108.565938 
L 409.458274 -108.565938 
L 411.201216 -108.565938 
L 412.944158 -108.565938 
L 414.6871 -108.565938 
L 416.430041 -108.565938 
L 418.172983 -108.565938 
L 419.915925 -108.565938 
L 421.658867 -108.565938 
L 423.401809 -108.565938 
L 425.144751 -108.565938 
L 426.887693 -108.565938 
L 428.630635 -108.565938 
L 430.373577 -108.565938 
L 432.116519 -108.565938 
L 433.859461 -108.565938 
L 435.602402 -108.565938 
L 437.345344 -108.565938 
L 439.088286 -108.565938 
L 440.831228 -108.565938 
L 442.57417 -108.565938 
L 444.317112 -108.565938 
L 446.060054 -108.565938 
L 447.802996 -108.565938 
L 449.545938 -108.565938 
L 451.28888 -108.565938 
L 453.031822 -108.565938 
L 454.774764 -108.565938 
L 456.517705 -108.565938 
L 458.260647 -108.565938 
L 460.003589 -108.565938 
L 461.746531 -108.565938 
L 463.489473 -108.565938 
L 465.232415 -108.565938 
L 466.975357 -108.565938 
L 468.718299 -108.565938 
L 470.461241 -108.565938 
L 472.204183 -108.565938 
L 473.947125 -108.565938 
L 475.690066 -108.565938 
L 477.433008 -108.565938 
L 479.17595 -108.565938 
L 480.918892 -108.565938 
L 482.661834 -108.565938 
L 484.404776 -108.565938 
L 486.147718 -108.565938 
L 487.89066 -108.565938 
L 489.633602 -108.565938 
L 491.376544 -108.565938 
L 493.119486 -108.565938 
L 494.862428 -108.565938 
L 496.605369 -108.565938 
L 498.348311 -108.565938 
L 500.091253 -108.565938 
L 501.834195 -108.565938 
L 503.577137 -108.565938 
L 505.320079 -108.565938 
L 507.063021 -108.565938 
L 508.805963 -108.565938 
L 510.548905 -108.565938 
L 512.291847 -108.565938 
L 514.034789 -108.565938 
L 515.77773 -108.565938 
L 517.520672 -108.565938 
L 519.263614 -108.565938 
L 521.006556 -108.565938 
L 522.749498 -108.565938 
L 524.49244 -108.565938 
L 526.235382 -108.565938 
L 527.978324 -108.565938 
L 529.721266 -108.565938 
L 531.464208 -108.565938 
L 533.20715 -108.565938 
L 534.950091 -108.565938 
L 536.693033 -108.565938 
L 538.435975 -108.565938 
L 540.178917 -108.565938 
L 541.921859 -108.565938 
L 543.664801 -108.565938 
L 545.407743 -108.565938 
L 545.407743 -119.257464 
L 545.407743 -119.257464 
L 543.664801 -121.939717 
L 541.921859 -124.77391 
L 540.178917 -127.653795 
L 538.435975 -130.472598 
L 536.693033 -133.133533 
L 534.950091 -135.558831 
L 533.20715 -137.696572 
L 531.464208 -139.524381 
L 529.721266 -141.049129 
L 527.978324 -142.302444 
L 526.235382 -143.332961 
L 524.49244 -144.197244 
L 522.749498 -144.95155 
L 521.006556 -145.646095 
L 519.263614 -146.32243 
L 517.520672 -147.0135 
L 515.77773 -147.745321 
L 514.034789 -148.538963 
L 512.291847 -149.411703 
L 510.548905 -150.376539 
L 508.805963 -151.439783 
L 507.063021 -152.597134 
L 505.320079 -153.829462 
L 503.577137 -155.100245 
L 501.834195 -156.356795 
L 500.091253 -157.536679 
L 498.348311 -158.579123 
L 496.605369 -159.439062 
L 494.862428 -160.099957 
L 493.119486 -160.581288 
L 491.376544 -160.938063 
L 489.633602 -161.252124 
L 487.89066 -161.61739 
L 486.147718 -162.122386 
L 484.404776 -162.833284 
L 482.661834 -163.779853 
L 480.918892 -164.945881 
L 479.17595 -166.265518 
L 477.433008 -167.627024 
L 475.690066 -168.884965 
L 473.947125 -169.880392 
L 472.204183 -170.466057 
L 470.461241 -170.531497 
L 468.718299 -170.022002 
L 466.975357 -168.946732 
L 465.232415 -167.374296 
L 463.489473 -165.417588 
L 461.746531 -163.212405 
L 460.003589 -160.895314 
L 458.260647 -158.58554 
L 456.517705 -156.373686 
L 454.774764 -154.317894 
L 453.031822 -152.446235 
L 451.28888 -150.763065 
L 449.545938 -149.256927 
L 447.802996 -147.907967 
L 446.060054 -146.693678 
L 444.317112 -145.592553 
L 442.57417 -144.585908 
L 440.831228 -143.658409 
L 439.088286 -142.797876 
L 437.345344 -141.994766 
L 435.602402 -141.241576 
L 433.859461 -140.532328 
L 432.116519 -139.862157 
L 430.373577 -139.227035 
L 428.630635 -138.62356 
L 426.887693 -138.04878 
L 425.144751 -137.50001 
L 423.401809 -136.974594 
L 421.658867 -136.46954 
L 419.915925 -135.98093 
L 418.172983 -135.503001 
L 416.430041 -135.026921 
L 414.6871 -134.539394 
L 412.944158 -134.021544 
L 411.201216 -133.448718 
L 409.458274 -132.792059 
L 407.715332 -132.022452 
L 405.97239 -131.116752 
L 404.229448 -130.065155 
L 402.486506 -128.877518 
L 400.743564 -127.586084 
L 399.000622 -126.242731 
L 397.25768 -124.910551 
L 395.514738 -123.65157 
L 393.771797 -122.513921 
L 392.028855 -121.522022 
L 390.285913 -120.672244 
L 388.542971 -119.934808 
L 386.800029 -119.260996 
L 385.057087 -118.593779 
L 383.314145 -117.879689 
L 381.571203 -117.079832 
L 379.828261 -116.178091 
L 378.085319 -115.184774 
L 376.342377 -114.134664 
L 374.599436 -113.079596 
L 372.856494 -112.077285 
L 371.113552 -111.179376 
L 369.37061 -110.421949 
L 367.627668 -109.820813 
L 365.884726 -109.372152 
L 364.141784 -109.057345 
L 362.398842 -108.849725 
L 360.6559 -108.72104 
L 358.912958 -108.646088 
L 357.170016 -108.605067 
L 355.427075 -108.583973 
L 353.684133 -108.573781 
L 351.941191 -108.569155 
L 350.198249 -108.567183 
L 348.455307 -108.566396 
L 346.712365 -108.566112 
L 344.969423 -108.56605 
L 343.226481 -108.566142 
L 341.483539 -108.566482 
L 339.740597 -108.567391 
L 337.997655 -108.569617 
L 336.254713 -108.574725 
L 334.511772 -108.585732 
L 332.76883 -108.608016 
L 331.025888 -108.650398 
L 329.282946 -108.726126 
L 327.540004 -108.85325 
L 325.797062 -109.053749 
L 324.05412 -109.350865 
L 322.311178 -109.764569 
L 320.568236 -110.305868 
L 318.825294 -110.97147 
L 317.082352 -111.740757 
L 315.339411 -112.576668 
L 313.596469 -113.430913 
L 311.853527 -114.252389 
L 310.110585 -114.996404 
L 308.367643 -115.631992 
L 306.624701 -116.145375 
L 304.881759 -116.539115 
L 303.138817 -116.827956 
L 301.395875 -117.033168 
L 299.652933 -117.177262 
L 297.909991 -117.280254 
L 296.167049 -117.357883 
L 294.424108 -117.421484 
L 292.681166 -117.478919 
L 290.938224 -117.536008 
L 289.195282 -117.598121 
L 287.45234 -117.67186 
L 285.709398 -117.766816 
L 283.966456 -117.897195 
L 282.223514 -118.08273 
L 280.480572 -118.348074 
L 278.73763 -118.719995 
L 276.994688 -119.222349 
L 275.251747 -119.8697 
L 273.508805 -120.661303 
L 271.765863 -121.577458 
L 270.022921 -122.579841 
L 268.279979 -123.61636 
L 266.537037 -124.629639 
L 264.794095 -125.567065 
L 263.051153 -126.389636 
L 261.308211 -127.077278 
L 259.565269 -127.629403 
L 257.822327 -128.061113 
L 256.079385 -128.396743 
L 254.336444 -128.662992 
L 252.593502 -128.883564 
L 250.85056 -129.076391 
L 249.107618 -129.253439 
L 247.364676 -129.422292 
L 245.621734 -129.588264 
L 243.878792 -129.755845 
L 242.13585 -129.92889 
L 240.392908 -130.109817 
L 238.649966 -130.298822 
L 236.907024 -130.494134 
L 235.164083 -130.693569 
L 233.421141 -130.896518 
L 231.678199 -131.104951 
L 229.935257 -131.322562 
L 228.192315 -131.552563 
L 226.449373 -131.795731 
L 224.706431 -132.050273 
L 222.963489 -132.313721 
L 221.220547 -132.585501 
L 219.477605 -132.868254 
L 217.734663 -133.166935 
L 215.991722 -133.486431 
L 214.24878 -133.829608 
L 212.505838 -134.197365 
L 210.762896 -134.590693 
L 209.019954 -135.013154 
L 207.277012 -135.471756 
L 205.53407 -135.975344 
L 203.791128 -136.531213 
L 202.048186 -137.141698 
L 200.305244 -137.802094 
L 198.562302 -138.500128 
L 196.81936 -139.216445 
L 195.076419 -139.925859 
L 193.333477 -140.599959 
L 191.590535 -141.211792 
L 189.847593 -141.74217 
L 188.104651 -142.185395 
L 186.361709 -142.551462 
L 184.618767 -142.863103 
L 182.875825 -143.148515 
L 181.132883 -143.432749 
L 179.389941 -143.730996 
L 177.646999 -144.045672 
L 175.904058 -144.367426 
L 174.161116 -144.679012 
L 172.418174 -144.960529 
L 170.675232 -145.194349 
L 168.93229 -145.368118 
L 167.189348 -145.474871 
L 165.446406 -145.510738 
L 163.703464 -145.47232 
L 161.960522 -145.356123 
L 160.21758 -145.161022 
L 158.474638 -144.892216 
L 156.731696 -144.563471 
L 154.988755 -144.195003 
L 153.245813 -143.806896 
L 151.502871 -143.410816 
L 149.759929 -143.004107 
L 148.016987 -142.569401 
L 146.274045 -142.080335 
L 144.531103 -141.511196 
L 142.788161 -140.846702 
L 141.045219 -140.08817 
L 139.302277 -139.253944 
L 137.559335 -138.374336 
L 135.816394 -137.483493 
L 134.073452 -136.611576 
L 132.33051 -135.780027 
L 130.587568 -135.000917 
L 128.844626 -134.279274 
L 127.101684 -133.616142 
L 125.358742 -133.01034 
L 123.6158 -132.458379 
L 121.872858 -131.953615 
L 120.129916 -131.486395 
L 118.386974 -131.046162 
L 116.644033 -130.624785 
L 114.901091 -130.219101 
L 113.158149 -129.830831 
L 111.415207 -129.463702 
L 109.672265 -129.119543 
L 107.929323 -128.795903 
L 106.186381 -128.486682 
L 104.443439 -128.185222 
L 102.700497 -127.887711 
L 100.957555 -127.594712 
L 99.214613 -127.310037 
L 97.471671 -127.037894 
L 95.72873 -126.780164 
L 93.985788 -126.535288 
L 92.242846 -126.299164 
L 90.499904 -126.067286 
L 88.756962 -125.836912 
L 87.01402 -125.608141 
L 85.271078 -125.383484 
L 83.528136 -125.166218 
L 81.785194 -124.958438 
L 80.042252 -124.759826 
L 78.29931 -124.567821 
L 76.556369 -124.379048 
L 74.813427 -124.191161 
L 73.070485 -124.004002 
L 71.327543 -123.819406 
L 69.584601 -123.639843 
L 67.841659 -123.466794 
L 66.098717 -123.299881 
L 64.355775 -123.137224 
L 62.612833 -122.976698 
L 60.869891 -122.817186 
L 59.126949 -122.659031 
L 57.384007 -122.503472 
L 55.641066 -122.351542 
L 53.898124 -122.203177 
L 52.155182 -122.056995 
L 50.41224 -121.910562 
L 48.669298 -121.760535 
L 46.926356 -121.602152 
L 45.183414 -121.427991 
L 43.440472 -121.226514 
L 41.69753 -120.981137 
L 39.954588 -120.670471 
L 38.211646 -120.270119 
L 36.468705 -119.756034 
L 34.725763 -119.109152 
L 32.982821 -118.320547 
L 31.239879 -117.395928 
L 29.496937 -116.358106 
L 27.753995 -115.246262 
L 26.011053 -114.111639 
L 24.268111 -113.010326 
z
" style="stroke: #666666"/>
    </defs>
    <g clip-path="url(#p805b6ea7f2)">
     <use xlink:href="#mdfb737045f" x="0" y="193.830937" style="fill: #666666; stroke: #666666"/>
    </g>
   </g>
   <g id="PathCollection_1">
    <defs>
     <path id="m8419f22163" d="M -1.936492 1.936492 
L 1.936492 1.936492 
L 1.936492 -1.936492 
L -1.936492 -1.936492 
z
" style="stroke: #810f29; stroke-opacity: 0.8; stroke-width: 1.01"/>
    </defs>
    <g clip-path="url(#p805b6ea7f2)">
     <use xlink:href="#m8419f22163" x="460.544125" y="104.78125" style="fill: #b9153a; fill-opacity: 0.8; stroke: #810f29; stroke-opacity: 0.8; stroke-width: 1.01"/>
     <use xlink:href="#m8419f22163" x="248.624649" y="104.78125" style="fill: #b9153a; fill-opacity: 0.8; stroke: #810f29; stroke-opacity: 0.8; stroke-width: 1.01"/>
     <use xlink:href="#m8419f22163" x="448.249525" y="104.78125" style="fill: #b9153a; fill-opacity: 0.8; stroke: #810f29; stroke-opacity: 0.8; stroke-width: 1.01"/>
     <use xlink:href="#m8419f22163" x="219.605466" y="104.78125" style="fill: #b9153a; fill-opacity: 0.8; stroke: #810f29; stroke-opacity: 0.8; stroke-width: 1.01"/>
     <use xlink:href="#m8419f22163" x="464.572231" y="104.78125" style="fill: #b9153a; fill-opacity: 0.8; stroke: #810f29; stroke-opacity: 0.8; stroke-width: 1.01"/>
     <use xlink:href="#m8419f22163" x="240.764703" y="104.78125" style="fill: #b9153a; fill-opacity: 0.8; stroke: #810f29; stroke-opacity: 0.8; stroke-width: 1.01"/>
     <use xlink:href="#m8419f22163" x="451.572011" y="104.78125" style="fill: #b9153a; fill-opacity: 0.8; stroke: #810f29; stroke-opacity: 0.8; stroke-width: 1.01"/>
     <use xlink:href="#m8419f22163" x="228.002804" y="104.78125" style="fill: #b9153a; fill-opacity: 0.8; stroke: #810f29; stroke-opacity: 0.8; stroke-width: 1.01"/>
     <use xlink:href="#m8419f22163" x="453.992613" y="104.78125" style="fill: #b9153a; fill-opacity: 0.8; stroke: #810f29; stroke-opacity: 0.8; stroke-width: 1.01"/>
     <use xlink:href="#m8419f22163" x="248.816241" y="104.78125" style="fill: #b9153a; fill-opacity: 0.8; stroke: #810f29; stroke-opacity: 0.8; stroke-width: 1.01"/>
     <use xlink:href="#m8419f22163" x="451.263594" y="104.78125" style="fill: #b9153a; fill-opacity: 0.8; stroke: #810f29; stroke-opacity: 0.8; stroke-width: 1.01"/>
     <use xlink:href="#m8419f22163" x="224.091523" y="104.78125" style="fill: #b9153a; fill-opacity: 0.8; stroke: #810f29; stroke-opacity: 0.8; stroke-width: 1.01"/>
    </g>
   </g>
   <g id="PathCollection_2">
    <defs>
     <path id="m7a00606c3c" d="M 0 2.738613 
L 2.738613 0 
L 0 -2.738613 
L -2.738613 0 
z
" style="stroke: #0c537b; stroke-opacity: 0.8; stroke-width: 1.01"/>
    </defs>
    <g clip-path="url(#p805b6ea7f2)">
     <use xlink:href="#m7a00606c3c" x="487.212801" y="124.2975" style="fill: #1177b0; fill-opacity: 0.8; stroke: #0c537b; stroke-opacity: 0.8; stroke-width: 1.01"/>
     <use xlink:href="#m7a00606c3c" x="189.992815" y="124.2975" style="fill: #1177b0; fill-opacity: 0.8; stroke: #0c537b; stroke-opacity: 0.8; stroke-width: 1.01"/>
     <use xlink:href="#m7a00606c3c" x="477.544413" y="124.2975" style="fill: #1177b0; fill-opacity: 0.8; stroke: #0c537b; stroke-opacity: 0.8; stroke-width: 1.01"/>
     <use xlink:href="#m7a00606c3c" x="178.029996" y="124.2975" style="fill: #1177b0; fill-opacity: 0.8; stroke: #0c537b; stroke-opacity: 0.8; stroke-width: 1.01"/>
     <use xlink:href="#m7a00606c3c" x="413.389121" y="124.2975" style="fill: #1177b0; fill-opacity: 0.8; stroke: #0c537b; stroke-opacity: 0.8; stroke-width: 1.01"/>
     <use xlink:href="#m7a00606c3c" x="308.578935" y="124.2975" style="fill: #1177b0; fill-opacity: 0.8; stroke: #0c537b; stroke-opacity: 0.8; stroke-width: 1.01"/>
     <use xlink:href="#m7a00606c3c" x="411.772271" y="124.2975" style="fill: #1177b0; fill-opacity: 0.8; stroke: #0c537b; stroke-opacity: 0.8; stroke-width: 1.01"/>
     <use xlink:href="#m7a00606c3c" x="234.51226" y="124.2975" style="fill: #1177b0; fill-opacity: 0.8; stroke: #0c537b; stroke-opacity: 0.8; stroke-width: 1.01"/>
     <use xlink:href="#m7a00606c3c" x="434.123117" y="124.2975" style="fill: #1177b0; fill-opacity: 0.8; stroke: #0c537b; stroke-opacity: 0.8; stroke-width: 1.01"/>
     <use xlink:href="#m7a00606c3c" x="301.606855" y="124.2975" style="fill: #1177b0; fill-opacity: 0.8; stroke: #0c537b; stroke-opacity: 0.8; stroke-width: 1.01"/>
     <use xlink:href="#m7a00606c3c" x="415.53869" y="124.2975" style="fill: #1177b0; fill-opacity: 0.8; stroke: #0c537b; stroke-opacity: 0.8; stroke-width: 1.01"/>
     <use xlink:href="#m7a00606c3c" x="217.717584" y="124.2975" style="fill: #1177b0; fill-opacity: 0.8; stroke: #0c537b; stroke-opacity: 0.8; stroke-width: 1.01"/>
    </g>
   </g>
   <g id="PathCollection_3">
    <defs>
     <path id="mff7df16df3" d="M 0 1.936492 
C 0.513564 1.936492 1.006162 1.732451 1.369306 1.369306 
C 1.732451 1.006162 1.936492 0.513564 1.936492 0 
C 1.936492 -0.513564 1.732451 -1.006162 1.369306 -1.369306 
C 1.006162 -1.732451 0.513564 -1.936492 0 -1.936492 
C -0.513564 -1.936492 -1.006162 -1.732451 -1.369306 -1.369306 
C -1.732451 -1.006162 -1.936492 -0.513564 -1.936492 0 
C -1.936492 0.513564 -1.732451 1.006162 -1.369306 1.369306 
C -1.006162 1.732451 -0.513564 1.936492 0 1.936492 
z
" style="stroke: #004022; stroke-opacity: 0.8; stroke-width: 1.01"/>
    </defs>
    <g clip-path="url(#p805b6ea7f2)">
     <use xlink:href="#mff7df16df3" x="491.254926" y="143.81375" style="fill: #005b30; fill-opacity: 0.8; stroke: #004022; stroke-opacity: 0.8; stroke-width: 1.01"/>
     <use xlink:href="#mff7df16df3" x="184.338514" y="143.81375" style="fill: #005b30; fill-opacity: 0.8; stroke: #004022; stroke-opacity: 0.8; stroke-width: 1.01"/>
     <use xlink:href="#mff7df16df3" x="484.315556" y="143.81375" style="fill: #005b30; fill-opacity: 0.8; stroke: #004022; stroke-opacity: 0.8; stroke-width: 1.01"/>
     <use xlink:href="#mff7df16df3" x="169.543871" y="143.81375" style="fill: #005b30; fill-opacity: 0.8; stroke: #004022; stroke-opacity: 0.8; stroke-width: 1.01"/>
     <use xlink:href="#mff7df16df3" x="478.679946" y="143.81375" style="fill: #005b30; fill-opacity: 0.8; stroke: #004022; stroke-opacity: 0.8; stroke-width: 1.01"/>
     <use xlink:href="#mff7df16df3" x="210.063248" y="143.81375" style="fill: #005b30; fill-opacity: 0.8; stroke: #004022; stroke-opacity: 0.8; stroke-width: 1.01"/>
     <use xlink:href="#mff7df16df3" x="468.978848" y="143.81375" style="fill: #005b30; fill-opacity: 0.8; stroke: #004022; stroke-opacity: 0.8; stroke-width: 1.01"/>
     <use xlink:href="#mff7df16df3" x="197.950894" y="143.81375" style="fill: #005b30; fill-opacity: 0.8; stroke: #004022; stroke-opacity: 0.8; stroke-width: 1.01"/>
     <use xlink:href="#mff7df16df3" x="478.988363" y="143.81375" style="fill: #005b30; fill-opacity: 0.8; stroke: #004022; stroke-opacity: 0.8; stroke-width: 1.01"/>
     <use xlink:href="#mff7df16df3" x="255.8958" y="143.81375" style="fill: #005b30; fill-opacity: 0.8; stroke: #004022; stroke-opacity: 0.8; stroke-width: 1.01"/>
     <use xlink:href="#mff7df16df3" x="457.165563" y="143.81375" style="fill: #005b30; fill-opacity: 0.8; stroke: #004022; stroke-opacity: 0.8; stroke-width: 1.01"/>
     <use xlink:href="#mff7df16df3" x="180.693592" y="143.81375" style="fill: #005b30; fill-opacity: 0.8; stroke: #004022; stroke-opacity: 0.8; stroke-width: 1.01"/>
     <use xlink:href="#mff7df16df3" x="482.002433" y="143.81375" style="fill: #005b30; fill-opacity: 0.8; stroke: #004022; stroke-opacity: 0.8; stroke-width: 1.01"/>
     <use xlink:href="#mff7df16df3" x="203.021073" y="143.81375" style="fill: #005b30; fill-opacity: 0.8; stroke: #004022; stroke-opacity: 0.8; stroke-width: 1.01"/>
     <use xlink:href="#mff7df16df3" x="473.212564" y="143.81375" style="fill: #005b30; fill-opacity: 0.8; stroke: #004022; stroke-opacity: 0.8; stroke-width: 1.01"/>
     <use xlink:href="#mff7df16df3" x="190.352634" y="143.81375" style="fill: #005b30; fill-opacity: 0.8; stroke: #004022; stroke-opacity: 0.8; stroke-width: 1.01"/>
     <use xlink:href="#mff7df16df3" x="488.45114" y="143.81375" style="fill: #005b30; fill-opacity: 0.8; stroke: #004022; stroke-opacity: 0.8; stroke-width: 1.01"/>
     <use xlink:href="#mff7df16df3" x="176.427165" y="143.81375" style="fill: #005b30; fill-opacity: 0.8; stroke: #004022; stroke-opacity: 0.8; stroke-width: 1.01"/>
     <use xlink:href="#mff7df16df3" x="485.114635" y="143.81375" style="fill: #005b30; fill-opacity: 0.8; stroke: #004022; stroke-opacity: 0.8; stroke-width: 1.01"/>
     <use xlink:href="#mff7df16df3" x="175.936502" y="143.81375" style="fill: #005b30; fill-opacity: 0.8; stroke: #004022; stroke-opacity: 0.8; stroke-width: 1.01"/>
     <use xlink:href="#mff7df16df3" x="492.525975" y="143.81375" style="fill: #005b30; fill-opacity: 0.8; stroke: #004022; stroke-opacity: 0.8; stroke-width: 1.01"/>
     <use xlink:href="#mff7df16df3" x="200.151865" y="143.81375" style="fill: #005b30; fill-opacity: 0.8; stroke: #004022; stroke-opacity: 0.8; stroke-width: 1.01"/>
     <use xlink:href="#mff7df16df3" x="482.259446" y="143.81375" style="fill: #005b30; fill-opacity: 0.8; stroke: #004022; stroke-opacity: 0.8; stroke-width: 1.01"/>
     <use xlink:href="#mff7df16df3" x="169.184051" y="143.81375" style="fill: #005b30; fill-opacity: 0.8; stroke: #004022; stroke-opacity: 0.8; stroke-width: 1.01"/>
     <use xlink:href="#mff7df16df3" x="495.591448" y="143.81375" style="fill: #005b30; fill-opacity: 0.8; stroke: #004022; stroke-opacity: 0.8; stroke-width: 1.01"/>
     <use xlink:href="#mff7df16df3" x="178.801037" y="143.81375" style="fill: #005b30; fill-opacity: 0.8; stroke: #004022; stroke-opacity: 0.8; stroke-width: 1.01"/>
     <use xlink:href="#mff7df16df3" x="494.853118" y="143.81375" style="fill: #005b30; fill-opacity: 0.8; stroke: #004022; stroke-opacity: 0.8; stroke-width: 1.01"/>
     <use xlink:href="#mff7df16df3" x="167.62795" y="143.81375" style="fill: #005b30; fill-opacity: 0.8; stroke: #004022; stroke-opacity: 0.8; stroke-width: 1.01"/>
     <use xlink:href="#mff7df16df3" x="490.156776" y="143.81375" style="fill: #005b30; fill-opacity: 0.8; stroke: #004022; stroke-opacity: 0.8; stroke-width: 1.01"/>
     <use xlink:href="#mff7df16df3" x="222.778417" y="143.81375" style="fill: #005b30; fill-opacity: 0.8; stroke: #004022; stroke-opacity: 0.8; stroke-width: 1.01"/>
     <use xlink:href="#mff7df16df3" x="470.488219" y="143.81375" style="fill: #005b30; fill-opacity: 0.8; stroke: #004022; stroke-opacity: 0.8; stroke-width: 1.01"/>
     <use xlink:href="#mff7df16df3" x="199.633165" y="143.81375" style="fill: #005b30; fill-opacity: 0.8; stroke: #004022; stroke-opacity: 0.8; stroke-width: 1.01"/>
     <use xlink:href="#mff7df16df3" x="491.147447" y="143.81375" style="fill: #005b30; fill-opacity: 0.8; stroke: #004022; stroke-opacity: 0.8; stroke-width: 1.01"/>
     <use xlink:href="#mff7df16df3" x="206.180005" y="143.81375" style="fill: #005b30; fill-opacity: 0.8; stroke: #004022; stroke-opacity: 0.8; stroke-width: 1.01"/>
     <use xlink:href="#mff7df16df3" x="480.960359" y="143.81375" style="fill: #005b30; fill-opacity: 0.8; stroke: #004022; stroke-opacity: 0.8; stroke-width: 1.01"/>
     <use xlink:href="#mff7df16df3" x="163.711996" y="143.81375" style="fill: #005b30; fill-opacity: 0.8; stroke: #004022; stroke-opacity: 0.8; stroke-width: 1.01"/>
    </g>
   </g>
   <g id="matplotlib.axis_1">
    <g id="xtick_1">
     <g id="line2d_1">
      <defs>
       <path id="me1abf93a0a" d="M 0 0 
L 0 3.5 
" style="stroke: #000000; stroke-width: 0.8"/>
      </defs>
      <g>
       <use xlink:href="#me1abf93a0a" x="18.882441" y="163.33" style="stroke: #000000; stroke-width: 0.8"/>
      </g>
     </g>
     <g id="text_1">
      <!-- 6 -->
      <g transform="translate(17.214628 174.614375) scale(0.06 -0.06)">
       <defs>
        <path id="HelveticaNeue-36" d="M 2650 3379 
L 3194 3379 
Q 3142 3942 2809 4240 
Q 2477 4538 1914 4538 
Q 1427 4538 1107 4333 
Q 787 4128 595 3789 
Q 403 3450 323 3011 
Q 243 2573 243 2106 
Q 243 1747 297 1363 
Q 352 979 518 659 
Q 685 339 992 134 
Q 1299 -70 1805 -70 
Q 2234 -70 2525 74 
Q 2816 218 2992 438 
Q 3168 659 3245 928 
Q 3322 1197 3322 1446 
Q 3322 1760 3226 2029 
Q 3130 2298 2954 2496 
Q 2778 2694 2518 2806 
Q 2259 2918 1933 2918 
Q 1562 2918 1277 2777 
Q 992 2637 800 2323 
L 787 2336 
Q 794 2598 838 2899 
Q 883 3200 1001 3459 
Q 1120 3718 1331 3888 
Q 1542 4058 1888 4058 
Q 2214 4058 2412 3872 
Q 2611 3686 2650 3379 
z
M 1830 2438 
Q 2061 2438 2233 2355 
Q 2406 2272 2521 2134 
Q 2637 1997 2691 1808 
Q 2746 1619 2746 1408 
Q 2746 1210 2685 1027 
Q 2624 845 2509 704 
Q 2394 563 2224 483 
Q 2054 403 1830 403 
Q 1606 403 1430 483 
Q 1254 563 1136 697 
Q 1018 832 954 1017 
Q 890 1203 890 1414 
Q 890 1626 950 1814 
Q 1011 2003 1132 2140 
Q 1254 2278 1427 2358 
Q 1600 2438 1830 2438 
z
" transform="scale(0.015625)"/>
       </defs>
       <use xlink:href="#HelveticaNeue-36"/>
      </g>
     </g>
    </g>
    <g id="xtick_2">
     <g id="line2d_2">
      <g>
       <use xlink:href="#me1abf93a0a" x="112.341967" y="163.33" style="stroke: #000000; stroke-width: 0.8"/>
      </g>
     </g>
     <g id="text_2">
      <!-- 8 -->
      <g transform="translate(110.674155 174.614375) scale(0.06 -0.06)">
       <defs>
        <path id="HelveticaNeue-38" d="M 992 3360 
Q 992 3533 1056 3661 
Q 1120 3789 1225 3878 
Q 1331 3968 1478 4013 
Q 1626 4058 1786 4058 
Q 2118 4058 2332 3882 
Q 2547 3706 2547 3360 
Q 2547 3014 2336 2822 
Q 2125 2630 1798 2630 
Q 1632 2630 1485 2675 
Q 1338 2720 1229 2809 
Q 1120 2899 1056 3036 
Q 992 3174 992 3360 
z
M 416 3379 
Q 416 3072 589 2813 
Q 762 2554 1050 2438 
Q 666 2304 461 2006 
Q 256 1709 256 1306 
Q 256 960 374 701 
Q 493 442 701 269 
Q 909 96 1190 13 
Q 1472 -70 1798 -70 
Q 2112 -70 2387 19 
Q 2662 109 2864 285 
Q 3066 461 3184 717 
Q 3302 973 3302 1306 
Q 3302 1728 3104 2019 
Q 2906 2310 2496 2438 
Q 2784 2566 2953 2819 
Q 3123 3072 3123 3379 
Q 3123 3597 3046 3805 
Q 2970 4013 2806 4176 
Q 2643 4339 2380 4438 
Q 2118 4538 1747 4538 
Q 1485 4538 1245 4461 
Q 1005 4384 819 4237 
Q 634 4090 525 3875 
Q 416 3661 416 3379 
z
M 832 1280 
Q 832 1478 905 1638 
Q 979 1798 1110 1913 
Q 1242 2029 1418 2089 
Q 1594 2150 1792 2150 
Q 1984 2150 2153 2083 
Q 2323 2016 2451 1901 
Q 2579 1786 2652 1629 
Q 2726 1472 2726 1286 
Q 2726 1094 2659 934 
Q 2592 774 2467 656 
Q 2342 538 2172 470 
Q 2003 403 1798 403 
Q 1376 403 1104 636 
Q 832 870 832 1280 
z
" transform="scale(0.015625)"/>
       </defs>
       <use xlink:href="#HelveticaNeue-38"/>
      </g>
     </g>
    </g>
    <g id="xtick_3">
     <g id="line2d_3">
      <g>
       <use xlink:href="#me1abf93a0a" x="205.801494" y="163.33" style="stroke: #000000; stroke-width: 0.8"/>
      </g>
     </g>
     <g id="text_3">
      <!-- 10 -->
      <g transform="translate(202.465869 174.614375) scale(0.06 -0.06)">
       <defs>
        <path id="HelveticaNeue-31" d="M 2278 0 
L 2278 4538 
L 1862 4538 
Q 1818 4282 1696 4115 
Q 1574 3949 1398 3853 
Q 1222 3757 1004 3721 
Q 787 3686 557 3686 
L 557 3251 
L 1734 3251 
L 1734 0 
L 2278 0 
z
" transform="scale(0.015625)"/>
        <path id="HelveticaNeue-30" d="M 845 2234 
Q 845 2400 848 2601 
Q 851 2803 880 3004 
Q 909 3206 963 3398 
Q 1018 3590 1123 3734 
Q 1229 3878 1389 3968 
Q 1549 4058 1779 4058 
Q 2010 4058 2170 3968 
Q 2330 3878 2435 3734 
Q 2541 3590 2595 3398 
Q 2650 3206 2678 3004 
Q 2707 2803 2710 2601 
Q 2714 2400 2714 2234 
Q 2714 1978 2698 1661 
Q 2682 1344 2595 1065 
Q 2509 787 2317 595 
Q 2125 403 1779 403 
Q 1434 403 1242 595 
Q 1050 787 963 1065 
Q 877 1344 861 1661 
Q 845 1978 845 2234 
z
M 269 2227 
Q 269 1978 281 1709 
Q 294 1440 345 1184 
Q 397 928 493 701 
Q 589 474 755 301 
Q 922 128 1174 29 
Q 1427 -70 1779 -70 
Q 2138 -70 2387 29 
Q 2637 128 2803 301 
Q 2970 474 3066 701 
Q 3162 928 3213 1184 
Q 3264 1440 3277 1709 
Q 3290 1978 3290 2227 
Q 3290 2477 3277 2745 
Q 3264 3014 3213 3270 
Q 3162 3526 3066 3756 
Q 2970 3987 2803 4160 
Q 2637 4333 2384 4435 
Q 2131 4538 1779 4538 
Q 1427 4538 1174 4435 
Q 922 4333 755 4160 
Q 589 3987 493 3756 
Q 397 3526 345 3270 
Q 294 3014 281 2745 
Q 269 2477 269 2227 
z
" transform="scale(0.015625)"/>
       </defs>
       <use xlink:href="#HelveticaNeue-31"/>
       <use xlink:href="#HelveticaNeue-30" x="55.599991"/>
      </g>
     </g>
    </g>
    <g id="xtick_4">
     <g id="line2d_4">
      <g>
       <use xlink:href="#me1abf93a0a" x="299.26102" y="163.33" style="stroke: #000000; stroke-width: 0.8"/>
      </g>
     </g>
     <g id="text_4">
      <!-- 12 -->
      <g transform="translate(295.925395 174.614375) scale(0.06 -0.06)">
       <defs>
        <path id="HelveticaNeue-32" d="M 282 2931 
L 826 2931 
Q 819 3136 867 3337 
Q 915 3539 1024 3699 
Q 1133 3859 1302 3958 
Q 1472 4058 1709 4058 
Q 1888 4058 2048 4000 
Q 2208 3942 2326 3833 
Q 2445 3725 2515 3574 
Q 2586 3424 2586 3238 
Q 2586 3002 2512 2822 
Q 2438 2643 2294 2489 
Q 2150 2336 1932 2185 
Q 1715 2035 1427 1856 
Q 1190 1715 972 1555 
Q 755 1395 582 1184 
Q 410 973 298 688 
Q 186 403 154 0 
L 3117 0 
L 3117 480 
L 787 480 
Q 826 691 950 854 
Q 1075 1018 1251 1158 
Q 1427 1299 1638 1424 
Q 1850 1549 2061 1677 
Q 2272 1811 2470 1958 
Q 2669 2106 2822 2288 
Q 2976 2470 3069 2700 
Q 3162 2931 3162 3232 
Q 3162 3552 3050 3795 
Q 2938 4038 2746 4201 
Q 2554 4365 2294 4451 
Q 2035 4538 1741 4538 
Q 1382 4538 1100 4416 
Q 819 4294 630 4080 
Q 442 3866 352 3571 
Q 262 3277 282 2931 
z
" transform="scale(0.015625)"/>
       </defs>
       <use xlink:href="#HelveticaNeue-31"/>
       <use xlink:href="#HelveticaNeue-32" x="55.599991"/>
      </g>
     </g>
    </g>
    <g id="xtick_5">
     <g id="line2d_5">
      <g>
       <use xlink:href="#me1abf93a0a" x="392.720547" y="163.33" style="stroke: #000000; stroke-width: 0.8"/>
      </g>
     </g>
     <g id="text_5">
      <!-- 14 -->
      <g transform="translate(389.384922 174.614375) scale(0.06 -0.06)">
       <defs>
        <path id="HelveticaNeue-34" d="M 2170 1542 
L 646 1542 
L 2157 3763 
L 2170 3763 
L 2170 1542 
z
M 2682 1542 
L 2682 4538 
L 2246 4538 
L 179 1587 
L 179 1062 
L 2170 1062 
L 2170 0 
L 2682 0 
L 2682 1062 
L 3296 1062 
L 3296 1542 
L 2682 1542 
z
" transform="scale(0.015625)"/>
       </defs>
       <use xlink:href="#HelveticaNeue-31"/>
       <use xlink:href="#HelveticaNeue-34" x="55.599991"/>
      </g>
     </g>
    </g>
    <g id="xtick_6">
     <g id="line2d_6">
      <g>
       <use xlink:href="#me1abf93a0a" x="486.180073" y="163.33" style="stroke: #000000; stroke-width: 0.8"/>
      </g>
     </g>
     <g id="text_6">
      <!-- 16 -->
      <g transform="translate(482.844448 174.614375) scale(0.06 -0.06)">
       <use xlink:href="#HelveticaNeue-31"/>
       <use xlink:href="#HelveticaNeue-36" x="55.599991"/>
      </g>
     </g>
    </g>
    <g id="xtick_7">
     <g id="line2d_7">
      <g>
       <use xlink:href="#me1abf93a0a" x="579.6396" y="163.33" style="stroke: #000000; stroke-width: 0.8"/>
      </g>
     </g>
     <g id="text_7">
      <!-- 18 -->
      <g transform="translate(576.303975 174.614375) scale(0.06 -0.06)">
       <use xlink:href="#HelveticaNeue-31"/>
       <use xlink:href="#HelveticaNeue-38" x="55.599991"/>
      </g>
     </g>
    </g>
    <g id="text_8">
     <!-- N···N Distance (Å) -->
     <g transform="translate(269.695425 185.44875) scale(0.06 -0.06)">
      <defs>
       <path id="HelveticaNeue-4e" d="M 493 4570 
L 493 0 
L 1069 0 
L 1069 3667 
L 1082 3667 
L 3469 0 
L 4134 0 
L 4134 4570 
L 3558 4570 
L 3558 864 
L 3546 864 
L 1139 4570 
L 493 4570 
z
" transform="scale(0.015625)"/>
       <path id="HelveticaNeue-b7" d="M 480 1990 
Q 480 1824 605 1702 
Q 730 1581 896 1581 
Q 1056 1581 1177 1709 
Q 1299 1837 1299 1990 
Q 1299 2157 1177 2278 
Q 1056 2400 890 2400 
Q 723 2400 601 2278 
Q 480 2157 480 1990 
z
" transform="scale(0.015625)"/>
       <path id="HelveticaNeue-20" transform="scale(0.015625)"/>
       <path id="HelveticaNeue-44" d="M 1107 512 
L 1107 4058 
L 2131 4058 
Q 2554 4058 2842 3939 
Q 3130 3821 3312 3593 
Q 3494 3366 3574 3043 
Q 3654 2720 3654 2310 
Q 3654 1888 3568 1590 
Q 3482 1293 3347 1094 
Q 3213 896 3043 781 
Q 2874 666 2701 605 
Q 2528 544 2374 528 
Q 2221 512 2118 512 
L 1107 512 
z
M 499 4570 
L 499 0 
L 2067 0 
Q 2637 0 3053 160 
Q 3469 320 3737 624 
Q 4006 928 4134 1373 
Q 4262 1818 4262 2394 
Q 4262 3494 3692 4032 
Q 3123 4570 2067 4570 
L 499 4570 
z
" transform="scale(0.015625)"/>
       <path id="HelveticaNeue-69" d="M 986 3904 
L 986 4570 
L 442 4570 
L 442 3904 
L 986 3904 
z
M 442 3309 
L 442 0 
L 986 0 
L 986 3309 
L 442 3309 
z
" transform="scale(0.015625)"/>
       <path id="HelveticaNeue-73" d="M 742 1043 
L 198 1043 
Q 211 736 326 521 
Q 442 307 634 176 
Q 826 45 1075 -12 
Q 1325 -70 1600 -70 
Q 1850 -70 2102 -22 
Q 2355 26 2556 147 
Q 2758 269 2883 467 
Q 3008 666 3008 966 
Q 3008 1203 2915 1363 
Q 2822 1523 2672 1628 
Q 2522 1734 2326 1798 
Q 2131 1862 1926 1907 
Q 1734 1952 1542 1993 
Q 1350 2035 1196 2096 
Q 1043 2157 944 2249 
Q 845 2342 845 2483 
Q 845 2611 909 2691 
Q 973 2771 1075 2819 
Q 1178 2867 1302 2886 
Q 1427 2906 1549 2906 
Q 1683 2906 1814 2877 
Q 1946 2848 2054 2784 
Q 2163 2720 2233 2614 
Q 2304 2509 2317 2349 
L 2861 2349 
Q 2842 2650 2733 2851 
Q 2624 3053 2441 3171 
Q 2259 3290 2022 3338 
Q 1786 3386 1504 3386 
Q 1286 3386 1065 3331 
Q 845 3277 669 3165 
Q 493 3053 381 2873 
Q 269 2694 269 2445 
Q 269 2125 429 1945 
Q 589 1766 829 1667 
Q 1069 1568 1350 1513 
Q 1632 1459 1872 1392 
Q 2112 1325 2272 1216 
Q 2432 1107 2432 896 
Q 2432 742 2355 643 
Q 2278 544 2160 493 
Q 2042 442 1901 422 
Q 1760 403 1632 403 
Q 1466 403 1309 435 
Q 1152 467 1027 540 
Q 902 614 825 739 
Q 749 864 742 1043 
z
" transform="scale(0.015625)"/>
       <path id="HelveticaNeue-74" d="M 1165 3309 
L 1165 4301 
L 621 4301 
L 621 3309 
L 58 3309 
L 58 2829 
L 621 2829 
L 621 723 
Q 621 493 665 352 
Q 710 211 803 134 
Q 896 58 1046 29 
Q 1197 0 1408 0 
L 1824 0 
L 1824 480 
L 1574 480 
Q 1446 480 1366 489 
Q 1286 499 1241 531 
Q 1197 563 1181 620 
Q 1165 678 1165 774 
L 1165 2829 
L 1824 2829 
L 1824 3309 
L 1165 3309 
z
" transform="scale(0.015625)"/>
       <path id="HelveticaNeue-61" d="M 3341 13 
Q 3200 -70 2950 -70 
Q 2739 -70 2614 48 
Q 2490 166 2490 435 
Q 2266 166 1968 48 
Q 1670 -70 1325 -70 
Q 1101 -70 899 -19 
Q 698 32 550 141 
Q 403 250 316 426 
Q 230 602 230 851 
Q 230 1133 326 1312 
Q 422 1491 579 1603 
Q 736 1715 937 1772 
Q 1139 1830 1350 1869 
Q 1574 1914 1776 1936 
Q 1978 1958 2131 2000 
Q 2285 2042 2374 2122 
Q 2464 2202 2464 2355 
Q 2464 2534 2397 2643 
Q 2330 2752 2224 2809 
Q 2118 2867 1987 2886 
Q 1856 2906 1728 2906 
Q 1382 2906 1152 2774 
Q 922 2643 902 2278 
L 358 2278 
Q 371 2586 486 2797 
Q 602 3008 794 3139 
Q 986 3270 1232 3328 
Q 1478 3386 1760 3386 
Q 1984 3386 2205 3354 
Q 2426 3322 2605 3222 
Q 2784 3123 2893 2944 
Q 3002 2765 3002 2477 
L 3002 774 
Q 3002 582 3024 492 
Q 3046 403 3174 403 
Q 3245 403 3341 435 
L 3341 13 
z
M 2458 1709 
Q 2355 1632 2188 1597 
Q 2022 1562 1840 1539 
Q 1658 1517 1472 1488 
Q 1286 1459 1139 1395 
Q 992 1331 899 1212 
Q 806 1094 806 890 
Q 806 755 860 662 
Q 915 570 1001 512 
Q 1088 454 1203 428 
Q 1318 403 1446 403 
Q 1715 403 1907 476 
Q 2099 550 2220 662 
Q 2342 774 2400 905 
Q 2458 1037 2458 1152 
L 2458 1709 
z
" transform="scale(0.015625)"/>
       <path id="HelveticaNeue-6e" d="M 410 3309 
L 410 0 
L 954 0 
L 954 1869 
Q 954 2093 1014 2281 
Q 1075 2470 1196 2611 
Q 1318 2752 1500 2829 
Q 1683 2906 1933 2906 
Q 2246 2906 2425 2726 
Q 2605 2547 2605 2240 
L 2605 0 
L 3149 0 
L 3149 2176 
Q 3149 2445 3094 2665 
Q 3040 2886 2905 3046 
Q 2771 3206 2553 3296 
Q 2336 3386 2010 3386 
Q 1274 3386 934 2784 
L 922 2784 
L 922 3309 
L 410 3309 
z
" transform="scale(0.015625)"/>
       <path id="HelveticaNeue-63" d="M 2656 2246 
L 3219 2246 
Q 3187 2541 3065 2755 
Q 2944 2970 2755 3110 
Q 2566 3251 2320 3318 
Q 2074 3386 1792 3386 
Q 1402 3386 1107 3248 
Q 813 3110 617 2870 
Q 422 2630 326 2307 
Q 230 1984 230 1613 
Q 230 1242 329 931 
Q 429 621 624 397 
Q 819 173 1110 51 
Q 1402 -70 1779 -70 
Q 2413 -70 2781 262 
Q 3149 595 3238 1210 
L 2682 1210 
Q 2630 826 2403 614 
Q 2176 403 1773 403 
Q 1517 403 1331 505 
Q 1146 608 1030 777 
Q 915 947 860 1164 
Q 806 1382 806 1613 
Q 806 1862 857 2096 
Q 909 2330 1027 2509 
Q 1146 2688 1344 2797 
Q 1542 2906 1837 2906 
Q 2182 2906 2387 2733 
Q 2592 2560 2656 2246 
z
" transform="scale(0.015625)"/>
       <path id="HelveticaNeue-65" d="M 2707 1971 
L 806 1971 
Q 819 2163 889 2332 
Q 960 2502 1081 2630 
Q 1203 2758 1372 2832 
Q 1542 2906 1754 2906 
Q 1958 2906 2128 2832 
Q 2298 2758 2422 2633 
Q 2547 2509 2620 2336 
Q 2694 2163 2707 1971 
z
M 3232 1050 
L 2694 1050 
Q 2624 723 2403 563 
Q 2182 403 1837 403 
Q 1568 403 1369 492 
Q 1171 582 1043 732 
Q 915 883 857 1078 
Q 800 1274 806 1491 
L 3283 1491 
Q 3296 1792 3229 2125 
Q 3162 2458 2986 2739 
Q 2810 3021 2518 3203 
Q 2227 3386 1786 3386 
Q 1446 3386 1161 3258 
Q 877 3130 669 2899 
Q 461 2669 345 2355 
Q 230 2042 230 1664 
Q 243 1286 342 966 
Q 442 646 640 416 
Q 838 186 1129 58 
Q 1421 -70 1818 -70 
Q 2381 -70 2752 211 
Q 3123 493 3232 1050 
z
" transform="scale(0.015625)"/>
       <path id="HelveticaNeue-28" d="M 1306 -1261 
L 1722 -1261 
Q 1267 -525 1072 198 
Q 877 922 877 1728 
Q 877 2515 1069 3232 
Q 1261 3949 1722 4678 
L 1306 4678 
Q 806 4019 553 3251 
Q 301 2483 301 1728 
Q 301 1306 371 922 
Q 442 538 573 173 
Q 704 -192 889 -547 
Q 1075 -902 1306 -1261 
z
" transform="scale(0.015625)"/>
       <path id="HelveticaNeue-c5" d="M 1350 5306 
Q 1350 5453 1408 5584 
Q 1466 5715 1565 5814 
Q 1664 5914 1795 5971 
Q 1926 6029 2074 6029 
Q 2221 6029 2352 5971 
Q 2483 5914 2582 5814 
Q 2682 5715 2739 5584 
Q 2797 5453 2797 5306 
Q 2797 5158 2739 5027 
Q 2682 4896 2582 4797 
Q 2483 4698 2352 4640 
Q 2221 4582 2074 4582 
Q 1926 4582 1795 4640 
Q 1664 4698 1565 4797 
Q 1466 4896 1408 5027 
Q 1350 5158 1350 5306 
z
M 1638 5306 
Q 1638 5120 1763 4995 
Q 1888 4870 2074 4870 
Q 2259 4870 2384 4995 
Q 2509 5120 2509 5306 
Q 2509 5491 2384 5616 
Q 2259 5741 2074 5741 
Q 1888 5741 1763 5616 
Q 1638 5491 1638 5306 
z
M 2835 1888 
L 2074 4019 
L 2061 4019 
L 1286 1888 
L 2835 1888 
z
M 2413 4570 
L 4198 0 
L 3526 0 
L 3027 1376 
L 1094 1376 
L 582 0 
L -38 0 
L 1741 4570 
L 2413 4570 
z
" transform="scale(0.015625)"/>
       <path id="HelveticaNeue-29" d="M -58 -1261 
L 352 -1261 
Q 851 -602 1104 163 
Q 1357 928 1357 1683 
Q 1357 2106 1286 2490 
Q 1216 2874 1085 3242 
Q 954 3610 768 3965 
Q 582 4320 352 4678 
L -58 4678 
Q 390 3942 585 3216 
Q 781 2490 781 1683 
Q 781 902 589 182 
Q 397 -538 -58 -1261 
z
" transform="scale(0.015625)"/>
      </defs>
      <use xlink:href="#HelveticaNeue-4e"/>
      <use xlink:href="#HelveticaNeue-b7" x="72.199982"/>
      <use xlink:href="#HelveticaNeue-b7" x="99.999969"/>
      <use xlink:href="#HelveticaNeue-b7" x="127.799957"/>
      <use xlink:href="#HelveticaNeue-4e" x="155.599945"/>
      <use xlink:href="#HelveticaNeue-20" x="227.799927"/>
      <use xlink:href="#HelveticaNeue-44" x="255.599915"/>
      <use xlink:href="#HelveticaNeue-69" x="325.999908"/>
      <use xlink:href="#HelveticaNeue-73" x="348.199905"/>
      <use xlink:href="#HelveticaNeue-74" x="398.19989"/>
      <use xlink:href="#HelveticaNeue-61" x="429.699875"/>
      <use xlink:href="#HelveticaNeue-6e" x="483.399872"/>
      <use xlink:href="#HelveticaNeue-63" x="538.999863"/>
      <use xlink:href="#HelveticaNeue-65" x="592.69986"/>
      <use xlink:href="#HelveticaNeue-20" x="646.399857"/>
      <use xlink:href="#HelveticaNeue-28" x="674.199844"/>
      <use xlink:href="#HelveticaNeue-c5" x="700.099838"/>
      <use xlink:href="#HelveticaNeue-29" x="764.899826"/>
     </g>
    </g>
   </g>
   <g id="matplotlib.axis_2"/>
   <g id="line2d_8">
    <path d="M 7.2 85.265 
L 579.6396 85.265 
" clip-path="url(#p805b6ea7f2)" style="fill: none; stroke: #000000; stroke-linecap: square"/>
   </g>
   <g id="patch_3">
    <path d="M 7.2 163.33 
L 7.2 7.2 
" style="fill: none; stroke: #000000; stroke-width: 0.8; stroke-linejoin: miter; stroke-linecap: square"/>
   </g>
   <g id="patch_4">
    <path d="M 579.6396 163.33 
L 579.6396 7.2 
" style="fill: none; stroke: #000000; stroke-width: 0.8; stroke-linejoin: miter; stroke-linecap: square"/>
   </g>
   <g id="patch_5">
    <path d="M 7.2 163.33 
L 579.6396 163.33 
" style="fill: none; stroke: #000000; stroke-width: 0.8; stroke-linejoin: miter; stroke-linecap: square"/>
   </g>
   <g id="patch_6">
    <path d="M 7.2 7.2 
L 579.6396 7.2 
" style="fill: none; stroke: #000000; stroke-width: 0.8; stroke-linejoin: miter; stroke-linecap: square"/>
   </g>
   <g id="text_9">
    <!-- Edges in 1 -->
    <g transform="translate(65.612204 106.335625) scale(0.06 -0.06)">
     <defs>
      <path id="HelveticaNeue-Bold-45" d="M 442 0 
L 3910 0 
L 3910 845 
L 1446 845 
L 1446 1965 
L 3661 1965 
L 3661 2746 
L 1446 2746 
L 1446 3725 
L 3859 3725 
L 3859 4570 
L 442 4570 
L 442 0 
z
" transform="scale(0.015625)"/>
      <path id="HelveticaNeue-Bold-64" d="M 2707 0 
L 3571 0 
L 3571 4570 
L 2662 4570 
L 2662 2906 
L 2650 2906 
L 2656 2906 
C 2445 3232 2061 3398 1670 3398 
C 698 3398 205 2573 205 1683 
C 205 768 691 -90 1690 -90 
C 2112 -90 2483 64 2694 422 
L 2707 422 
L 2707 0 
z
M 2694 1664 
C 2694 1120 2515 595 1914 595 
C 1350 595 1114 1139 1114 1658 
C 1114 2202 1318 2714 1914 2714 
C 2502 2714 2694 2202 2694 1664 
z
" transform="scale(0.015625)"/>
      <path id="HelveticaNeue-Bold-67" d="M 3526 3309 
L 2662 3309 
L 2662 2867 
L 2650 2867 
C 2432 3251 2099 3398 1664 3398 
C 736 3398 243 2618 243 1760 
C 243 851 666 96 1658 96 
C 2054 96 2451 262 2650 608 
L 2662 608 
L 2662 173 
C 2669 -301 2438 -646 1933 -646 
C 1613 -646 1338 -531 1254 -192 
L 352 -192 
C 397 -947 1158 -1254 1811 -1254 
C 3334 -1254 3526 -333 3526 211 
L 3526 3309 
z
M 1888 781 
C 1331 781 1152 1299 1152 1773 
C 1152 2266 1376 2714 1888 2714 
C 2477 2714 2662 2234 2662 1696 
C 2662 1222 2406 781 1888 781 
z
" transform="scale(0.015625)"/>
      <path id="HelveticaNeue-Bold-65" d="M 3482 1434 
C 3546 2451 3002 3398 1875 3398 
C 870 3398 186 2643 186 1651 
C 186 627 832 -90 1875 -90 
C 2624 -90 3168 243 3424 1024 
L 2624 1024 
C 2566 819 2272 595 1907 595 
C 1402 595 1120 858 1094 1434 
L 3482 1434 
z
M 1094 2010 
C 1107 2266 1274 2714 1850 2714 
C 2291 2714 2490 2470 2573 2010 
L 1094 2010 
z
" transform="scale(0.015625)"/>
      <path id="HelveticaNeue-Bold-73" d="M 186 1075 
C 224 198 973 -90 1741 -90 
C 2496 -90 3251 192 3251 1062 
C 3251 1677 2733 1869 2202 1990 
C 1683 2112 1171 2157 1171 2483 
C 1171 2752 1472 2790 1677 2790 
C 2003 2790 2272 2694 2298 2342 
L 3162 2342 
C 3091 3155 2426 3398 1702 3398 
C 992 3398 262 3181 262 2336 
C 262 1754 787 1568 1312 1453 
C 1965 1312 2342 1216 2342 941 
C 2342 621 2010 518 1747 518 
C 1389 518 1056 678 1050 1075 
L 186 1075 
z
" transform="scale(0.015625)"/>
      <path id="HelveticaNeue-Bold-20" transform="scale(0.015625)"/>
      <path id="HelveticaNeue-Bold-69" d="M 371 0 
L 1280 0 
L 1280 3309 
L 371 3309 
L 371 0 
z
M 1280 4570 
L 371 4570 
L 371 3821 
L 1280 3821 
L 1280 4570 
z
" transform="scale(0.015625)"/>
      <path id="HelveticaNeue-Bold-6e" d="M 346 0 
L 1254 0 
L 1254 1734 
C 1254 2406 1466 2682 1958 2682 
C 2381 2682 2541 2413 2541 1869 
L 2541 0 
L 3450 0 
L 3450 2035 
C 3450 2854 3206 3398 2240 3398 
C 1856 3398 1459 3219 1229 2848 
L 1210 2848 
L 1210 3309 
L 346 3309 
L 346 0 
z
" transform="scale(0.015625)"/>
      <path id="HelveticaNeue-Bold-31" d="M 2509 4480 
L 1786 4480 
C 1690 3795 1107 3578 474 3590 
L 474 2906 
L 1600 2906 
L 1600 0 
L 2509 0 
L 2509 4480 
z
" transform="scale(0.015625)"/>
     </defs>
     <use xlink:href="#HelveticaNeue-Bold-45"/>
     <use xlink:href="#HelveticaNeue-Bold-64" x="64.799988"/>
     <use xlink:href="#HelveticaNeue-Bold-67" x="125.899979"/>
     <use xlink:href="#HelveticaNeue-Bold-65" x="186.999969"/>
     <use xlink:href="#HelveticaNeue-Bold-73" x="244.399963"/>
     <use xlink:href="#HelveticaNeue-Bold-20" x="298.09996"/>
     <use xlink:href="#HelveticaNeue-Bold-69" x="325.899948"/>
     <use xlink:href="#HelveticaNeue-Bold-6e" x="351.699936"/>
     <use xlink:href="#HelveticaNeue-Bold-20" x="410.999924"/>
     <use xlink:href="#HelveticaNeue-Bold-31" x="438.799911"/>
    </g>
   </g>
   <g id="text_10">
    <!-- Edges in 2 -->
    <g transform="translate(65.612204 125.851875) scale(0.06 -0.06)">
     <defs>
      <path id="HelveticaNeue-Bold-32" d="M 1107 2758 
C 1107 3232 1280 3789 1818 3789 
C 2208 3789 2490 3520 2490 3098 
C 2483 2547 1946 2272 1549 2003 
C 774 1478 141 1037 134 0 
L 3424 0 
L 3424 781 
L 1306 781 
C 1632 1242 2157 1498 2598 1811 
C 3040 2125 3398 2496 3398 3168 
C 3398 4045 2682 4570 1862 4570 
C 787 4570 205 3782 237 2758 
L 1107 2758 
z
" transform="scale(0.015625)"/>
     </defs>
     <use xlink:href="#HelveticaNeue-Bold-45"/>
     <use xlink:href="#HelveticaNeue-Bold-64" x="64.799988"/>
     <use xlink:href="#HelveticaNeue-Bold-67" x="125.899979"/>
     <use xlink:href="#HelveticaNeue-Bold-65" x="186.999969"/>
     <use xlink:href="#HelveticaNeue-Bold-73" x="244.399963"/>
     <use xlink:href="#HelveticaNeue-Bold-20" x="298.09996"/>
     <use xlink:href="#HelveticaNeue-Bold-69" x="325.899948"/>
     <use xlink:href="#HelveticaNeue-Bold-6e" x="351.699936"/>
     <use xlink:href="#HelveticaNeue-Bold-20" x="410.999924"/>
     <use xlink:href="#HelveticaNeue-Bold-32" x="438.799911"/>
    </g>
   </g>
   <g id="text_11">
    <!-- Edges in 3 -->
    <g transform="translate(65.612204 145.368125) scale(0.06 -0.06)">
     <defs>
      <path id="HelveticaNeue-Bold-33" d="M 1459 2029 
C 1901 2029 2496 2042 2496 1363 
C 2496 941 2176 659 1766 659 
C 1242 659 998 1056 979 1542 
L 115 1542 
C 96 512 774 -90 1779 -90 
C 2656 -90 3443 442 3443 1382 
C 3443 1882 3142 2291 2650 2400 
L 2650 2413 
C 3066 2528 3277 2906 3277 3328 
C 3277 4128 2490 4570 1773 4570 
C 851 4570 256 3936 224 3021 
L 1088 3021 
C 1082 3482 1325 3821 1779 3821 
C 2112 3821 2413 3603 2413 3226 
C 2413 2714 1850 2637 1459 2669 
L 1459 2029 
z
" transform="scale(0.015625)"/>
     </defs>
     <use xlink:href="#HelveticaNeue-Bold-45"/>
     <use xlink:href="#HelveticaNeue-Bold-64" x="64.799988"/>
     <use xlink:href="#HelveticaNeue-Bold-67" x="125.899979"/>
     <use xlink:href="#HelveticaNeue-Bold-65" x="186.999969"/>
     <use xlink:href="#HelveticaNeue-Bold-73" x="244.399963"/>
     <use xlink:href="#HelveticaNeue-Bold-20" x="298.09996"/>
     <use xlink:href="#HelveticaNeue-Bold-69" x="325.899948"/>
     <use xlink:href="#HelveticaNeue-Bold-6e" x="351.699936"/>
     <use xlink:href="#HelveticaNeue-Bold-20" x="410.999924"/>
     <use xlink:href="#HelveticaNeue-Bold-33" x="438.799911"/>
    </g>
   </g>
   <g id="text_12">
    <!-- Short Edge ( -->
    <g style="fill: #ffffff" transform="translate(135.706849 73.208625) scale(0.06 -0.06)">
     <defs>
      <path id="HelveticaNeue-Bold-53" d="M 154 1517 
C 141 390 1088 -109 2099 -109 
C 3341 -109 4000 518 4000 1357 
C 4000 2394 2976 2605 2643 2688 
C 1498 2982 1280 3027 1280 3379 
C 1280 3763 1651 3898 1971 3898 
C 2451 3898 2842 3757 2874 3206 
L 3846 3206 
C 3846 4262 2970 4678 2016 4678 
C 1190 4678 307 4230 307 3296 
C 307 2438 992 2176 1670 1997 
C 2342 1818 3027 1734 3027 1242 
C 3027 774 2490 672 2138 672 
C 1600 672 1126 909 1126 1517 
L 154 1517 
z
" transform="scale(0.015625)"/>
      <path id="HelveticaNeue-Bold-68" d="M 346 0 
L 1254 0 
L 1254 1734 
C 1254 2406 1466 2682 1958 2682 
C 2381 2682 2541 2413 2541 1869 
L 2541 0 
L 3450 0 
L 3450 2035 
C 3450 2854 3206 3398 2240 3398 
C 1901 3398 1504 3219 1274 2848 
L 1254 2848 
L 1254 4570 
L 346 4570 
L 346 0 
z
" transform="scale(0.015625)"/>
      <path id="HelveticaNeue-Bold-6f" d="M 243 1651 
C 243 602 915 -90 1952 -90 
C 2995 -90 3667 602 3667 1651 
C 3667 2707 2995 3398 1952 3398 
C 915 3398 243 2707 243 1651 
z
M 1152 1651 
C 1152 2182 1338 2714 1952 2714 
C 2573 2714 2758 2182 2758 1651 
C 2758 1126 2573 595 1952 595 
C 1338 595 1152 1126 1152 1651 
z
" transform="scale(0.015625)"/>
      <path id="HelveticaNeue-Bold-72" d="M 346 0 
L 1254 0 
L 1254 1491 
C 1254 2074 1485 2554 2150 2554 
C 2259 2554 2394 2541 2477 2522 
L 2477 3366 
C 2419 3386 2342 3398 2278 3398 
C 1837 3398 1389 3110 1222 2694 
L 1210 2694 
L 1210 3309 
L 346 3309 
L 346 0 
z
" transform="scale(0.015625)"/>
      <path id="HelveticaNeue-Bold-74" d="M 1498 4301 
L 589 4301 
L 589 3309 
L 38 3309 
L 38 2701 
L 589 2701 
L 589 749 
C 589 90 1075 -38 1632 -38 
C 1811 -38 2010 -32 2163 -6 
L 2163 704 
C 2067 685 1978 678 1882 678 
C 1574 678 1498 755 1498 1062 
L 1498 2701 
L 2163 2701 
L 2163 3309 
L 1498 3309 
L 1498 4301 
z
" transform="scale(0.015625)"/>
      <path id="HelveticaNeue-Bold-28" d="M 1178 4678 
C 614 3866 333 2669 333 1715 
C 333 717 653 -294 1178 -1165 
L 1933 -1165 
C 1459 -243 1242 768 1242 1779 
C 1242 2771 1466 3776 1939 4678 
L 1178 4678 
z
" transform="scale(0.015625)"/>
     </defs>
     <use xlink:href="#HelveticaNeue-Bold-53"/>
     <use xlink:href="#HelveticaNeue-Bold-68" x="64.899994"/>
     <use xlink:href="#HelveticaNeue-Bold-6f" x="124.199982"/>
     <use xlink:href="#HelveticaNeue-Bold-72" x="185.299973"/>
     <use xlink:href="#HelveticaNeue-Bold-74" x="224.199966"/>
     <use xlink:href="#HelveticaNeue-Bold-20" x="259.399963"/>
     <use xlink:href="#HelveticaNeue-Bold-45" x="287.199951"/>
     <use xlink:href="#HelveticaNeue-Bold-64" x="351.999939"/>
     <use xlink:href="#HelveticaNeue-Bold-67" x="413.09993"/>
     <use xlink:href="#HelveticaNeue-Bold-65" x="474.199921"/>
     <use xlink:href="#HelveticaNeue-Bold-20" x="531.599915"/>
     <use xlink:href="#HelveticaNeue-Bold-28" x="559.399902"/>
    </g>
   </g>
   <g id="text_13">
    <!-- b -->
    <g style="fill: #ffffff" transform="translate(171.688767 73.133156) scale(0.06 -0.06)">
     <defs>
      <path id="Helvetica-BoldOblique-62" d="M 1341 4594 
L 1341 4594 
L 1797 4594 
L 2253 4594 
L 2253 4594 
L 1919 2988 
L 1919 2988 
Q 2428 3494 3025 3491 
Q 3541 3491 3831 3175 
Q 4122 2859 4122 2300 
Q 4119 2172 4101 2012 
Q 4084 1853 4053 1700 
Q 3894 931 3383 420 
Q 2872 -91 2259 -91 
Q 1644 -91 1391 391 
L 1353 469 
L 1353 469 
L 1256 0 
L 1256 0 
L 391 0 
L 391 0 
L 1341 4594 
z
M 2163 647 
Q 2500 647 2762 925 
Q 3025 1203 3119 1659 
Q 3141 1759 3153 1862 
Q 3166 1966 3166 2053 
Q 3163 2369 3013 2541 
Q 2863 2713 2591 2713 
Q 2263 2713 1995 2434 
Q 1728 2156 1641 1722 
L 1641 1722 
L 1644 1722 
L 1644 1722 
Q 1534 1206 1672 925 
Q 1806 647 2163 647 
z
" transform="scale(0.015625)"/>
     </defs>
     <use xlink:href="#Helvetica-BoldOblique-62"/>
    </g>
   </g>
   <g id="text_14">
    <!-- ,  -->
    <g style="fill: #ffffff" transform="translate(175.894445 73.199719) scale(0.06 -0.06)">
     <defs>
      <path id="HelveticaNeue-Bold-2c" d="M 390 0 
L 851 0 
C 864 -282 666 -557 397 -602 
L 397 -1062 
C 947 -979 1395 -589 1395 0 
L 1395 986 
L 390 986 
L 390 0 
z
" transform="scale(0.015625)"/>
     </defs>
     <use xlink:href="#HelveticaNeue-Bold-2c"/>
     <use xlink:href="#HelveticaNeue-Bold-20" x="27.799988"/>
    </g>
   </g>
   <g id="text_15">
    <!-- d -->
    <g style="fill: #ffffff" transform="translate(180.567422 73.133156) scale(0.06 -0.06)">
     <defs>
      <path id="Helvetica-BoldOblique-64" d="M 1625 -91 
Q 1109 -91 817 239 
Q 525 569 525 1153 
Q 525 1294 545 1470 
Q 566 1647 600 1819 
Q 750 2538 1240 3014 
Q 1731 3491 2325 3491 
Q 2975 3491 3238 3000 
L 3253 2972 
L 3253 2972 
L 3591 4594 
L 3591 4594 
L 4038 4594 
L 4488 4594 
L 4488 4594 
L 3538 0 
L 3538 0 
L 3091 0 
L 2641 0 
L 2641 0 
L 2719 384 
L 2719 384 
Q 2225 -91 1625 -91 
z
M 2478 2716 
Q 2134 2716 1865 2433 
Q 1597 2150 1500 1688 
Q 1478 1584 1467 1484 
Q 1456 1384 1456 1306 
Q 1456 991 1611 819 
Q 1766 647 2047 647 
Q 2394 647 2662 920 
Q 2931 1194 3022 1641 
Q 3128 2156 2987 2436 
Q 2847 2716 2478 2716 
z
" transform="scale(0.015625)"/>
     </defs>
     <use xlink:href="#Helvetica-BoldOblique-64"/>
    </g>
   </g>
   <g id="text_16">
    <!-- ) -->
    <g style="fill: #ffffff" transform="translate(185.240398 73.250344) scale(0.06 -0.06)">
     <defs>
      <path id="HelveticaNeue-Bold-29" d="M 717 -1165 
C 1280 -358 1562 838 1562 1792 
C 1562 2790 1242 3802 717 4678 
L -38 4678 
C 435 3750 653 2739 653 1728 
C 653 736 429 -269 -45 -1165 
L 717 -1165 
z
" transform="scale(0.015625)"/>
     </defs>
     <use xlink:href="#HelveticaNeue-Bold-29"/>
    </g>
   </g>
   <g id="text_17">
    <!-- Long Edge ( -->
    <g style="fill: #ffffff" transform="translate(451.132751 73.208625) scale(0.06 -0.06)">
     <defs>
      <path id="HelveticaNeue-Bold-4c" d="M 442 0 
L 3674 0 
L 3674 845 
L 1446 845 
L 1446 4570 
L 442 4570 
L 442 0 
z
" transform="scale(0.015625)"/>
     </defs>
     <use xlink:href="#HelveticaNeue-Bold-4c"/>
     <use xlink:href="#HelveticaNeue-Bold-6f" x="59.299988"/>
     <use xlink:href="#HelveticaNeue-Bold-6e" x="120.399979"/>
     <use xlink:href="#HelveticaNeue-Bold-67" x="179.699966"/>
     <use xlink:href="#HelveticaNeue-Bold-20" x="240.799957"/>
     <use xlink:href="#HelveticaNeue-Bold-45" x="268.599945"/>
     <use xlink:href="#HelveticaNeue-Bold-64" x="333.399933"/>
     <use xlink:href="#HelveticaNeue-Bold-67" x="394.499924"/>
     <use xlink:href="#HelveticaNeue-Bold-65" x="455.599915"/>
     <use xlink:href="#HelveticaNeue-Bold-20" x="512.999908"/>
     <use xlink:href="#HelveticaNeue-Bold-28" x="540.799896"/>
    </g>
   </g>
   <g id="text_18">
    <!-- a -->
    <g style="fill: #ffffff" transform="translate(485.712776 73.133156) scale(0.06 -0.06)">
     <defs>
      <path id="Helvetica-BoldOblique-61" d="M 1250 -91 
Q 831 -91 592 107 
Q 353 306 353 659 
Q 353 716 361 787 
Q 369 859 384 928 
Q 472 1353 803 1640 
Q 1134 1928 1616 1994 
L 2372 2100 
Q 2478 2116 2572 2153 
Q 2691 2200 2753 2289 
Q 2816 2378 2813 2497 
Q 2809 2622 2728 2688 
Q 2613 2778 2309 2778 
Q 2078 2778 1915 2658 
Q 1753 2538 1663 2300 
L 1663 2300 
L 816 2300 
L 816 2300 
Q 947 2884 1390 3187 
Q 1834 3491 2556 3491 
Q 3216 3491 3509 3234 
Q 3728 3047 3725 2728 
Q 3728 2619 3700 2494 
L 3316 641 
Q 3269 416 3287 295 
Q 3306 175 3397 128 
L 3397 125 
L 3372 3 
L 2888 3 
L 2403 3 
L 2403 3 
Q 2381 203 2409 400 
L 2409 400 
Q 1881 -91 1250 -91 
z
M 2563 1238 
L 2647 1650 
L 2647 1650 
Q 2519 1578 2366 1544 
L 2003 1472 
Q 1647 1400 1492 1290 
Q 1338 1181 1294 972 
Q 1288 941 1294 972 
Q 1288 941 1284 909 
Q 1281 878 1281 850 
Q 1281 706 1373 628 
Q 1466 550 1631 550 
Q 2056 550 2384 888 
Q 2441 944 2491 1044 
Q 2544 1147 2563 1238 
z
" transform="scale(0.015625)"/>
     </defs>
     <use xlink:href="#Helvetica-BoldOblique-61"/>
    </g>
   </g>
   <g id="text_19">
    <!-- ,  -->
    <g style="fill: #ffffff" transform="translate(489.918455 73.199719) scale(0.06 -0.06)">
     <use xlink:href="#HelveticaNeue-Bold-2c"/>
     <use xlink:href="#HelveticaNeue-Bold-20" x="27.799988"/>
    </g>
   </g>
   <g id="text_20">
    <!-- c -->
    <g style="fill: #ffffff" transform="translate(493.656836 73.133156) scale(0.06 -0.06)">
     <defs>
      <path id="Helvetica-BoldOblique-63" d="M 3616 1241 
L 3616 1241 
Q 3400 628 2904 268 
Q 2409 -91 1775 -91 
Q 1163 -91 834 215 
Q 506 522 506 1100 
Q 506 1231 523 1382 
Q 541 1534 572 1688 
Q 747 2534 1276 3012 
Q 1806 3491 2572 3491 
Q 3225 3491 3553 3147 
Q 3825 2866 3822 2397 
L 3809 2188 
L 3809 2188 
L 2903 2188 
L 2903 2188 
Q 2891 2478 2775 2608 
Q 2659 2738 2416 2738 
Q 2066 2738 1836 2464 
Q 1606 2191 1491 1644 
Q 1472 1541 1459 1436 
Q 1447 1331 1447 1244 
Q 1447 959 1572 803 
Q 1697 647 1925 647 
Q 2184 647 2400 811 
Q 2616 975 2709 1241 
L 2709 1241 
L 3616 1241 
z
" transform="scale(0.015625)"/>
     </defs>
     <use xlink:href="#Helvetica-BoldOblique-63"/>
    </g>
   </g>
   <g id="text_21">
    <!-- ) -->
    <g style="fill: #ffffff" transform="translate(497.395217 73.250344) scale(0.06 -0.06)">
     <use xlink:href="#HelveticaNeue-Bold-29"/>
    </g>
   </g>
   <g id="text_22">
    <!-- Occurrence in enumerated conformers -->
    <g transform="translate(42.247322 28.312344) scale(0.06 -0.06)">
     <defs>
      <path id="HelveticaNeue-Bold-4f" d="M 243 2266 
C 243 947 1075 -109 2490 -109 
C 3904 -109 4736 947 4736 2266 
C 4736 3622 3904 4678 2490 4678 
C 1075 4678 243 3622 243 2266 
z
M 1248 2266 
C 1248 3066 1587 3834 2490 3834 
C 3392 3834 3731 3066 3731 2266 
C 3731 1504 3392 736 2490 736 
C 1587 736 1248 1504 1248 2266 
z
" transform="scale(0.015625)"/>
      <path id="HelveticaNeue-Bold-63" d="M 3488 2144 
C 3430 2989 2714 3398 1933 3398 
C 858 3398 243 2637 243 1606 
C 243 614 915 -90 1914 -90 
C 2784 -90 3392 390 3507 1267 
L 2630 1267 
C 2573 864 2330 595 1907 595 
C 1338 595 1152 1165 1152 1638 
C 1152 2125 1344 2714 1926 2714 
C 2304 2714 2541 2515 2598 2144 
L 3488 2144 
z
" transform="scale(0.015625)"/>
      <path id="HelveticaNeue-Bold-75" d="M 3450 3309 
L 2541 3309 
L 2541 1574 
C 2541 902 2330 627 1837 627 
C 1414 627 1254 896 1254 1440 
L 1254 3309 
L 346 3309 
L 346 1274 
C 346 454 589 -90 1555 -90 
C 1939 -90 2336 90 2566 461 
L 2586 461 
L 2586 0 
L 3450 0 
L 3450 3309 
z
" transform="scale(0.015625)"/>
      <path id="HelveticaNeue-Bold-6d" d="M 371 0 
L 1280 0 
L 1280 1920 
C 1280 2566 1715 2682 1894 2682 
C 2470 2682 2445 2240 2445 1856 
L 2445 0 
L 3354 0 
L 3354 1843 
C 3354 2259 3450 2682 3962 2682 
C 4480 2682 4518 2317 4518 1875 
L 4518 0 
L 5427 0 
L 5427 2214 
C 5427 3072 4922 3398 4218 3398 
C 3757 3398 3411 3136 3219 2848 
C 3040 3245 2669 3398 2253 3398 
C 1824 3398 1478 3200 1242 2861 
L 1229 2861 
L 1229 3309 
L 371 3309 
L 371 0 
z
" transform="scale(0.015625)"/>
      <path id="HelveticaNeue-Bold-61" d="M 2406 1280 
C 2406 1082 2381 518 1670 518 
C 1376 518 1114 602 1114 941 
C 1114 1274 1370 1370 1651 1427 
C 1933 1478 2253 1485 2406 1619 
L 2406 1280 
z
M 1216 2291 
C 1248 2650 1472 2790 1818 2790 
C 2138 2790 2406 2733 2406 2342 
C 2406 1971 1888 1990 1331 1907 
C 768 1830 205 1651 205 902 
C 205 224 704 -90 1331 -90 
C 1734 -90 2157 19 2445 320 
C 2451 211 2477 102 2509 0 
L 3430 0 
C 3347 134 3315 435 3315 736 
L 3315 2458 
C 3315 3251 2522 3398 1862 3398 
C 1120 3398 358 3142 307 2291 
L 1216 2291 
z
" transform="scale(0.015625)"/>
      <path id="HelveticaNeue-Bold-66" d="M 544 0 
L 1453 0 
L 1453 2701 
L 2080 2701 
L 2080 3309 
L 1453 3309 
L 1453 3507 
C 1453 3782 1555 3885 1798 3885 
C 1914 3885 2022 3878 2131 3866 
L 2131 4544 
C 1978 4550 1811 4570 1651 4570 
C 909 4570 544 4147 544 3565 
L 544 3309 
L 0 3309 
L 0 2701 
L 544 2701 
L 544 0 
z
" transform="scale(0.015625)"/>
     </defs>
     <use xlink:href="#HelveticaNeue-Bold-4f"/>
     <use xlink:href="#HelveticaNeue-Bold-63" x="77.799988"/>
     <use xlink:href="#HelveticaNeue-Bold-63" x="135.199982"/>
     <use xlink:href="#HelveticaNeue-Bold-75" x="192.599976"/>
     <use xlink:href="#HelveticaNeue-Bold-72" x="251.899963"/>
     <use xlink:href="#HelveticaNeue-Bold-72" x="290.799957"/>
     <use xlink:href="#HelveticaNeue-Bold-65" x="329.699951"/>
     <use xlink:href="#HelveticaNeue-Bold-6e" x="387.099945"/>
     <use xlink:href="#HelveticaNeue-Bold-63" x="446.399933"/>
     <use xlink:href="#HelveticaNeue-Bold-65" x="503.799927"/>
     <use xlink:href="#HelveticaNeue-Bold-20" x="561.199921"/>
     <use xlink:href="#HelveticaNeue-Bold-69" x="588.999908"/>
     <use xlink:href="#HelveticaNeue-Bold-6e" x="614.799896"/>
     <use xlink:href="#HelveticaNeue-Bold-20" x="674.099884"/>
     <use xlink:href="#HelveticaNeue-Bold-65" x="701.899872"/>
     <use xlink:href="#HelveticaNeue-Bold-6e" x="759.299866"/>
     <use xlink:href="#HelveticaNeue-Bold-75" x="818.599854"/>
     <use xlink:href="#HelveticaNeue-Bold-6d" x="877.899841"/>
     <use xlink:href="#HelveticaNeue-Bold-65" x="968.499832"/>
     <use xlink:href="#HelveticaNeue-Bold-72" x="1025.899826"/>
     <use xlink:href="#HelveticaNeue-Bold-61" x="1064.79982"/>
     <use xlink:href="#HelveticaNeue-Bold-74" x="1122.199814"/>
     <use xlink:href="#HelveticaNeue-Bold-65" x="1157.399811"/>
     <use xlink:href="#HelveticaNeue-Bold-64" x="1214.799805"/>
     <use xlink:href="#HelveticaNeue-Bold-20" x="1275.899796"/>
     <use xlink:href="#HelveticaNeue-Bold-63" x="1303.699783"/>
     <use xlink:href="#HelveticaNeue-Bold-6f" x="1361.099777"/>
     <use xlink:href="#HelveticaNeue-Bold-6e" x="1422.199768"/>
     <use xlink:href="#HelveticaNeue-Bold-66" x="1481.499756"/>
     <use xlink:href="#HelveticaNeue-Bold-6f" x="1514.799744"/>
     <use xlink:href="#HelveticaNeue-Bold-72" x="1575.899734"/>
     <use xlink:href="#HelveticaNeue-Bold-6d" x="1614.799728"/>
     <use xlink:href="#HelveticaNeue-Bold-65" x="1705.399719"/>
     <use xlink:href="#HelveticaNeue-Bold-72" x="1762.799713"/>
     <use xlink:href="#HelveticaNeue-Bold-73" x="1801.699707"/>
    </g>
   </g>
  </g>
 </g>
 <defs>
  <clipPath id="p805b6ea7f2">
   <rect x="7.2" y="7.2" width="572.4396" height="156.13"/>
  </clipPath>
 </defs>
</svg>
