<?xml version="1.0" encoding="utf-8" standalone="no"?>
<!DOCTYPE svg PUBLIC "-//W3C//DTD SVG 1.1//EN"
  "http://www.w3.org/Graphics/SVG/1.1/DTD/svg11.dtd">
<svg xmlns:xlink="http://www.w3.org/1999/xlink" width="494.81669pt" height="291.370655pt" viewBox="0 0 494.81669 291.370655" xmlns="http://www.w3.org/2000/svg" version="1.1">
 <metadata>
  <rdf:RDF xmlns:dc="http://purl.org/dc/elements/1.1/" xmlns:cc="http://creativecommons.org/ns#" xmlns:rdf="http://www.w3.org/1999/02/22-rdf-syntax-ns#">
   <cc:Work>
    <dc:type rdf:resource="http://purl.org/dc/dcmitype/StillImage"/>
    <dc:date>2025-11-24T18:54:29.416552</dc:date>
    <dc:format>image/svg+xml</dc:format>
    <dc:creator>
     <cc:Agent>
      <dc:title>Matplotlib v3.9.2, https://matplotlib.org/</dc:title>
     </cc:Agent>
    </dc:creator>
   </cc:Work>
  </rdf:RDF>
 </metadata>
 <defs>
  <style type="text/css">*{stroke-linejoin: round; stroke-linecap: butt}</style>
 </defs>
 <g id="figure_1">
  <g id="patch_1">
   <path d="M 0 291.370655 
L 494.81669 291.370655 
L 494.81669 0 
L 0 0 
L 0 291.370655 
z
" style="fill: none"/>
  </g>
  <g id="axes_1">
   <g id="patch_2">
    <path d="M 31.35125 262.19628 
L 487.61669 262.19628 
L 487.61669 7.2 
L 31.35125 7.2 
L 31.35125 262.19628 
z
" style="fill: none"/>
   </g>
   <g id="PolyCollection_1">
    <defs>
     <path id="me644e4aaa1" d="M 83.565476 -40.765115 
L 79.549134 -40.765115 
L 77.86093 -43.106679 
L 76.527645 -45.448242 
L 75.843307 -47.789806 
L 75.531433 -50.13137 
L 75.312931 -52.472933 
L 75.102932 -54.814497 
L 74.892568 -57.15606 
L 74.670976 -59.497624 
L 74.432278 -61.839188 
L 74.176495 -64.180751 
L 73.896739 -66.522315 
L 73.588283 -68.863879 
L 73.254333 -71.205442 
L 72.901491 -73.547006 
L 72.521578 -75.88857 
L 72.096194 -78.230133 
L 71.609143 -80.571697 
L 71.040649 -82.91326 
L 70.357454 -85.254824 
L 69.490835 -87.596388 
L 68.347355 -89.937951 
L 67.030604 -92.279515 
L 65.991633 -94.621079 
L 65.373747 -96.962642 
L 64.824143 -99.304206 
L 64.391676 -101.64577 
L 64.303965 -103.987333 
L 64.50557 -106.328897 
L 64.949851 -108.67046 
L 65.391754 -111.012024 
L 65.763981 -113.353588 
L 66.463733 -115.695151 
L 67.498696 -118.036715 
L 68.454461 -120.378279 
L 69.17419 -122.719842 
L 69.737892 -125.061406 
L 70.211521 -127.40297 
L 70.611381 -129.744533 
L 70.944765 -132.086097 
L 71.238583 -134.42766 
L 71.512248 -136.769224 
L 71.760556 -139.110788 
L 71.989577 -141.452351 
L 72.259654 -143.793915 
L 72.805841 -146.135479 
L 73.967677 -148.477042 
L 75.524053 -150.818606 
L 76.678455 -153.16017 
L 77.164993 -155.501733 
L 77.321017 -157.843297 
L 77.402396 -160.18486 
L 77.483273 -162.526424 
L 77.659127 -164.867988 
L 78.201109 -167.209551 
L 79.312796 -169.551115 
L 80.557558 -171.892679 
L 81.291907 -174.234242 
L 81.518032 -176.575806 
L 81.554187 -178.91737 
L 81.557175 -181.258933 
L 81.557298 -183.600497 
L 81.557127 -185.94206 
L 81.553127 -188.283624 
L 81.505899 -190.625188 
L 81.217349 -192.966751 
L 80.299596 -195.308315 
L 78.764958 -197.649879 
L 77.366231 -199.991442 
L 76.467648 -202.333006 
L 75.44263 -204.67457 
L 73.710657 -207.016133 
L 71.755356 -209.357697 
L 70.381831 -211.69926 
L 69.566305 -214.040824 
L 68.900767 -216.382388 
L 68.18915 -218.723951 
L 67.395339 -221.065515 
L 66.487827 -223.407079 
L 65.401932 -225.748642 
L 64.044677 -228.090206 
L 62.2434 -230.43177 
L 59.702619 -232.773333 
L 56.366534 -235.114897 
L 53.27638 -237.45646 
L 52.287416 -239.798024 
L 53.770928 -242.139588 
L 55.844567 -244.481151 
L 56.892331 -246.822715 
L 57.193803 -249.164279 
L 58.033655 -251.505842 
L 59.768061 -253.847406 
L 61.56731 -256.18897 
L 62.917795 -258.530533 
L 63.922788 -260.872097 
L 64.846345 -263.21366 
L 66.197156 -265.555224 
L 68.73203 -267.896788 
L 72.584738 -270.238351 
L 76.742066 -272.579915 
L 86.372544 -272.579915 
L 86.372544 -272.579915 
L 90.529872 -270.238351 
L 94.38258 -267.896788 
L 96.917454 -265.555224 
L 98.268265 -263.21366 
L 99.191823 -260.872097 
L 100.196815 -258.530533 
L 101.5473 -256.18897 
L 103.346549 -253.847406 
L 105.080955 -251.505842 
L 105.920807 -249.164279 
L 106.222279 -246.822715 
L 107.270043 -244.481151 
L 109.343683 -242.139588 
L 110.827194 -239.798024 
L 109.83823 -237.45646 
L 106.748076 -235.114897 
L 103.411992 -232.773333 
L 100.87121 -230.43177 
L 99.069933 -228.090206 
L 97.712678 -225.748642 
L 96.626783 -223.407079 
L 95.719271 -221.065515 
L 94.92546 -218.723951 
L 94.213843 -216.382388 
L 93.548306 -214.040824 
L 92.732779 -211.69926 
L 91.359254 -209.357697 
L 89.403953 -207.016133 
L 87.67198 -204.67457 
L 86.646962 -202.333006 
L 85.74838 -199.991442 
L 84.349652 -197.649879 
L 82.815014 -195.308315 
L 81.897261 -192.966751 
L 81.608711 -190.625188 
L 81.561483 -188.283624 
L 81.557483 -185.94206 
L 81.557312 -183.600497 
L 81.557435 -181.258933 
L 81.560423 -178.91737 
L 81.596578 -176.575806 
L 81.822703 -174.234242 
L 82.557052 -171.892679 
L 83.801815 -169.551115 
L 84.913502 -167.209551 
L 85.455483 -164.867988 
L 85.631337 -162.526424 
L 85.712214 -160.18486 
L 85.793593 -157.843297 
L 85.949617 -155.501733 
L 86.436155 -153.16017 
L 87.590558 -150.818606 
L 89.146933 -148.477042 
L 90.308769 -146.135479 
L 90.854956 -143.793915 
L 91.125033 -141.452351 
L 91.354054 -139.110788 
L 91.602362 -136.769224 
L 91.876027 -134.42766 
L 92.169845 -132.086097 
L 92.503229 -129.744533 
L 92.903089 -127.40297 
L 93.376718 -125.061406 
L 93.94042 -122.719842 
L 94.660149 -120.378279 
L 95.615914 -118.036715 
L 96.650877 -115.695151 
L 97.350629 -113.353588 
L 97.722856 -111.012024 
L 98.164759 -108.67046 
L 98.60904 -106.328897 
L 98.810645 -103.987333 
L 98.722934 -101.64577 
L 98.290468 -99.304206 
L 97.740863 -96.962642 
L 97.122977 -94.621079 
L 96.084007 -92.279515 
L 94.767256 -89.937951 
L 93.623775 -87.596388 
L 92.757156 -85.254824 
L 92.073961 -82.91326 
L 91.505467 -80.571697 
L 91.018416 -78.230133 
L 90.593032 -75.88857 
L 90.213119 -73.547006 
L 89.860277 -71.205442 
L 89.526327 -68.863879 
L 89.217871 -66.522315 
L 88.938115 -64.180751 
L 88.682332 -61.839188 
L 88.443634 -59.497624 
L 88.222043 -57.15606 
L 88.011678 -54.814497 
L 87.801679 -52.472933 
L 87.583177 -50.13137 
L 87.271303 -47.789806 
L 86.586965 -45.448242 
L 85.25368 -43.106679 
L 83.565476 -40.765115 
z
" style="stroke: #808080; stroke-opacity: 0.5"/>
    </defs>
    <g clip-path="url(#p867477dc2e)">
     <use xlink:href="#me644e4aaa1" x="0" y="291.370655" style="fill: #808080; fill-opacity: 0.5; stroke: #808080; stroke-opacity: 0.5"/>
    </g>
   </g>
   <g id="PolyCollection_2">
    <defs>
     <path id="mb89c13de4b" d="M 200.645034 -40.765115 
L 196.628691 -40.765115 
L 194.940487 -43.106679 
L 193.607203 -45.448242 
L 192.922865 -47.789806 
L 192.61099 -50.13137 
L 192.392489 -52.472933 
L 192.18249 -54.814497 
L 191.972125 -57.15606 
L 191.750534 -59.497624 
L 191.511836 -61.839188 
L 191.256053 -64.180751 
L 190.976297 -66.522315 
L 190.66784 -68.863879 
L 190.333891 -71.205442 
L 189.981049 -73.547006 
L 189.601136 -75.88857 
L 189.175752 -78.230133 
L 188.688701 -80.571697 
L 188.120207 -82.91326 
L 187.437012 -85.254824 
L 186.570393 -87.596388 
L 185.426912 -89.937951 
L 184.110161 -92.279515 
L 183.07119 -94.621079 
L 182.453305 -96.962642 
L 181.9037 -99.304206 
L 181.471234 -101.64577 
L 181.383523 -103.987333 
L 181.585128 -106.328897 
L 182.029408 -108.67046 
L 182.471312 -111.012024 
L 182.843538 -113.353588 
L 183.543291 -115.695151 
L 184.578253 -118.036715 
L 185.534019 -120.378279 
L 186.253748 -122.719842 
L 186.81745 -125.061406 
L 187.291079 -127.40297 
L 187.690939 -129.744533 
L 188.024322 -132.086097 
L 188.318141 -134.42766 
L 188.591805 -136.769224 
L 188.840114 -139.110788 
L 189.069134 -141.452351 
L 189.339211 -143.793915 
L 189.885399 -146.135479 
L 191.047235 -148.477042 
L 192.60361 -150.818606 
L 193.758013 -153.16017 
L 194.244551 -155.501733 
L 194.400575 -157.843297 
L 194.481953 -160.18486 
L 194.562831 -162.526424 
L 194.738685 -164.867988 
L 195.280666 -167.209551 
L 196.392353 -169.551115 
L 197.637116 -171.892679 
L 198.371465 -174.234242 
L 198.59759 -176.575806 
L 198.633745 -178.91737 
L 198.636733 -181.258933 
L 198.636856 -183.600497 
L 198.636684 -185.94206 
L 198.632684 -188.283624 
L 198.585457 -190.625188 
L 198.296907 -192.966751 
L 197.379154 -195.308315 
L 195.844516 -197.649879 
L 194.445788 -199.991442 
L 193.547205 -202.333006 
L 192.522188 -204.67457 
L 190.790214 -207.016133 
L 188.834914 -209.357697 
L 187.461389 -211.69926 
L 186.645862 -214.040824 
L 185.980325 -216.382388 
L 185.268708 -218.723951 
L 184.474896 -221.065515 
L 183.567385 -223.407079 
L 182.481489 -225.748642 
L 181.124235 -228.090206 
L 179.322958 -230.43177 
L 176.782176 -232.773333 
L 173.446092 -235.114897 
L 170.355938 -237.45646 
L 169.366973 -239.798024 
L 170.850485 -242.139588 
L 172.924124 -244.481151 
L 173.971889 -246.822715 
L 174.273361 -249.164279 
L 175.113212 -251.505842 
L 176.847618 -253.847406 
L 178.646868 -256.18897 
L 179.997352 -258.530533 
L 181.002345 -260.872097 
L 181.925903 -263.21366 
L 183.276713 -265.555224 
L 185.811588 -267.896788 
L 189.664295 -270.238351 
L 193.821623 -272.579915 
L 203.452102 -272.579915 
L 203.452102 -272.579915 
L 207.60943 -270.238351 
L 211.462138 -267.896788 
L 213.997012 -265.555224 
L 215.347823 -263.21366 
L 216.27138 -260.872097 
L 217.276373 -258.530533 
L 218.626857 -256.18897 
L 220.426107 -253.847406 
L 222.160513 -251.505842 
L 223.000365 -249.164279 
L 223.301836 -246.822715 
L 224.349601 -244.481151 
L 226.42324 -242.139588 
L 227.906752 -239.798024 
L 226.917788 -237.45646 
L 223.827634 -235.114897 
L 220.491549 -232.773333 
L 217.950767 -230.43177 
L 216.149491 -228.090206 
L 214.792236 -225.748642 
L 213.706341 -223.407079 
L 212.798829 -221.065515 
L 212.005018 -218.723951 
L 211.293401 -216.382388 
L 210.627863 -214.040824 
L 209.812337 -211.69926 
L 208.438812 -209.357697 
L 206.483511 -207.016133 
L 204.751538 -204.67457 
L 203.72652 -202.333006 
L 202.827937 -199.991442 
L 201.42921 -197.649879 
L 199.894572 -195.308315 
L 198.976818 -192.966751 
L 198.688269 -190.625188 
L 198.641041 -188.283624 
L 198.637041 -185.94206 
L 198.636869 -183.600497 
L 198.636993 -181.258933 
L 198.63998 -178.91737 
L 198.676136 -176.575806 
L 198.90226 -174.234242 
L 199.63661 -171.892679 
L 200.881372 -169.551115 
L 201.993059 -167.209551 
L 202.535041 -164.867988 
L 202.710894 -162.526424 
L 202.791772 -160.18486 
L 202.873151 -157.843297 
L 203.029174 -155.501733 
L 203.515713 -153.16017 
L 204.670115 -150.818606 
L 206.226491 -148.477042 
L 207.388327 -146.135479 
L 207.934514 -143.793915 
L 208.204591 -141.452351 
L 208.433612 -139.110788 
L 208.68192 -136.769224 
L 208.955584 -134.42766 
L 209.249403 -132.086097 
L 209.582787 -129.744533 
L 209.982647 -127.40297 
L 210.456275 -125.061406 
L 211.019977 -122.719842 
L 211.739707 -120.378279 
L 212.695472 -118.036715 
L 213.730434 -115.695151 
L 214.430187 -113.353588 
L 214.802414 -111.012024 
L 215.244317 -108.67046 
L 215.688598 -106.328897 
L 215.890203 -103.987333 
L 215.802491 -101.64577 
L 215.370025 -99.304206 
L 214.82042 -96.962642 
L 214.202535 -94.621079 
L 213.163564 -92.279515 
L 211.846813 -89.937951 
L 210.703333 -87.596388 
L 209.836714 -85.254824 
L 209.153518 -82.91326 
L 208.585025 -80.571697 
L 208.097973 -78.230133 
L 207.67259 -75.88857 
L 207.292677 -73.547006 
L 206.939835 -71.205442 
L 206.605885 -68.863879 
L 206.297428 -66.522315 
L 206.017672 -64.180751 
L 205.761889 -61.839188 
L 205.523192 -59.497624 
L 205.3016 -57.15606 
L 205.091236 -54.814497 
L 204.881237 -52.472933 
L 204.662735 -50.13137 
L 204.35086 -47.789806 
L 203.666523 -45.448242 
L 202.333238 -43.106679 
L 200.645034 -40.765115 
z
" style="stroke: #b9153a; stroke-opacity: 0.5"/>
    </defs>
    <g clip-path="url(#p867477dc2e)">
     <use xlink:href="#mb89c13de4b" x="0" y="291.370655" style="fill: #b9153a; fill-opacity: 0.5; stroke: #b9153a; stroke-opacity: 0.5"/>
    </g>
   </g>
   <g id="PolyCollection_3">
    <defs>
     <path id="m900a12d33a" d="M 317.724592 -40.765115 
L 313.708249 -40.765115 
L 312.020045 -43.106679 
L 310.686761 -45.448242 
L 310.002423 -47.789806 
L 309.690548 -50.13137 
L 309.472046 -52.472933 
L 309.262047 -54.814497 
L 309.051683 -57.15606 
L 308.830091 -59.497624 
L 308.591394 -61.839188 
L 308.335611 -64.180751 
L 308.055855 -66.522315 
L 307.747398 -68.863879 
L 307.413448 -71.205442 
L 307.060606 -73.547006 
L 306.680693 -75.88857 
L 306.25531 -78.230133 
L 305.768258 -80.571697 
L 305.199765 -82.91326 
L 304.51657 -85.254824 
L 303.64995 -87.596388 
L 302.50647 -89.937951 
L 301.189719 -92.279515 
L 300.150748 -94.621079 
L 299.532863 -96.962642 
L 298.983258 -99.304206 
L 298.550792 -101.64577 
L 298.463081 -103.987333 
L 298.664686 -106.328897 
L 299.108966 -108.67046 
L 299.55087 -111.012024 
L 299.923096 -113.353588 
L 300.622849 -115.695151 
L 301.657811 -118.036715 
L 302.613576 -120.378279 
L 303.333306 -122.719842 
L 303.897008 -125.061406 
L 304.370636 -127.40297 
L 304.770497 -129.744533 
L 305.10388 -132.086097 
L 305.397699 -134.42766 
L 305.671363 -136.769224 
L 305.919671 -139.110788 
L 306.148692 -141.452351 
L 306.418769 -143.793915 
L 306.964957 -146.135479 
L 308.126793 -148.477042 
L 309.683168 -150.818606 
L 310.837571 -153.16017 
L 311.324109 -155.501733 
L 311.480133 -157.843297 
L 311.561511 -160.18486 
L 311.642389 -162.526424 
L 311.818242 -164.867988 
L 312.360224 -167.209551 
L 313.471911 -169.551115 
L 314.716673 -171.892679 
L 315.451023 -174.234242 
L 315.677148 -176.575806 
L 315.713303 -178.91737 
L 315.716291 -181.258933 
L 315.716414 -183.600497 
L 315.716242 -185.94206 
L 315.712242 -188.283624 
L 315.665015 -190.625188 
L 315.376465 -192.966751 
L 314.458711 -195.308315 
L 312.924073 -197.649879 
L 311.525346 -199.991442 
L 310.626763 -202.333006 
L 309.601745 -204.67457 
L 307.869772 -207.016133 
L 305.914471 -209.357697 
L 304.540946 -211.69926 
L 303.72542 -214.040824 
L 303.059882 -216.382388 
L 302.348266 -218.723951 
L 301.554454 -221.065515 
L 300.646943 -223.407079 
L 299.561047 -225.748642 
L 298.203792 -228.090206 
L 296.402516 -230.43177 
L 293.861734 -232.773333 
L 290.525649 -235.114897 
L 287.435495 -237.45646 
L 286.446531 -239.798024 
L 287.930043 -242.139588 
L 290.003682 -244.481151 
L 291.051447 -246.822715 
L 291.352919 -249.164279 
L 292.19277 -251.505842 
L 293.927176 -253.847406 
L 295.726426 -256.18897 
L 297.07691 -258.530533 
L 298.081903 -260.872097 
L 299.005461 -263.21366 
L 300.356271 -265.555224 
L 302.891145 -267.896788 
L 306.743853 -270.238351 
L 310.901181 -272.579915 
L 320.53166 -272.579915 
L 320.53166 -272.579915 
L 324.688988 -270.238351 
L 328.541695 -267.896788 
L 331.07657 -265.555224 
L 332.42738 -263.21366 
L 333.350938 -260.872097 
L 334.355931 -258.530533 
L 335.706415 -256.18897 
L 337.505665 -253.847406 
L 339.240071 -251.505842 
L 340.079922 -249.164279 
L 340.381394 -246.822715 
L 341.429159 -244.481151 
L 343.502798 -242.139588 
L 344.98631 -239.798024 
L 343.997346 -237.45646 
L 340.907191 -235.114897 
L 337.571107 -232.773333 
L 335.030325 -230.43177 
L 333.229049 -228.090206 
L 331.871794 -225.748642 
L 330.785898 -223.407079 
L 329.878387 -221.065515 
L 329.084575 -218.723951 
L 328.372959 -216.382388 
L 327.707421 -214.040824 
L 326.891895 -211.69926 
L 325.518369 -209.357697 
L 323.563069 -207.016133 
L 321.831096 -204.67457 
L 320.806078 -202.333006 
L 319.907495 -199.991442 
L 318.508768 -197.649879 
L 316.97413 -195.308315 
L 316.056376 -192.966751 
L 315.767826 -190.625188 
L 315.720599 -188.283624 
L 315.716599 -185.94206 
L 315.716427 -183.600497 
L 315.71655 -181.258933 
L 315.719538 -178.91737 
L 315.755693 -176.575806 
L 315.981818 -174.234242 
L 316.716167 -171.892679 
L 317.96093 -169.551115 
L 319.072617 -167.209551 
L 319.614599 -164.867988 
L 319.790452 -162.526424 
L 319.87133 -160.18486 
L 319.952708 -157.843297 
L 320.108732 -155.501733 
L 320.59527 -153.16017 
L 321.749673 -150.818606 
L 323.306048 -148.477042 
L 324.467884 -146.135479 
L 325.014072 -143.793915 
L 325.284149 -141.452351 
L 325.513169 -139.110788 
L 325.761478 -136.769224 
L 326.035142 -134.42766 
L 326.328961 -132.086097 
L 326.662344 -129.744533 
L 327.062205 -127.40297 
L 327.535833 -125.061406 
L 328.099535 -122.719842 
L 328.819265 -120.378279 
L 329.77503 -118.036715 
L 330.809992 -115.695151 
L 331.509745 -113.353588 
L 331.881971 -111.012024 
L 332.323875 -108.67046 
L 332.768155 -106.328897 
L 332.96976 -103.987333 
L 332.882049 -101.64577 
L 332.449583 -99.304206 
L 331.899978 -96.962642 
L 331.282093 -94.621079 
L 330.243122 -92.279515 
L 328.926371 -89.937951 
L 327.78289 -87.596388 
L 326.916271 -85.254824 
L 326.233076 -82.91326 
L 325.664582 -80.571697 
L 325.177531 -78.230133 
L 324.752148 -75.88857 
L 324.372234 -73.547006 
L 324.019393 -71.205442 
L 323.685443 -68.863879 
L 323.376986 -66.522315 
L 323.09723 -64.180751 
L 322.841447 -61.839188 
L 322.60275 -59.497624 
L 322.381158 -57.15606 
L 322.170794 -54.814497 
L 321.960795 -52.472933 
L 321.742293 -50.13137 
L 321.430418 -47.789806 
L 320.74608 -45.448242 
L 319.412796 -43.106679 
L 317.724592 -40.765115 
z
" style="stroke: #1177b0; stroke-opacity: 0.5"/>
    </defs>
    <g clip-path="url(#p867477dc2e)">
     <use xlink:href="#m900a12d33a" x="0" y="291.370655" style="fill: #1177b0; fill-opacity: 0.5; stroke: #1177b0; stroke-opacity: 0.5"/>
    </g>
   </g>
   <g id="PolyCollection_4">
    <defs>
     <path id="m360c8d5425" d="M 434.80415 -40.765115 
L 430.787807 -40.765115 
L 429.099603 -43.106679 
L 427.766318 -45.448242 
L 427.081981 -47.789806 
L 426.770106 -50.13137 
L 426.551604 -52.472933 
L 426.341605 -54.814497 
L 426.131241 -57.15606 
L 425.909649 -59.497624 
L 425.670951 -61.839188 
L 425.415169 -64.180751 
L 425.135413 -66.522315 
L 424.826956 -68.863879 
L 424.493006 -71.205442 
L 424.140164 -73.547006 
L 423.760251 -75.88857 
L 423.334867 -78.230133 
L 422.847816 -80.571697 
L 422.279322 -82.91326 
L 421.596127 -85.254824 
L 420.729508 -87.596388 
L 419.586028 -89.937951 
L 418.269277 -92.279515 
L 417.230306 -94.621079 
L 416.612421 -96.962642 
L 416.062816 -99.304206 
L 415.630349 -101.64577 
L 415.542638 -103.987333 
L 415.744243 -106.328897 
L 416.188524 -108.67046 
L 416.630427 -111.012024 
L 417.002654 -113.353588 
L 417.702406 -115.695151 
L 418.737369 -118.036715 
L 419.693134 -120.378279 
L 420.412864 -122.719842 
L 420.976566 -125.061406 
L 421.450194 -127.40297 
L 421.850054 -129.744533 
L 422.183438 -132.086097 
L 422.477257 -134.42766 
L 422.750921 -136.769224 
L 422.999229 -139.110788 
L 423.22825 -141.452351 
L 423.498327 -143.793915 
L 424.044514 -146.135479 
L 425.20635 -148.477042 
L 426.762726 -150.818606 
L 427.917128 -153.16017 
L 428.403666 -155.501733 
L 428.55969 -157.843297 
L 428.641069 -160.18486 
L 428.721946 -162.526424 
L 428.8978 -164.867988 
L 429.439782 -167.209551 
L 430.551469 -169.551115 
L 431.796231 -171.892679 
L 432.530581 -174.234242 
L 432.756705 -176.575806 
L 432.79286 -178.91737 
L 432.795848 -181.258933 
L 432.795971 -183.600497 
L 432.7958 -185.94206 
L 432.7918 -188.283624 
L 432.744572 -190.625188 
L 432.456022 -192.966751 
L 431.538269 -195.308315 
L 430.003631 -197.649879 
L 428.604904 -199.991442 
L 427.706321 -202.333006 
L 426.681303 -204.67457 
L 424.94933 -207.016133 
L 422.994029 -209.357697 
L 421.620504 -211.69926 
L 420.804978 -214.040824 
L 420.13944 -216.382388 
L 419.427823 -218.723951 
L 418.634012 -221.065515 
L 417.7265 -223.407079 
L 416.640605 -225.748642 
L 415.28335 -228.090206 
L 413.482074 -230.43177 
L 410.941292 -232.773333 
L 407.605207 -235.114897 
L 404.515053 -237.45646 
L 403.526089 -239.798024 
L 405.009601 -242.139588 
L 407.08324 -244.481151 
L 408.131004 -246.822715 
L 408.432476 -249.164279 
L 409.272328 -251.505842 
L 411.006734 -253.847406 
L 412.805983 -256.18897 
L 414.156468 -258.530533 
L 415.161461 -260.872097 
L 416.085018 -263.21366 
L 417.435829 -265.555224 
L 419.970703 -267.896788 
L 423.823411 -270.238351 
L 427.980739 -272.579915 
L 437.611217 -272.579915 
L 437.611217 -272.579915 
L 441.768545 -270.238351 
L 445.621253 -267.896788 
L 448.156127 -265.555224 
L 449.506938 -263.21366 
L 450.430496 -260.872097 
L 451.435489 -258.530533 
L 452.785973 -256.18897 
L 454.585223 -253.847406 
L 456.319629 -251.505842 
L 457.15948 -249.164279 
L 457.460952 -246.822715 
L 458.508716 -244.481151 
L 460.582356 -242.139588 
L 462.065868 -239.798024 
L 461.076903 -237.45646 
L 457.986749 -235.114897 
L 454.650665 -232.773333 
L 452.109883 -230.43177 
L 450.308606 -228.090206 
L 448.951351 -225.748642 
L 447.865456 -223.407079 
L 446.957944 -221.065515 
L 446.164133 -218.723951 
L 445.452516 -216.382388 
L 444.786979 -214.040824 
L 443.971452 -211.69926 
L 442.597927 -209.357697 
L 440.642627 -207.016133 
L 438.910653 -204.67457 
L 437.885635 -202.333006 
L 436.987053 -199.991442 
L 435.588325 -197.649879 
L 434.053687 -195.308315 
L 433.135934 -192.966751 
L 432.847384 -190.625188 
L 432.800156 -188.283624 
L 432.796157 -185.94206 
L 432.795985 -183.600497 
L 432.796108 -181.258933 
L 432.799096 -178.91737 
L 432.835251 -176.575806 
L 433.061376 -174.234242 
L 433.795725 -171.892679 
L 435.040488 -169.551115 
L 436.152175 -167.209551 
L 436.694156 -164.867988 
L 436.87001 -162.526424 
L 436.950887 -160.18486 
L 437.032266 -157.843297 
L 437.18829 -155.501733 
L 437.674828 -153.16017 
L 438.829231 -150.818606 
L 440.385606 -148.477042 
L 441.547442 -146.135479 
L 442.093629 -143.793915 
L 442.363706 -141.452351 
L 442.592727 -139.110788 
L 442.841035 -136.769224 
L 443.1147 -134.42766 
L 443.408519 -132.086097 
L 443.741902 -129.744533 
L 444.141762 -127.40297 
L 444.615391 -125.061406 
L 445.179093 -122.719842 
L 445.898822 -120.378279 
L 446.854587 -118.036715 
L 447.88955 -115.695151 
L 448.589302 -113.353588 
L 448.961529 -111.012024 
L 449.403432 -108.67046 
L 449.847713 -106.328897 
L 450.049318 -103.987333 
L 449.961607 -101.64577 
L 449.529141 -99.304206 
L 448.979536 -96.962642 
L 448.36165 -94.621079 
L 447.32268 -92.279515 
L 446.005929 -89.937951 
L 444.862448 -87.596388 
L 443.995829 -85.254824 
L 443.312634 -82.91326 
L 442.74414 -80.571697 
L 442.257089 -78.230133 
L 441.831705 -75.88857 
L 441.451792 -73.547006 
L 441.09895 -71.205442 
L 440.765 -68.863879 
L 440.456544 -66.522315 
L 440.176788 -64.180751 
L 439.921005 -61.839188 
L 439.682307 -59.497624 
L 439.460716 -57.15606 
L 439.250351 -54.814497 
L 439.040352 -52.472933 
L 438.82185 -50.13137 
L 438.509976 -47.789806 
L 437.825638 -45.448242 
L 436.492353 -43.106679 
L 434.80415 -40.765115 
z
" style="stroke: #005b30; stroke-opacity: 0.5"/>
    </defs>
    <g clip-path="url(#p867477dc2e)">
     <use xlink:href="#m360c8d5425" x="0" y="291.370655" style="fill: #005b30; fill-opacity: 0.5; stroke: #005b30; stroke-opacity: 0.5"/>
    </g>
   </g>
   <g id="PathCollection_1">
    <defs>
     <path id="m2f98349cfa" d="M 0 1.732051 
C 0.459345 1.732051 0.899939 1.549551 1.224745 1.224745 
C 1.549551 0.899939 1.732051 0.459345 1.732051 0 
C 1.732051 -0.459345 1.549551 -0.899939 1.224745 -1.224745 
C 0.899939 -1.549551 0.459345 -1.732051 0 -1.732051 
C -0.459345 -1.732051 -0.899939 -1.549551 -1.224745 -1.224745 
C -1.549551 -0.899939 -1.732051 -0.459345 -1.732051 0 
C -1.732051 0.459345 -1.549551 0.899939 -1.224745 1.224745 
C -0.899939 1.549551 -0.459345 1.732051 0 1.732051 
z
" style="stroke: #b9153a; stroke-opacity: 0.7"/>
    </defs>
    <g clip-path="url(#p867477dc2e)">
     <use xlink:href="#m2f98349cfa" x="76.44976" y="56.540014" style="fill: #b9153a; fill-opacity: 0.7; stroke: #b9153a; stroke-opacity: 0.7"/>
     <use xlink:href="#m2f98349cfa" x="85.209287" y="150.806632" style="fill: #b9153a; fill-opacity: 0.7; stroke: #b9153a; stroke-opacity: 0.7"/>
     <use xlink:href="#m2f98349cfa" x="68.22361" y="62.008933" style="fill: #b9153a; fill-opacity: 0.7; stroke: #b9153a; stroke-opacity: 0.7"/>
     <use xlink:href="#m2f98349cfa" x="81.557305" y="163.715027" style="fill: #b9153a; fill-opacity: 0.7; stroke: #b9153a; stroke-opacity: 0.7"/>
     <use xlink:href="#m2f98349cfa" x="77.879842" y="54.74822" style="fill: #b9153a; fill-opacity: 0.7; stroke: #b9153a; stroke-opacity: 0.7"/>
     <use xlink:href="#m2f98349cfa" x="88.570636" y="154.302916" style="fill: #b9153a; fill-opacity: 0.7; stroke: #b9153a; stroke-opacity: 0.7"/>
     <use xlink:href="#m2f98349cfa" x="84.155318" y="60.531015" style="fill: #b9153a; fill-opacity: 0.7; stroke: #b9153a; stroke-opacity: 0.7"/>
     <use xlink:href="#m2f98349cfa" x="85.458119" y="159.979699" style="fill: #b9153a; fill-opacity: 0.7; stroke: #b9153a; stroke-opacity: 0.7"/>
     <use xlink:href="#m2f98349cfa" x="59.896579" y="59.454276" style="fill: #b9153a; fill-opacity: 0.7; stroke: #b9153a; stroke-opacity: 0.7"/>
     <use xlink:href="#m2f98349cfa" x="81.751183" y="150.721408" style="fill: #b9153a; fill-opacity: 0.7; stroke: #b9153a; stroke-opacity: 0.7"/>
     <use xlink:href="#m2f98349cfa" x="92.376591" y="60.668206" style="fill: #b9153a; fill-opacity: 0.7; stroke: #b9153a; stroke-opacity: 0.7"/>
     <use xlink:href="#m2f98349cfa" x="75.999554" y="161.719527" style="fill: #b9153a; fill-opacity: 0.7; stroke: #b9153a; stroke-opacity: 0.7"/>
    </g>
   </g>
   <g id="PathCollection_2">
    <defs>
     <path id="mef68c290a9" d="M 0 1.732051 
C 0.459345 1.732051 0.899939 1.549551 1.224745 1.224745 
C 1.549551 0.899939 1.732051 0.459345 1.732051 0 
C 1.732051 -0.459345 1.549551 -0.899939 1.224745 -1.224745 
C 0.899939 -1.549551 0.459345 -1.732051 0 -1.732051 
C -0.459345 -1.732051 -0.899939 -1.549551 -1.224745 -1.224745 
C -1.549551 -0.899939 -1.732051 -0.459345 -1.732051 0 
C -1.732051 0.459345 -1.549551 0.899939 -1.224745 1.224745 
C -0.899939 1.549551 -0.459345 1.732051 0 1.732051 
z
" style="stroke: #1177b0; stroke-opacity: 0.7"/>
    </defs>
    <g clip-path="url(#p867477dc2e)">
     <use xlink:href="#mef68c290a9" x="78.6123" y="44.677178" style="fill: #1177b0; fill-opacity: 0.7; stroke: #1177b0; stroke-opacity: 0.7"/>
     <use xlink:href="#mef68c290a9" x="80.244678" y="176.88741" style="fill: #1177b0; fill-opacity: 0.7; stroke: #1177b0; stroke-opacity: 0.7"/>
     <use xlink:href="#mef68c290a9" x="67.561829" y="48.977898" style="fill: #1177b0; fill-opacity: 0.7; stroke: #1177b0; stroke-opacity: 0.7"/>
     <use xlink:href="#mef68c290a9" x="81.557305" y="182.208745" style="fill: #1177b0; fill-opacity: 0.7; stroke: #1177b0; stroke-opacity: 0.7"/>
     <use xlink:href="#mef68c290a9" x="76.288094" y="77.515635" style="fill: #1177b0; fill-opacity: 0.7; stroke: #1177b0; stroke-opacity: 0.7"/>
     <use xlink:href="#mef68c290a9" x="78.203574" y="124.137598" style="fill: #1177b0; fill-opacity: 0.7; stroke: #1177b0; stroke-opacity: 0.7"/>
     <use xlink:href="#mef68c290a9" x="91.229476" y="78.234847" style="fill: #1177b0; fill-opacity: 0.7; stroke: #1177b0; stroke-opacity: 0.7"/>
     <use xlink:href="#mef68c290a9" x="79.582963" y="157.084145" style="fill: #1177b0; fill-opacity: 0.7; stroke: #1177b0; stroke-opacity: 0.7"/>
     <use xlink:href="#mef68c290a9" x="70.645905" y="68.292681" style="fill: #1177b0; fill-opacity: 0.7; stroke: #1177b0; stroke-opacity: 0.7"/>
     <use xlink:href="#mef68c290a9" x="79.611709" y="127.238938" style="fill: #1177b0; fill-opacity: 0.7; stroke: #1177b0; stroke-opacity: 0.7"/>
     <use xlink:href="#mef68c290a9" x="66.778266" y="76.559458" style="fill: #1177b0; fill-opacity: 0.7; stroke: #1177b0; stroke-opacity: 0.7"/>
     <use xlink:href="#mef68c290a9" x="82.186449" y="164.5548" style="fill: #1177b0; fill-opacity: 0.7; stroke: #1177b0; stroke-opacity: 0.7"/>
    </g>
   </g>
   <g id="PathCollection_3">
    <defs>
     <path id="md7cab6be14" d="M 0 1.732051 
C 0.459345 1.732051 0.899939 1.549551 1.224745 1.224745 
C 1.549551 0.899939 1.732051 0.459345 1.732051 0 
C 1.732051 -0.459345 1.549551 -0.899939 1.224745 -1.224745 
C 0.899939 -1.549551 0.459345 -1.732051 0 -1.732051 
C -0.459345 -1.732051 -0.899939 -1.549551 -1.224745 -1.224745 
C -1.549551 -0.899939 -1.732051 -0.459345 -1.732051 0 
C -1.732051 0.459345 -1.549551 0.899939 -1.224745 1.224745 
C -0.899939 1.549551 -0.459345 1.732051 0 1.732051 
z
" style="stroke: #005b30; stroke-opacity: 0.7"/>
    </defs>
    <g clip-path="url(#p867477dc2e)">
     <use xlink:href="#md7cab6be14" x="115.638679" y="42.879149" style="fill: #005b30; fill-opacity: 0.7; stroke: #005b30; stroke-opacity: 0.7"/>
     <use xlink:href="#md7cab6be14" x="100.641625" y="179.402572" style="fill: #005b30; fill-opacity: 0.7; stroke: #005b30; stroke-opacity: 0.7"/>
     <use xlink:href="#md7cab6be14" x="98.712743" y="45.965939" style="fill: #005b30; fill-opacity: 0.7; stroke: #005b30; stroke-opacity: 0.7"/>
     <use xlink:href="#md7cab6be14" x="87.30656" y="185.983567" style="fill: #005b30; fill-opacity: 0.7; stroke: #005b30; stroke-opacity: 0.7"/>
     <use xlink:href="#md7cab6be14" x="114.921399" y="48.472787" style="fill: #005b30; fill-opacity: 0.7; stroke: #005b30; stroke-opacity: 0.7"/>
     <use xlink:href="#md7cab6be14" x="91.044549" y="167.959623" style="fill: #005b30; fill-opacity: 0.7; stroke: #005b30; stroke-opacity: 0.7"/>
     <use xlink:href="#md7cab6be14" x="52.090588" y="52.788057" style="fill: #005b30; fill-opacity: 0.7; stroke: #005b30; stroke-opacity: 0.7"/>
     <use xlink:href="#md7cab6be14" x="89.253469" y="173.347475" style="fill: #005b30; fill-opacity: 0.7; stroke: #005b30; stroke-opacity: 0.7"/>
     <use xlink:href="#md7cab6be14" x="55.944329" y="48.335596" style="fill: #005b30; fill-opacity: 0.7; stroke: #005b30; stroke-opacity: 0.7"/>
     <use xlink:href="#md7cab6be14" x="81.557305" y="147.572258" style="fill: #005b30; fill-opacity: 0.7; stroke: #005b30; stroke-opacity: 0.7"/>
     <use xlink:href="#md7cab6be14" x="81.760308" y="58.042875" style="fill: #005b30; fill-opacity: 0.7; stroke: #005b30; stroke-opacity: 0.7"/>
     <use xlink:href="#md7cab6be14" x="92.156858" y="181.023917" style="fill: #005b30; fill-opacity: 0.7; stroke: #005b30; stroke-opacity: 0.7"/>
     <use xlink:href="#md7cab6be14" x="92.956444" y="46.994869" style="fill: #005b30; fill-opacity: 0.7; stroke: #005b30; stroke-opacity: 0.7"/>
     <use xlink:href="#md7cab6be14" x="77.418394" y="171.092144" style="fill: #005b30; fill-opacity: 0.7; stroke: #005b30; stroke-opacity: 0.7"/>
     <use xlink:href="#md7cab6be14" x="76.791955" y="50.904803" style="fill: #005b30; fill-opacity: 0.7; stroke: #005b30; stroke-opacity: 0.7"/>
     <use xlink:href="#md7cab6be14" x="95.358235" y="176.727354" style="fill: #005b30; fill-opacity: 0.7; stroke: #005b30; stroke-opacity: 0.7"/>
     <use xlink:href="#md7cab6be14" x="89.961356" y="44.126337" style="fill: #005b30; fill-opacity: 0.7; stroke: #005b30; stroke-opacity: 0.7"/>
     <use xlink:href="#md7cab6be14" x="88.801419" y="182.921721" style="fill: #005b30; fill-opacity: 0.7; stroke: #005b30; stroke-opacity: 0.7"/>
     <use xlink:href="#md7cab6be14" x="90.803662" y="45.61049" style="fill: #005b30; fill-opacity: 0.7; stroke: #005b30; stroke-opacity: 0.7"/>
     <use xlink:href="#md7cab6be14" x="78.985769" y="183.139979" style="fill: #005b30; fill-opacity: 0.7; stroke: #005b30; stroke-opacity: 0.7"/>
     <use xlink:href="#md7cab6be14" x="93.77912" y="42.313757" style="fill: #005b30; fill-opacity: 0.7; stroke: #005b30; stroke-opacity: 0.7"/>
     <use xlink:href="#md7cab6be14" x="78.269701" y="172.368433" style="fill: #005b30; fill-opacity: 0.7; stroke: #005b30; stroke-opacity: 0.7"/>
     <use xlink:href="#md7cab6be14" x="68.49627" y="46.880543" style="fill: #005b30; fill-opacity: 0.7; stroke: #005b30; stroke-opacity: 0.7"/>
     <use xlink:href="#md7cab6be14" x="102.881059" y="186.143623" style="fill: #005b30; fill-opacity: 0.7; stroke: #005b30; stroke-opacity: 0.7"/>
     <use xlink:href="#md7cab6be14" x="93.405403" y="40.950165" style="fill: #005b30; fill-opacity: 0.7; stroke: #005b30; stroke-opacity: 0.7"/>
     <use xlink:href="#md7cab6be14" x="95.817085" y="181.865768" style="fill: #005b30; fill-opacity: 0.7; stroke: #005b30; stroke-opacity: 0.7"/>
     <use xlink:href="#md7cab6be14" x="75.87963" y="41.278591" style="fill: #005b30; fill-opacity: 0.7; stroke: #005b30; stroke-opacity: 0.7"/>
     <use xlink:href="#md7cab6be14" x="78.937699" y="186.835812" style="fill: #005b30; fill-opacity: 0.7; stroke: #005b30; stroke-opacity: 0.7"/>
     <use xlink:href="#md7cab6be14" x="85.953872" y="43.367631" style="fill: #005b30; fill-opacity: 0.7; stroke: #005b30; stroke-opacity: 0.7"/>
     <use xlink:href="#md7cab6be14" x="74.458413" y="162.303626" style="fill: #005b30; fill-opacity: 0.7; stroke: #005b30; stroke-opacity: 0.7"/>
     <use xlink:href="#md7cab6be14" x="82.342404" y="52.116654" style="fill: #005b30; fill-opacity: 0.7; stroke: #005b30; stroke-opacity: 0.7"/>
     <use xlink:href="#md7cab6be14" x="79.8412" y="172.599162" style="fill: #005b30; fill-opacity: 0.7; stroke: #005b30; stroke-opacity: 0.7"/>
     <use xlink:href="#md7cab6be14" x="69.120188" y="42.926958" style="fill: #005b30; fill-opacity: 0.7; stroke: #005b30; stroke-opacity: 0.7"/>
     <use xlink:href="#md7cab6be14" x="82.089407" y="169.686979" style="fill: #005b30; fill-opacity: 0.7; stroke: #005b30; stroke-opacity: 0.7"/>
     <use xlink:href="#md7cab6be14" x="77.198177" y="47.458407" style="fill: #005b30; fill-opacity: 0.7; stroke: #005b30; stroke-opacity: 0.7"/>
     <use xlink:href="#md7cab6be14" x="77.185708" y="188.577718" style="fill: #005b30; fill-opacity: 0.7; stroke: #005b30; stroke-opacity: 0.7"/>
    </g>
   </g>
   <g id="PathCollection_4">
    <defs>
     <path id="md519e8f89c" d="M -1.732051 1.732051 
L 1.732051 1.732051 
L 1.732051 -1.732051 
L -1.732051 -1.732051 
z
" style="stroke: #000000; stroke-opacity: 0.7"/>
    </defs>
    <g clip-path="url(#p867477dc2e)">
     <use xlink:href="#md519e8f89c" x="193.529318" y="56.540014" style="fill: #b9153a; fill-opacity: 0.7; stroke: #000000; stroke-opacity: 0.7"/>
     <use xlink:href="#md519e8f89c" x="202.288845" y="150.806632" style="fill: #b9153a; fill-opacity: 0.7; stroke: #000000; stroke-opacity: 0.7"/>
     <use xlink:href="#md519e8f89c" x="185.303167" y="62.008933" style="fill: #b9153a; fill-opacity: 0.7; stroke: #000000; stroke-opacity: 0.7"/>
     <use xlink:href="#md519e8f89c" x="198.636863" y="163.715027" style="fill: #b9153a; fill-opacity: 0.7; stroke: #000000; stroke-opacity: 0.7"/>
    </g>
   </g>
   <g id="PathCollection_5">
    <defs>
     <path id="mfe37d456ba" d="M -0 1.732051 
L 1.732051 -1.732051 
L -1.732051 -1.732051 
z
" style="stroke: #000000; stroke-opacity: 0.7"/>
    </defs>
    <g clip-path="url(#p867477dc2e)">
     <use xlink:href="#mfe37d456ba" x="194.9594" y="54.74822" style="fill: #b9153a; fill-opacity: 0.7; stroke: #000000; stroke-opacity: 0.7"/>
     <use xlink:href="#mfe37d456ba" x="205.650193" y="154.302916" style="fill: #b9153a; fill-opacity: 0.7; stroke: #000000; stroke-opacity: 0.7"/>
     <use xlink:href="#mfe37d456ba" x="201.234876" y="60.531015" style="fill: #b9153a; fill-opacity: 0.7; stroke: #000000; stroke-opacity: 0.7"/>
     <use xlink:href="#mfe37d456ba" x="202.537677" y="159.979699" style="fill: #b9153a; fill-opacity: 0.7; stroke: #000000; stroke-opacity: 0.7"/>
    </g>
   </g>
   <g id="PathCollection_6">
    <defs>
     <path id="mafac305b0d" d="M 0 -1.732051 
L -0.38887 -0.535233 
L -1.647278 -0.535233 
L -0.629204 0.204441 
L -1.018074 1.401259 
L -0 0.661585 
L 1.018074 1.401259 
L 0.629204 0.204441 
L 1.647278 -0.535233 
L 0.38887 -0.535233 
z
" style="stroke: #000000; stroke-opacity: 0.7"/>
    </defs>
    <g clip-path="url(#p867477dc2e)">
     <use xlink:href="#mafac305b0d" x="176.976136" y="59.454276" style="fill: #b9153a; fill-opacity: 0.7; stroke: #000000; stroke-opacity: 0.7"/>
     <use xlink:href="#mafac305b0d" x="198.830741" y="150.721408" style="fill: #b9153a; fill-opacity: 0.7; stroke: #000000; stroke-opacity: 0.7"/>
     <use xlink:href="#mafac305b0d" x="209.456149" y="60.668206" style="fill: #b9153a; fill-opacity: 0.7; stroke: #000000; stroke-opacity: 0.7"/>
     <use xlink:href="#mafac305b0d" x="193.079112" y="161.719527" style="fill: #b9153a; fill-opacity: 0.7; stroke: #000000; stroke-opacity: 0.7"/>
    </g>
   </g>
   <g id="PathCollection_7">
    <defs>
     <path id="m0c9f354374" d="M -1.732051 1.732051 
L 1.732051 1.732051 
L 1.732051 -1.732051 
L -1.732051 -1.732051 
z
" style="stroke: #000000; stroke-opacity: 0.7"/>
    </defs>
    <g clip-path="url(#p867477dc2e)">
     <use xlink:href="#m0c9f354374" x="312.771415" y="44.677178" style="fill: #1177b0; fill-opacity: 0.7; stroke: #000000; stroke-opacity: 0.7"/>
     <use xlink:href="#m0c9f354374" x="314.403793" y="176.88741" style="fill: #1177b0; fill-opacity: 0.7; stroke: #000000; stroke-opacity: 0.7"/>
     <use xlink:href="#m0c9f354374" x="301.720944" y="48.977898" style="fill: #1177b0; fill-opacity: 0.7; stroke: #000000; stroke-opacity: 0.7"/>
     <use xlink:href="#m0c9f354374" x="315.71642" y="182.208745" style="fill: #1177b0; fill-opacity: 0.7; stroke: #000000; stroke-opacity: 0.7"/>
    </g>
   </g>
   <g id="PathCollection_8">
    <defs>
     <path id="mcbb9f68086" d="M -0 1.732051 
L 1.732051 -1.732051 
L -1.732051 -1.732051 
z
" style="stroke: #000000; stroke-opacity: 0.7"/>
    </defs>
    <g clip-path="url(#p867477dc2e)">
     <use xlink:href="#mcbb9f68086" x="310.44721" y="77.515635" style="fill: #1177b0; fill-opacity: 0.7; stroke: #000000; stroke-opacity: 0.7"/>
     <use xlink:href="#mcbb9f68086" x="312.362689" y="124.137598" style="fill: #1177b0; fill-opacity: 0.7; stroke: #000000; stroke-opacity: 0.7"/>
     <use xlink:href="#mcbb9f68086" x="325.388591" y="78.234847" style="fill: #1177b0; fill-opacity: 0.7; stroke: #000000; stroke-opacity: 0.7"/>
     <use xlink:href="#mcbb9f68086" x="313.742078" y="157.084145" style="fill: #1177b0; fill-opacity: 0.7; stroke: #000000; stroke-opacity: 0.7"/>
    </g>
   </g>
   <g id="PathCollection_9">
    <defs>
     <path id="mb35ccf6770" d="M 0 -1.732051 
L -0.38887 -0.535233 
L -1.647278 -0.535233 
L -0.629204 0.204441 
L -1.018074 1.401259 
L -0 0.661585 
L 1.018074 1.401259 
L 0.629204 0.204441 
L 1.647278 -0.535233 
L 0.38887 -0.535233 
z
" style="stroke: #000000; stroke-opacity: 0.7"/>
    </defs>
    <g clip-path="url(#p867477dc2e)">
     <use xlink:href="#mb35ccf6770" x="304.80502" y="68.292681" style="fill: #1177b0; fill-opacity: 0.7; stroke: #000000; stroke-opacity: 0.7"/>
     <use xlink:href="#mb35ccf6770" x="313.770824" y="127.238938" style="fill: #1177b0; fill-opacity: 0.7; stroke: #000000; stroke-opacity: 0.7"/>
     <use xlink:href="#mb35ccf6770" x="300.937382" y="76.559458" style="fill: #1177b0; fill-opacity: 0.7; stroke: #000000; stroke-opacity: 0.7"/>
     <use xlink:href="#mb35ccf6770" x="316.345564" y="164.5548" style="fill: #1177b0; fill-opacity: 0.7; stroke: #000000; stroke-opacity: 0.7"/>
    </g>
   </g>
   <g id="PathCollection_10">
    <defs>
     <path id="m6ce4f3afdb" d="M -1.732051 1.732051 
L 1.732051 1.732051 
L 1.732051 -1.732051 
L -1.732051 -1.732051 
z
" style="stroke: #000000; stroke-opacity: 0.7"/>
    </defs>
    <g clip-path="url(#p867477dc2e)">
     <use xlink:href="#m6ce4f3afdb" x="466.877352" y="42.879149" style="fill: #005b30; fill-opacity: 0.7; stroke: #000000; stroke-opacity: 0.7"/>
     <use xlink:href="#m6ce4f3afdb" x="451.880298" y="179.402572" style="fill: #005b30; fill-opacity: 0.7; stroke: #000000; stroke-opacity: 0.7"/>
     <use xlink:href="#m6ce4f3afdb" x="449.951416" y="45.965939" style="fill: #005b30; fill-opacity: 0.7; stroke: #000000; stroke-opacity: 0.7"/>
     <use xlink:href="#m6ce4f3afdb" x="438.545233" y="185.983567" style="fill: #005b30; fill-opacity: 0.7; stroke: #000000; stroke-opacity: 0.7"/>
    </g>
   </g>
   <g id="PathCollection_11">
    <defs>
     <path id="meff1bbece2" d="M -0 1.732051 
L 1.732051 -1.732051 
L -1.732051 -1.732051 
z
" style="stroke: #000000; stroke-opacity: 0.7"/>
    </defs>
    <g clip-path="url(#p867477dc2e)">
     <use xlink:href="#meff1bbece2" x="466.160072" y="48.472787" style="fill: #005b30; fill-opacity: 0.7; stroke: #000000; stroke-opacity: 0.7"/>
     <use xlink:href="#meff1bbece2" x="442.283222" y="167.959623" style="fill: #005b30; fill-opacity: 0.7; stroke: #000000; stroke-opacity: 0.7"/>
     <use xlink:href="#meff1bbece2" x="403.329261" y="52.788057" style="fill: #005b30; fill-opacity: 0.7; stroke: #000000; stroke-opacity: 0.7"/>
     <use xlink:href="#meff1bbece2" x="440.492142" y="173.347475" style="fill: #005b30; fill-opacity: 0.7; stroke: #000000; stroke-opacity: 0.7"/>
    </g>
   </g>
   <g id="PathCollection_12">
    <defs>
     <path id="m270d09c030" d="M 0 -1.732051 
L -0.38887 -0.535233 
L -1.647278 -0.535233 
L -0.629204 0.204441 
L -1.018074 1.401259 
L -0 0.661585 
L 1.018074 1.401259 
L 0.629204 0.204441 
L 1.647278 -0.535233 
L 0.38887 -0.535233 
z
" style="stroke: #000000; stroke-opacity: 0.7"/>
    </defs>
    <g clip-path="url(#p867477dc2e)">
     <use xlink:href="#m270d09c030" x="407.183002" y="48.335596" style="fill: #005b30; fill-opacity: 0.7; stroke: #000000; stroke-opacity: 0.7"/>
     <use xlink:href="#m270d09c030" x="432.795978" y="147.572258" style="fill: #005b30; fill-opacity: 0.7; stroke: #000000; stroke-opacity: 0.7"/>
     <use xlink:href="#m270d09c030" x="432.998981" y="58.042875" style="fill: #005b30; fill-opacity: 0.7; stroke: #000000; stroke-opacity: 0.7"/>
     <use xlink:href="#m270d09c030" x="443.395531" y="181.023917" style="fill: #005b30; fill-opacity: 0.7; stroke: #000000; stroke-opacity: 0.7"/>
    </g>
   </g>
   <g id="PathCollection_13">
    <defs>
     <path id="m9f46f19523" d="M -1.732051 1.732051 
L 1.732051 1.732051 
L 1.732051 -1.732051 
L -1.732051 -1.732051 
z
" style="stroke: #005b30; stroke-opacity: 0.7"/>
    </defs>
    <g clip-path="url(#p867477dc2e)">
     <use xlink:href="#m9f46f19523" x="444.195118" y="46.994869" style="fill-opacity: 0.7; stroke: #005b30; stroke-opacity: 0.7"/>
     <use xlink:href="#m9f46f19523" x="428.657067" y="171.092144" style="fill-opacity: 0.7; stroke: #005b30; stroke-opacity: 0.7"/>
     <use xlink:href="#m9f46f19523" x="428.030628" y="50.904803" style="fill-opacity: 0.7; stroke: #005b30; stroke-opacity: 0.7"/>
     <use xlink:href="#m9f46f19523" x="446.596908" y="176.727354" style="fill-opacity: 0.7; stroke: #005b30; stroke-opacity: 0.7"/>
    </g>
   </g>
   <g id="PathCollection_14">
    <defs>
     <path id="m1cf343bd18" d="M -0 1.732051 
L 1.732051 -1.732051 
L -1.732051 -1.732051 
z
" style="stroke: #005b30; stroke-opacity: 0.7"/>
    </defs>
    <g clip-path="url(#p867477dc2e)">
     <use xlink:href="#m1cf343bd18" x="441.200029" y="44.126337" style="fill-opacity: 0.7; stroke: #005b30; stroke-opacity: 0.7"/>
     <use xlink:href="#m1cf343bd18" x="440.040093" y="182.921721" style="fill-opacity: 0.7; stroke: #005b30; stroke-opacity: 0.7"/>
     <use xlink:href="#m1cf343bd18" x="442.042335" y="45.61049" style="fill-opacity: 0.7; stroke: #005b30; stroke-opacity: 0.7"/>
     <use xlink:href="#m1cf343bd18" x="430.224442" y="183.139979" style="fill-opacity: 0.7; stroke: #005b30; stroke-opacity: 0.7"/>
    </g>
   </g>
   <g id="PathCollection_15">
    <defs>
     <path id="m92337d1b01" d="M 0 -1.732051 
L -0.38887 -0.535233 
L -1.647278 -0.535233 
L -0.629204 0.204441 
L -1.018074 1.401259 
L -0 0.661585 
L 1.018074 1.401259 
L 0.629204 0.204441 
L 1.647278 -0.535233 
L 0.38887 -0.535233 
z
" style="stroke: #005b30; stroke-opacity: 0.7"/>
    </defs>
    <g clip-path="url(#p867477dc2e)">
     <use xlink:href="#m92337d1b01" x="445.017793" y="42.313757" style="fill-opacity: 0.7; stroke: #005b30; stroke-opacity: 0.7"/>
     <use xlink:href="#m92337d1b01" x="429.508374" y="172.368433" style="fill-opacity: 0.7; stroke: #005b30; stroke-opacity: 0.7"/>
     <use xlink:href="#m92337d1b01" x="419.734943" y="46.880543" style="fill-opacity: 0.7; stroke: #005b30; stroke-opacity: 0.7"/>
     <use xlink:href="#m92337d1b01" x="454.119732" y="186.143623" style="fill-opacity: 0.7; stroke: #005b30; stroke-opacity: 0.7"/>
    </g>
   </g>
   <g id="PathCollection_16">
    <defs>
     <path id="mdb4ae2a88e" d="M -1.732051 1.732051 
L 1.732051 1.732051 
L 1.732051 -1.732051 
L -1.732051 -1.732051 
z
" style="stroke: #005b30; stroke-opacity: 0.7"/>
    </defs>
    <g clip-path="url(#p867477dc2e)">
     <use xlink:href="#mdb4ae2a88e" x="444.644076" y="40.950165" style="fill: #ffffff; fill-opacity: 0.7; stroke: #005b30; stroke-opacity: 0.7"/>
     <use xlink:href="#mdb4ae2a88e" x="447.055758" y="181.865768" style="fill: #ffffff; fill-opacity: 0.7; stroke: #005b30; stroke-opacity: 0.7"/>
     <use xlink:href="#mdb4ae2a88e" x="427.118303" y="41.278591" style="fill: #ffffff; fill-opacity: 0.7; stroke: #005b30; stroke-opacity: 0.7"/>
     <use xlink:href="#mdb4ae2a88e" x="430.176372" y="186.835812" style="fill: #ffffff; fill-opacity: 0.7; stroke: #005b30; stroke-opacity: 0.7"/>
    </g>
   </g>
   <g id="PathCollection_17">
    <defs>
     <path id="mf72e35762e" d="M -0 1.732051 
L 1.732051 -1.732051 
L -1.732051 -1.732051 
z
" style="stroke: #005b30; stroke-opacity: 0.7"/>
    </defs>
    <g clip-path="url(#p867477dc2e)">
     <use xlink:href="#mf72e35762e" x="437.192545" y="43.367631" style="fill: #ffffff; fill-opacity: 0.7; stroke: #005b30; stroke-opacity: 0.7"/>
     <use xlink:href="#mf72e35762e" x="425.697086" y="162.303626" style="fill: #ffffff; fill-opacity: 0.7; stroke: #005b30; stroke-opacity: 0.7"/>
     <use xlink:href="#mf72e35762e" x="433.581077" y="52.116654" style="fill: #ffffff; fill-opacity: 0.7; stroke: #005b30; stroke-opacity: 0.7"/>
     <use xlink:href="#mf72e35762e" x="431.079873" y="172.599162" style="fill: #ffffff; fill-opacity: 0.7; stroke: #005b30; stroke-opacity: 0.7"/>
    </g>
   </g>
   <g id="PathCollection_18">
    <defs>
     <path id="m1df9f98871" d="M 0 -1.732051 
L -0.38887 -0.535233 
L -1.647278 -0.535233 
L -0.629204 0.204441 
L -1.018074 1.401259 
L -0 0.661585 
L 1.018074 1.401259 
L 0.629204 0.204441 
L 1.647278 -0.535233 
L 0.38887 -0.535233 
z
" style="stroke: #005b30; stroke-opacity: 0.7"/>
    </defs>
    <g clip-path="url(#p867477dc2e)">
     <use xlink:href="#m1df9f98871" x="420.358861" y="42.926958" style="fill: #ffffff; fill-opacity: 0.7; stroke: #005b30; stroke-opacity: 0.7"/>
     <use xlink:href="#m1df9f98871" x="433.32808" y="169.686979" style="fill: #ffffff; fill-opacity: 0.7; stroke: #005b30; stroke-opacity: 0.7"/>
     <use xlink:href="#m1df9f98871" x="428.43685" y="47.458407" style="fill: #ffffff; fill-opacity: 0.7; stroke: #005b30; stroke-opacity: 0.7"/>
     <use xlink:href="#m1df9f98871" x="428.424381" y="188.577718" style="fill: #ffffff; fill-opacity: 0.7; stroke: #005b30; stroke-opacity: 0.7"/>
    </g>
   </g>
   <g id="matplotlib.axis_1">
    <g id="xtick_1">
     <g id="line2d_1">
      <defs>
       <path id="mf68a0f284c" d="M 0 0 
L 0 3.5 
" style="stroke: #000000; stroke-width: 0.8"/>
      </defs>
      <g>
       <use xlink:href="#mf68a0f284c" x="81.557305" y="262.19628" style="stroke: #000000; stroke-width: 0.8"/>
      </g>
     </g>
     <g id="text_1">
      <!-- All -->
      <g transform="translate(78.223086 273.490967) scale(0.06 -0.06)">
       <defs>
        <path id="ArialMT-41" d="M -9 0 
L 1750 4581 
L 2403 4581 
L 4278 0 
L 3588 0 
L 3053 1388 
L 1138 1388 
L 634 0 
L -9 0 
z
M 1313 1881 
L 2866 1881 
L 2388 3150 
Q 2169 3728 2063 4100 
Q 1975 3659 1816 3225 
L 1313 1881 
z
" transform="scale(0.015625)"/>
        <path id="ArialMT-6c" d="M 409 0 
L 409 4581 
L 972 4581 
L 972 0 
L 409 0 
z
" transform="scale(0.015625)"/>
       </defs>
       <use xlink:href="#ArialMT-41"/>
       <use xlink:href="#ArialMT-6c" x="66.699219"/>
       <use xlink:href="#ArialMT-6c" x="88.916016"/>
      </g>
     </g>
    </g>
    <g id="xtick_2">
     <g id="line2d_2">
      <g>
       <use xlink:href="#mf68a0f284c" x="198.636863" y="262.19628" style="stroke: #000000; stroke-width: 0.8"/>
      </g>
     </g>
     <g id="text_2">
      <!-- 1 -->
      <g transform="translate(196.968581 273.490967) scale(0.06 -0.06)">
       <defs>
        <path id="ArialMT-31" d="M 2384 0 
L 1822 0 
L 1822 3584 
Q 1619 3391 1289 3197 
Q 959 3003 697 2906 
L 697 3450 
Q 1169 3672 1522 3987 
Q 1875 4303 2022 4600 
L 2384 4600 
L 2384 0 
z
" transform="scale(0.015625)"/>
       </defs>
       <use xlink:href="#ArialMT-31"/>
      </g>
     </g>
    </g>
    <g id="xtick_3">
     <g id="line2d_3">
      <g>
       <use xlink:href="#mf68a0f284c" x="315.71642" y="262.19628" style="stroke: #000000; stroke-width: 0.8"/>
      </g>
     </g>
     <g id="text_3">
      <!-- 2 -->
      <g transform="translate(314.048139 273.490967) scale(0.06 -0.06)">
       <defs>
        <path id="ArialMT-32" d="M 3222 541 
L 3222 0 
L 194 0 
Q 188 203 259 391 
Q 375 700 629 1000 
Q 884 1300 1366 1694 
Q 2113 2306 2375 2664 
Q 2638 3022 2638 3341 
Q 2638 3675 2398 3904 
Q 2159 4134 1775 4134 
Q 1369 4134 1125 3890 
Q 881 3647 878 3216 
L 300 3275 
Q 359 3922 746 4261 
Q 1134 4600 1788 4600 
Q 2447 4600 2831 4234 
Q 3216 3869 3216 3328 
Q 3216 3053 3103 2787 
Q 2991 2522 2730 2228 
Q 2469 1934 1863 1422 
Q 1356 997 1212 845 
Q 1069 694 975 541 
L 3222 541 
z
" transform="scale(0.015625)"/>
       </defs>
       <use xlink:href="#ArialMT-32"/>
      </g>
     </g>
    </g>
    <g id="xtick_4">
     <g id="line2d_4">
      <g>
       <use xlink:href="#mf68a0f284c" x="432.795978" y="262.19628" style="stroke: #000000; stroke-width: 0.8"/>
      </g>
     </g>
     <g id="text_4">
      <!-- 3 -->
      <g transform="translate(431.127697 273.490967) scale(0.06 -0.06)">
       <defs>
        <path id="ArialMT-33" d="M 269 1209 
L 831 1284 
Q 928 806 1161 595 
Q 1394 384 1728 384 
Q 2125 384 2398 659 
Q 2672 934 2672 1341 
Q 2672 1728 2419 1979 
Q 2166 2231 1775 2231 
Q 1616 2231 1378 2169 
L 1441 2663 
Q 1497 2656 1531 2656 
Q 1891 2656 2178 2843 
Q 2466 3031 2466 3422 
Q 2466 3731 2256 3934 
Q 2047 4138 1716 4138 
Q 1388 4138 1169 3931 
Q 950 3725 888 3313 
L 325 3413 
Q 428 3978 793 4289 
Q 1159 4600 1703 4600 
Q 2078 4600 2393 4439 
Q 2709 4278 2876 4000 
Q 3044 3722 3044 3409 
Q 3044 3113 2884 2869 
Q 2725 2625 2413 2481 
Q 2819 2388 3044 2092 
Q 3269 1797 3269 1353 
Q 3269 753 2831 336 
Q 2394 -81 1725 -81 
Q 1122 -81 723 278 
Q 325 638 269 1209 
z
" transform="scale(0.015625)"/>
       </defs>
       <use xlink:href="#ArialMT-33"/>
      </g>
     </g>
    </g>
    <g id="text_5">
     <!-- Structure -->
     <g transform="translate(247.313345 282.978155) scale(0.06 -0.06)">
      <defs>
       <path id="ArialMT-53" d="M 288 1472 
L 859 1522 
Q 900 1178 1048 958 
Q 1197 738 1509 602 
Q 1822 466 2213 466 
Q 2559 466 2825 569 
Q 3091 672 3220 851 
Q 3350 1031 3350 1244 
Q 3350 1459 3225 1620 
Q 3100 1781 2813 1891 
Q 2628 1963 1997 2114 
Q 1366 2266 1113 2400 
Q 784 2572 623 2826 
Q 463 3081 463 3397 
Q 463 3744 659 4045 
Q 856 4347 1234 4503 
Q 1613 4659 2075 4659 
Q 2584 4659 2973 4495 
Q 3363 4331 3572 4012 
Q 3781 3694 3797 3291 
L 3216 3247 
Q 3169 3681 2898 3903 
Q 2628 4125 2100 4125 
Q 1550 4125 1298 3923 
Q 1047 3722 1047 3438 
Q 1047 3191 1225 3031 
Q 1400 2872 2139 2705 
Q 2878 2538 3153 2413 
Q 3553 2228 3743 1945 
Q 3934 1663 3934 1294 
Q 3934 928 3725 604 
Q 3516 281 3123 101 
Q 2731 -78 2241 -78 
Q 1619 -78 1198 103 
Q 778 284 539 648 
Q 300 1013 288 1472 
z
" transform="scale(0.015625)"/>
       <path id="ArialMT-74" d="M 1650 503 
L 1731 6 
Q 1494 -44 1306 -44 
Q 1000 -44 831 53 
Q 663 150 594 308 
Q 525 466 525 972 
L 525 2881 
L 113 2881 
L 113 3319 
L 525 3319 
L 525 4141 
L 1084 4478 
L 1084 3319 
L 1650 3319 
L 1650 2881 
L 1084 2881 
L 1084 941 
Q 1084 700 1114 631 
Q 1144 563 1211 522 
Q 1278 481 1403 481 
Q 1497 481 1650 503 
z
" transform="scale(0.015625)"/>
       <path id="ArialMT-72" d="M 416 0 
L 416 3319 
L 922 3319 
L 922 2816 
Q 1116 3169 1280 3281 
Q 1444 3394 1641 3394 
Q 1925 3394 2219 3213 
L 2025 2691 
Q 1819 2813 1613 2813 
Q 1428 2813 1281 2702 
Q 1134 2591 1072 2394 
Q 978 2094 978 1738 
L 978 0 
L 416 0 
z
" transform="scale(0.015625)"/>
       <path id="ArialMT-75" d="M 2597 0 
L 2597 488 
Q 2209 -75 1544 -75 
Q 1250 -75 995 37 
Q 741 150 617 320 
Q 494 491 444 738 
Q 409 903 409 1263 
L 409 3319 
L 972 3319 
L 972 1478 
Q 972 1038 1006 884 
Q 1059 663 1231 536 
Q 1403 409 1656 409 
Q 1909 409 2131 539 
Q 2353 669 2445 892 
Q 2538 1116 2538 1541 
L 2538 3319 
L 3100 3319 
L 3100 0 
L 2597 0 
z
" transform="scale(0.015625)"/>
       <path id="ArialMT-63" d="M 2588 1216 
L 3141 1144 
Q 3050 572 2676 248 
Q 2303 -75 1759 -75 
Q 1078 -75 664 370 
Q 250 816 250 1647 
Q 250 2184 428 2587 
Q 606 2991 970 3192 
Q 1334 3394 1763 3394 
Q 2303 3394 2647 3120 
Q 2991 2847 3088 2344 
L 2541 2259 
Q 2463 2594 2264 2762 
Q 2066 2931 1784 2931 
Q 1359 2931 1093 2626 
Q 828 2322 828 1663 
Q 828 994 1084 691 
Q 1341 388 1753 388 
Q 2084 388 2306 591 
Q 2528 794 2588 1216 
z
" transform="scale(0.015625)"/>
       <path id="ArialMT-65" d="M 2694 1069 
L 3275 997 
Q 3138 488 2766 206 
Q 2394 -75 1816 -75 
Q 1088 -75 661 373 
Q 234 822 234 1631 
Q 234 2469 665 2931 
Q 1097 3394 1784 3394 
Q 2450 3394 2872 2941 
Q 3294 2488 3294 1666 
Q 3294 1616 3291 1516 
L 816 1516 
Q 847 969 1125 678 
Q 1403 388 1819 388 
Q 2128 388 2347 550 
Q 2566 713 2694 1069 
z
M 847 1978 
L 2700 1978 
Q 2663 2397 2488 2606 
Q 2219 2931 1791 2931 
Q 1403 2931 1139 2672 
Q 875 2413 847 1978 
z
" transform="scale(0.015625)"/>
      </defs>
      <use xlink:href="#ArialMT-53"/>
      <use xlink:href="#ArialMT-74" x="66.699219"/>
      <use xlink:href="#ArialMT-72" x="94.482422"/>
      <use xlink:href="#ArialMT-75" x="127.783203"/>
      <use xlink:href="#ArialMT-63" x="183.398438"/>
      <use xlink:href="#ArialMT-74" x="233.398438"/>
      <use xlink:href="#ArialMT-75" x="261.181641"/>
      <use xlink:href="#ArialMT-72" x="316.796875"/>
      <use xlink:href="#ArialMT-65" x="350.097656"/>
     </g>
    </g>
   </g>
   <g id="matplotlib.axis_2">
    <g id="ytick_1">
     <g id="line2d_5">
      <defs>
       <path id="md44e04089d" d="M 0 0 
L -3.5 0 
" style="stroke: #000000; stroke-width: 0.8"/>
      </defs>
      <g>
       <use xlink:href="#md44e04089d" x="31.35125" y="253.001209" style="stroke: #000000; stroke-width: 0.8"/>
      </g>
     </g>
     <g id="text_6">
      <!-- 6 -->
      <g transform="translate(21.014687 255.148553) scale(0.06 -0.06)">
       <defs>
        <path id="ArialMT-36" d="M 3184 3459 
L 2625 3416 
Q 2550 3747 2413 3897 
Q 2184 4138 1850 4138 
Q 1581 4138 1378 3988 
Q 1113 3794 959 3422 
Q 806 3050 800 2363 
Q 1003 2672 1297 2822 
Q 1591 2972 1913 2972 
Q 2475 2972 2870 2558 
Q 3266 2144 3266 1488 
Q 3266 1056 3080 686 
Q 2894 316 2569 119 
Q 2244 -78 1831 -78 
Q 1128 -78 684 439 
Q 241 956 241 2144 
Q 241 3472 731 4075 
Q 1159 4600 1884 4600 
Q 2425 4600 2770 4297 
Q 3116 3994 3184 3459 
z
M 888 1484 
Q 888 1194 1011 928 
Q 1134 663 1356 523 
Q 1578 384 1822 384 
Q 2178 384 2434 671 
Q 2691 959 2691 1453 
Q 2691 1928 2437 2201 
Q 2184 2475 1800 2475 
Q 1419 2475 1153 2201 
Q 888 1928 888 1484 
z
" transform="scale(0.015625)"/>
       </defs>
       <use xlink:href="#ArialMT-36"/>
      </g>
     </g>
    </g>
    <g id="ytick_2">
     <g id="line2d_6">
      <g>
       <use xlink:href="#md44e04089d" x="31.35125" y="211.428279" style="stroke: #000000; stroke-width: 0.8"/>
      </g>
     </g>
     <g id="text_7">
      <!-- 8 -->
      <g transform="translate(21.014687 213.575623) scale(0.06 -0.06)">
       <defs>
        <path id="ArialMT-38" d="M 1131 2484 
Q 781 2613 612 2850 
Q 444 3088 444 3419 
Q 444 3919 803 4259 
Q 1163 4600 1759 4600 
Q 2359 4600 2725 4251 
Q 3091 3903 3091 3403 
Q 3091 3084 2923 2848 
Q 2756 2613 2416 2484 
Q 2838 2347 3058 2040 
Q 3278 1734 3278 1309 
Q 3278 722 2862 322 
Q 2447 -78 1769 -78 
Q 1091 -78 675 323 
Q 259 725 259 1325 
Q 259 1772 486 2073 
Q 713 2375 1131 2484 
z
M 1019 3438 
Q 1019 3113 1228 2906 
Q 1438 2700 1772 2700 
Q 2097 2700 2305 2904 
Q 2513 3109 2513 3406 
Q 2513 3716 2298 3927 
Q 2084 4138 1766 4138 
Q 1444 4138 1231 3931 
Q 1019 3725 1019 3438 
z
M 838 1322 
Q 838 1081 952 856 
Q 1066 631 1291 507 
Q 1516 384 1775 384 
Q 2178 384 2440 643 
Q 2703 903 2703 1303 
Q 2703 1709 2433 1975 
Q 2163 2241 1756 2241 
Q 1359 2241 1098 1978 
Q 838 1716 838 1322 
z
" transform="scale(0.015625)"/>
       </defs>
       <use xlink:href="#ArialMT-38"/>
      </g>
     </g>
    </g>
    <g id="ytick_3">
     <g id="line2d_7">
      <g>
       <use xlink:href="#md44e04089d" x="31.35125" y="169.855349" style="stroke: #000000; stroke-width: 0.8"/>
      </g>
     </g>
     <g id="text_8">
      <!-- 10 -->
      <g transform="translate(17.678125 172.002693) scale(0.06 -0.06)">
       <defs>
        <path id="ArialMT-30" d="M 266 2259 
Q 266 3072 433 3567 
Q 600 4063 929 4331 
Q 1259 4600 1759 4600 
Q 2128 4600 2406 4451 
Q 2684 4303 2865 4023 
Q 3047 3744 3150 3342 
Q 3253 2941 3253 2259 
Q 3253 1453 3087 958 
Q 2922 463 2592 192 
Q 2263 -78 1759 -78 
Q 1097 -78 719 397 
Q 266 969 266 2259 
z
M 844 2259 
Q 844 1131 1108 757 
Q 1372 384 1759 384 
Q 2147 384 2411 759 
Q 2675 1134 2675 2259 
Q 2675 3391 2411 3762 
Q 2147 4134 1753 4134 
Q 1366 4134 1134 3806 
Q 844 3388 844 2259 
z
" transform="scale(0.015625)"/>
       </defs>
       <use xlink:href="#ArialMT-31"/>
       <use xlink:href="#ArialMT-30" x="55.615234"/>
      </g>
     </g>
    </g>
    <g id="ytick_4">
     <g id="line2d_8">
      <g>
       <use xlink:href="#md44e04089d" x="31.35125" y="128.282419" style="stroke: #000000; stroke-width: 0.8"/>
      </g>
     </g>
     <g id="text_9">
      <!-- 12 -->
      <g transform="translate(17.678125 130.429763) scale(0.06 -0.06)">
       <use xlink:href="#ArialMT-31"/>
       <use xlink:href="#ArialMT-32" x="55.615234"/>
      </g>
     </g>
    </g>
    <g id="ytick_5">
     <g id="line2d_9">
      <g>
       <use xlink:href="#md44e04089d" x="31.35125" y="86.709489" style="stroke: #000000; stroke-width: 0.8"/>
      </g>
     </g>
     <g id="text_10">
      <!-- 14 -->
      <g transform="translate(17.678125 88.856833) scale(0.06 -0.06)">
       <defs>
        <path id="ArialMT-34" d="M 2069 0 
L 2069 1097 
L 81 1097 
L 81 1613 
L 2172 4581 
L 2631 4581 
L 2631 1613 
L 3250 1613 
L 3250 1097 
L 2631 1097 
L 2631 0 
L 2069 0 
z
M 2069 1613 
L 2069 3678 
L 634 1613 
L 2069 1613 
z
" transform="scale(0.015625)"/>
       </defs>
       <use xlink:href="#ArialMT-31"/>
       <use xlink:href="#ArialMT-34" x="55.615234"/>
      </g>
     </g>
    </g>
    <g id="ytick_6">
     <g id="line2d_10">
      <g>
       <use xlink:href="#md44e04089d" x="31.35125" y="45.136559" style="stroke: #000000; stroke-width: 0.8"/>
      </g>
     </g>
     <g id="text_11">
      <!-- 16 -->
      <g transform="translate(17.678125 47.283903) scale(0.06 -0.06)">
       <use xlink:href="#ArialMT-31"/>
       <use xlink:href="#ArialMT-36" x="55.615234"/>
      </g>
     </g>
    </g>
    <g id="text_12">
     <!-- NN distance () -->
     <g transform="translate(12.415312 158.86689) rotate(-90) scale(0.06 -0.06)">
      <defs>
       <path id="ArialMT-4e" d="M 488 0 
L 488 4581 
L 1109 4581 
L 3516 984 
L 3516 4581 
L 4097 4581 
L 4097 0 
L 3475 0 
L 1069 3600 
L 1069 0 
L 488 0 
z
" transform="scale(0.015625)"/>
       <path id="ArialMT-b7" d="M 744 1991 
L 744 2631 
L 1384 2631 
L 1384 1991 
L 744 1991 
z
" transform="scale(0.015625)"/>
       <path id="ArialMT-20" transform="scale(0.015625)"/>
       <path id="ArialMT-64" d="M 2575 0 
L 2575 419 
Q 2259 -75 1647 -75 
Q 1250 -75 917 144 
Q 584 363 401 755 
Q 219 1147 219 1656 
Q 219 2153 384 2558 
Q 550 2963 881 3178 
Q 1213 3394 1622 3394 
Q 1922 3394 2156 3267 
Q 2391 3141 2538 2938 
L 2538 4581 
L 3097 4581 
L 3097 0 
L 2575 0 
z
M 797 1656 
Q 797 1019 1065 703 
Q 1334 388 1700 388 
Q 2069 388 2326 689 
Q 2584 991 2584 1609 
Q 2584 2291 2321 2609 
Q 2059 2928 1675 2928 
Q 1300 2928 1048 2622 
Q 797 2316 797 1656 
z
" transform="scale(0.015625)"/>
       <path id="ArialMT-69" d="M 425 3934 
L 425 4581 
L 988 4581 
L 988 3934 
L 425 3934 
z
M 425 0 
L 425 3319 
L 988 3319 
L 988 0 
L 425 0 
z
" transform="scale(0.015625)"/>
       <path id="ArialMT-73" d="M 197 991 
L 753 1078 
Q 800 744 1014 566 
Q 1228 388 1613 388 
Q 2000 388 2187 545 
Q 2375 703 2375 916 
Q 2375 1106 2209 1216 
Q 2094 1291 1634 1406 
Q 1016 1563 777 1677 
Q 538 1791 414 1992 
Q 291 2194 291 2438 
Q 291 2659 392 2848 
Q 494 3038 669 3163 
Q 800 3259 1026 3326 
Q 1253 3394 1513 3394 
Q 1903 3394 2198 3281 
Q 2494 3169 2634 2976 
Q 2775 2784 2828 2463 
L 2278 2388 
Q 2241 2644 2061 2787 
Q 1881 2931 1553 2931 
Q 1166 2931 1000 2803 
Q 834 2675 834 2503 
Q 834 2394 903 2306 
Q 972 2216 1119 2156 
Q 1203 2125 1616 2013 
Q 2213 1853 2448 1751 
Q 2684 1650 2818 1456 
Q 2953 1263 2953 975 
Q 2953 694 2789 445 
Q 2625 197 2315 61 
Q 2006 -75 1616 -75 
Q 969 -75 630 194 
Q 291 463 197 991 
z
" transform="scale(0.015625)"/>
       <path id="ArialMT-61" d="M 2588 409 
Q 2275 144 1986 34 
Q 1697 -75 1366 -75 
Q 819 -75 525 192 
Q 231 459 231 875 
Q 231 1119 342 1320 
Q 453 1522 633 1644 
Q 813 1766 1038 1828 
Q 1203 1872 1538 1913 
Q 2219 1994 2541 2106 
Q 2544 2222 2544 2253 
Q 2544 2597 2384 2738 
Q 2169 2928 1744 2928 
Q 1347 2928 1158 2789 
Q 969 2650 878 2297 
L 328 2372 
Q 403 2725 575 2942 
Q 747 3159 1072 3276 
Q 1397 3394 1825 3394 
Q 2250 3394 2515 3294 
Q 2781 3194 2906 3042 
Q 3031 2891 3081 2659 
Q 3109 2516 3109 2141 
L 3109 1391 
Q 3109 606 3145 398 
Q 3181 191 3288 0 
L 2700 0 
Q 2613 175 2588 409 
z
M 2541 1666 
Q 2234 1541 1622 1453 
Q 1275 1403 1131 1340 
Q 988 1278 909 1158 
Q 831 1038 831 891 
Q 831 666 1001 516 
Q 1172 366 1500 366 
Q 1825 366 2078 508 
Q 2331 650 2450 897 
Q 2541 1088 2541 1459 
L 2541 1666 
z
" transform="scale(0.015625)"/>
       <path id="ArialMT-6e" d="M 422 0 
L 422 3319 
L 928 3319 
L 928 2847 
Q 1294 3394 1984 3394 
Q 2284 3394 2536 3286 
Q 2788 3178 2913 3003 
Q 3038 2828 3088 2588 
Q 3119 2431 3119 2041 
L 3119 0 
L 2556 0 
L 2556 2019 
Q 2556 2363 2490 2533 
Q 2425 2703 2258 2804 
Q 2091 2906 1866 2906 
Q 1506 2906 1245 2678 
Q 984 2450 984 1813 
L 984 0 
L 422 0 
z
" transform="scale(0.015625)"/>
       <path id="ArialMT-28" d="M 1497 -1347 
Q 1031 -759 709 28 
Q 388 816 388 1659 
Q 388 2403 628 3084 
Q 909 3875 1497 4659 
L 1900 4659 
Q 1522 4009 1400 3731 
Q 1209 3300 1100 2831 
Q 966 2247 966 1656 
Q 966 153 1900 -1347 
L 1497 -1347 
z
" transform="scale(0.015625)"/>
       <path id="ArialMT-c5" d="M -9 0 
L 1750 4581 
L 2403 4581 
L 4278 0 
L 3588 0 
L 3053 1388 
L 1138 1388 
L 634 0 
L -9 0 
z
M 1313 1881 
L 2866 1881 
L 2388 3150 
Q 2169 3728 2063 4100 
Q 1975 3659 1816 3225 
L 1313 1881 
z
M 1503 5003 
Q 1503 5231 1670 5397 
Q 1838 5563 2066 5563 
Q 2297 5563 2462 5395 
Q 2628 5228 2628 4991 
Q 2628 4750 2462 4584 
Q 2297 4419 2069 4419 
Q 1834 4419 1668 4586 
Q 1503 4753 1503 5003 
z
M 1741 5000 
Q 1741 4853 1839 4753 
Q 1938 4653 2072 4653 
Q 2206 4653 2304 4753 
Q 2403 4853 2403 4994 
Q 2403 5135 2306 5235 
Q 2209 5335 2072 5335 
Q 1938 5335 1839 5236 
Q 1741 5138 1741 5000 
z
" transform="scale(0.015625)"/>
       <path id="ArialMT-29" d="M 791 -1347 
L 388 -1347 
Q 1322 153 1322 1656 
Q 1322 2244 1188 2822 
Q 1081 3291 891 3722 
Q 769 4003 388 4659 
L 791 4659 
Q 1378 3875 1659 3084 
Q 1900 2403 1900 1659 
Q 1900 816 1576 28 
Q 1253 -759 791 -1347 
z
" transform="scale(0.015625)"/>
      </defs>
      <use xlink:href="#ArialMT-4e"/>
      <use xlink:href="#ArialMT-b7" x="72.216797"/>
      <use xlink:href="#ArialMT-b7" x="105.517578"/>
      <use xlink:href="#ArialMT-b7" x="138.818359"/>
      <use xlink:href="#ArialMT-4e" x="172.119141"/>
      <use xlink:href="#ArialMT-20" x="244.335938"/>
      <use xlink:href="#ArialMT-64" x="272.119141"/>
      <use xlink:href="#ArialMT-69" x="327.734375"/>
      <use xlink:href="#ArialMT-73" x="349.951172"/>
      <use xlink:href="#ArialMT-74" x="399.951172"/>
      <use xlink:href="#ArialMT-61" x="427.734375"/>
      <use xlink:href="#ArialMT-6e" x="483.349609"/>
      <use xlink:href="#ArialMT-63" x="538.964844"/>
      <use xlink:href="#ArialMT-65" x="588.964844"/>
      <use xlink:href="#ArialMT-20" x="644.580078"/>
      <use xlink:href="#ArialMT-28" x="672.363281"/>
      <use xlink:href="#ArialMT-c5" x="705.664062"/>
      <use xlink:href="#ArialMT-29" x="772.363281"/>
     </g>
    </g>
   </g>
   <g id="LineCollection_1">
    <path d="M 66.92236 18.79074 
L 96.19225 18.79074 
" clip-path="url(#p867477dc2e)" style="fill: none; stroke: #1f77b4; stroke-width: 1.5"/>
    <path d="M 184.001918 18.79074 
L 213.271807 18.79074 
" clip-path="url(#p867477dc2e)" style="fill: none; stroke: #1f77b4; stroke-width: 1.5"/>
    <path d="M 301.081476 18.79074 
L 330.351365 18.79074 
" clip-path="url(#p867477dc2e)" style="fill: none; stroke: #1f77b4; stroke-width: 1.5"/>
    <path d="M 418.161033 18.79074 
L 447.430923 18.79074 
" clip-path="url(#p867477dc2e)" style="fill: none; stroke: #1f77b4; stroke-width: 1.5"/>
   </g>
   <g id="LineCollection_2">
    <path d="M 66.92236 250.60554 
L 96.19225 250.60554 
" clip-path="url(#p867477dc2e)" style="fill: none; stroke: #1f77b4; stroke-width: 1.5"/>
    <path d="M 184.001918 250.60554 
L 213.271807 250.60554 
" clip-path="url(#p867477dc2e)" style="fill: none; stroke: #1f77b4; stroke-width: 1.5"/>
    <path d="M 301.081476 250.60554 
L 330.351365 250.60554 
" clip-path="url(#p867477dc2e)" style="fill: none; stroke: #1f77b4; stroke-width: 1.5"/>
    <path d="M 418.161033 250.60554 
L 447.430923 250.60554 
" clip-path="url(#p867477dc2e)" style="fill: none; stroke: #1f77b4; stroke-width: 1.5"/>
   </g>
   <g id="LineCollection_3">
    <path d="M 81.557305 250.60554 
L 81.557305 18.79074 
" clip-path="url(#p867477dc2e)" style="fill: none; stroke: #1f77b4; stroke-width: 1.5"/>
    <path d="M 198.636863 250.60554 
L 198.636863 18.79074 
" clip-path="url(#p867477dc2e)" style="fill: none; stroke: #1f77b4; stroke-width: 1.5"/>
    <path d="M 315.71642 250.60554 
L 315.71642 18.79074 
" clip-path="url(#p867477dc2e)" style="fill: none; stroke: #1f77b4; stroke-width: 1.5"/>
    <path d="M 432.795978 250.60554 
L 432.795978 18.79074 
" clip-path="url(#p867477dc2e)" style="fill: none; stroke: #1f77b4; stroke-width: 1.5"/>
   </g>
   <g id="patch_3">
    <path d="M 31.35125 262.19628 
L 31.35125 7.2 
" style="fill: none; stroke: #000000; stroke-width: 0.8; stroke-linejoin: miter; stroke-linecap: square"/>
   </g>
   <g id="patch_4">
    <path d="M 487.61669 262.19628 
L 487.61669 7.2 
" style="fill: none; stroke: #000000; stroke-width: 0.8; stroke-linejoin: miter; stroke-linecap: square"/>
   </g>
   <g id="patch_5">
    <path d="M 31.35125 262.19628 
L 487.61669 262.19628 
" style="fill: none; stroke: #000000; stroke-width: 0.8; stroke-linejoin: miter; stroke-linecap: square"/>
   </g>
   <g id="patch_6">
    <path d="M 31.35125 7.2 
L 487.61669 7.2 
" style="fill: none; stroke: #000000; stroke-width: 0.8; stroke-linejoin: miter; stroke-linecap: square"/>
   </g>
   <g id="legend_1">
    <g id="patch_7">
     <path d="M 238.33397 259.19628 
L 280.63397 259.19628 
Q 281.83397 259.19628 281.83397 257.99628 
L 281.83397 198.634717 
Q 281.83397 197.434717 280.63397 197.434717 
L 238.33397 197.434717 
Q 237.13397 197.434717 237.13397 198.634717 
L 237.13397 257.99628 
Q 237.13397 259.19628 238.33397 259.19628 
z
" style="fill: #ffffff; opacity: 0.8; stroke: #cccccc; stroke-linejoin: miter"/>
    </g>
    <g id="PathCollection_19">
     <g>
      <use xlink:href="#m2f98349cfa" x="245.53397" y="202.554405" style="fill: #b9153a; fill-opacity: 0.7; stroke: #b9153a; stroke-opacity: 0.7"/>
     </g>
    </g>
    <g id="text_13">
     <!-- 1 -->
     <g transform="translate(256.33397 204.129405) scale(0.06 -0.06)">
      <use xlink:href="#ArialMT-31"/>
     </g>
    </g>
    <g id="PathCollection_20">
     <g>
      <use xlink:href="#mef68c290a9" x="245.53397" y="211.041592" style="fill: #1177b0; fill-opacity: 0.7; stroke: #1177b0; stroke-opacity: 0.7"/>
     </g>
    </g>
    <g id="text_14">
     <!-- 2 -->
     <g transform="translate(256.33397 212.616592) scale(0.06 -0.06)">
      <use xlink:href="#ArialMT-32"/>
     </g>
    </g>
    <g id="PathCollection_21">
     <g>
      <use xlink:href="#md7cab6be14" x="245.53397" y="219.52878" style="fill: #005b30; fill-opacity: 0.7; stroke: #005b30; stroke-opacity: 0.7"/>
     </g>
    </g>
    <g id="text_15">
     <!-- 3 -->
     <g transform="translate(256.33397 221.10378) scale(0.06 -0.06)">
      <use xlink:href="#ArialMT-33"/>
     </g>
    </g>
    <g id="PathCollection_22">
     <g>
      <use xlink:href="#m6ce4f3afdb" x="245.53397" y="230.86128" style="fill: #005b30; fill-opacity: 0.7; stroke: #000000; stroke-opacity: 0.7"/>
     </g>
    </g>
    <g id="text_16">
     <!-- $1^{st}$ cage -->
     <g transform="translate(256.33397 232.43628) scale(0.06 -0.06)">
      <defs>
       <path id="ArialMT-67" d="M 319 -275 
L 866 -356 
Q 900 -609 1056 -725 
Q 1266 -881 1628 -881 
Q 2019 -881 2231 -725 
Q 2444 -569 2519 -288 
Q 2563 -116 2559 434 
Q 2191 0 1641 0 
Q 956 0 581 494 
Q 206 988 206 1678 
Q 206 2153 378 2554 
Q 550 2956 876 3175 
Q 1203 3394 1644 3394 
Q 2231 3394 2613 2919 
L 2613 3319 
L 3131 3319 
L 3131 450 
Q 3131 -325 2973 -648 
Q 2816 -972 2473 -1159 
Q 2131 -1347 1631 -1347 
Q 1038 -1347 672 -1080 
Q 306 -813 319 -275 
z
M 784 1719 
Q 784 1066 1043 766 
Q 1303 466 1694 466 
Q 2081 466 2343 764 
Q 2606 1063 2606 1700 
Q 2606 2309 2336 2618 
Q 2066 2928 1684 2928 
Q 1309 2928 1046 2623 
Q 784 2319 784 1719 
z
" transform="scale(0.015625)"/>
      </defs>
      <use xlink:href="#ArialMT-31" transform="translate(0 0.328125)"/>
      <use xlink:href="#ArialMT-73" transform="translate(57.357578 70.021875) scale(0.7)"/>
      <use xlink:href="#ArialMT-74" transform="translate(92.357578 70.021875) scale(0.7)"/>
      <use xlink:href="#ArialMT-20" transform="translate(116.783945 0.328125)"/>
      <use xlink:href="#ArialMT-63" transform="translate(144.567148 0.328125)"/>
      <use xlink:href="#ArialMT-61" transform="translate(194.567148 0.328125)"/>
      <use xlink:href="#ArialMT-67" transform="translate(250.182383 0.328125)"/>
      <use xlink:href="#ArialMT-65" transform="translate(305.797617 0.328125)"/>
     </g>
    </g>
    <g id="PathCollection_23">
     <g>
      <use xlink:href="#m9f46f19523" x="245.53397" y="242.38128" style="fill-opacity: 0.7; stroke: #005b30; stroke-opacity: 0.7"/>
     </g>
    </g>
    <g id="text_17">
     <!-- $2^{nd}$ cage -->
     <g transform="translate(256.33397 243.95628) scale(0.06 -0.06)">
      <use xlink:href="#ArialMT-32" transform="translate(0 0.201563)"/>
      <use xlink:href="#ArialMT-6e" transform="translate(57.357578 69.895313) scale(0.7)"/>
      <use xlink:href="#ArialMT-64" transform="translate(96.288242 69.895313) scale(0.7)"/>
      <use xlink:href="#ArialMT-20" transform="translate(140.197031 0.201563)"/>
      <use xlink:href="#ArialMT-63" transform="translate(167.980234 0.201563)"/>
      <use xlink:href="#ArialMT-61" transform="translate(217.980234 0.201563)"/>
      <use xlink:href="#ArialMT-67" transform="translate(273.595469 0.201563)"/>
      <use xlink:href="#ArialMT-65" transform="translate(329.210703 0.201563)"/>
     </g>
    </g>
    <g id="PathCollection_24">
     <g>
      <use xlink:href="#mdb4ae2a88e" x="245.53397" y="253.90128" style="fill: #ffffff; fill-opacity: 0.7; stroke: #005b30; stroke-opacity: 0.7"/>
     </g>
    </g>
    <g id="text_18">
     <!-- $3^{rd}$ cage -->
     <g transform="translate(256.33397 255.47628) scale(0.06 -0.06)">
      <use xlink:href="#ArialMT-33" transform="translate(0 0.201563)"/>
      <use xlink:href="#ArialMT-72" transform="translate(57.357578 69.895313) scale(0.7)"/>
      <use xlink:href="#ArialMT-64" transform="translate(80.668125 69.895313) scale(0.7)"/>
      <use xlink:href="#ArialMT-20" transform="translate(124.576914 0.201563)"/>
      <use xlink:href="#ArialMT-63" transform="translate(152.360117 0.201563)"/>
      <use xlink:href="#ArialMT-61" transform="translate(202.360117 0.201563)"/>
      <use xlink:href="#ArialMT-67" transform="translate(257.975352 0.201563)"/>
      <use xlink:href="#ArialMT-65" transform="translate(313.590586 0.201563)"/>
     </g>
    </g>
   </g>
  </g>
 </g>
 <defs>
  <clipPath id="p867477dc2e">
   <rect x="31.35125" y="7.2" width="456.26544" height="254.99628"/>
  </clipPath>
 </defs>
</svg>
