<?xml version="1.0" encoding="utf-8" standalone="no"?>
<!DOCTYPE svg PUBLIC "-//W3C//DTD SVG 1.1//EN"
  "http://www.w3.org/Graphics/SVG/1.1/DTD/svg11.dtd">
<svg xmlns:xlink="http://www.w3.org/1999/xlink" width="256.17125pt" height="186.132688pt" viewBox="0 0 256.17125 186.132688" xmlns="http://www.w3.org/2000/svg" version="1.1">
 <metadata>
  <rdf:RDF xmlns:dc="http://purl.org/dc/elements/1.1/" xmlns:cc="http://creativecommons.org/ns#" xmlns:rdf="http://www.w3.org/1999/02/22-rdf-syntax-ns#">
   <cc:Work>
    <dc:type rdf:resource="http://purl.org/dc/dcmitype/StillImage"/>
    <dc:date>2025-11-24T18:51:44.955549</dc:date>
    <dc:format>image/svg+xml</dc:format>
    <dc:creator>
     <cc:Agent>
      <dc:title>Matplotlib v3.9.2, https://matplotlib.org/</dc:title>
     </cc:Agent>
    </dc:creator>
   </cc:Work>
  </rdf:RDF>
 </metadata>
 <defs>
  <style type="text/css">*{stroke-linejoin: round; stroke-linecap: butt}</style>
 </defs>
 <g id="figure_1">
  <g id="patch_1">
   <path d="M 0 186.132688 
L 256.17125 186.132688 
L 256.17125 0 
L 0 0 
L 0 186.132688 
z
" style="fill: none"/>
  </g>
  <g id="axes_1">
   <g id="patch_2">
    <path d="M 31.35125 156.888 
L 248.97125 156.888 
L 248.97125 7.2 
L 31.35125 7.2 
L 31.35125 156.888 
z
" style="fill: none"/>
   </g>
   <g id="PolyCollection_1">
    <path d="M 68.751751 58.32224 
L 64.150749 58.32224 
L 62.842375 57.896371 
L 62.089275 57.470503 
L 61.820145 57.044635 
L 61.720769 56.618766 
L 61.64955 56.192898 
L 61.591504 55.767029 
L 61.544699 55.341161 
L 61.492392 54.915293 
L 61.423444 54.489424 
L 61.347673 54.063556 
L 61.283082 53.637687 
L 61.225575 53.211819 
L 61.159114 52.785951 
L 61.082152 52.360082 
L 61.004312 51.934214 
L 60.930819 51.508345 
L 60.865935 51.082477 
L 60.805169 50.656609 
L 60.733971 50.23074 
L 60.650528 49.804872 
L 60.561273 49.379004 
L 60.470914 48.953135 
L 60.377455 48.527267 
L 60.285819 48.101398 
L 60.182219 47.67553 
L 60.073018 47.249662 
L 59.954594 46.823793 
L 59.820852 46.397925 
L 59.703736 45.972056 
L 59.577209 45.546188 
L 59.45047 45.12032 
L 59.315917 44.694451 
L 59.176672 44.268583 
L 59.05107 43.842714 
L 58.897463 43.416846 
L 58.761308 42.990978 
L 58.603254 42.565109 
L 58.423126 42.139241 
L 58.228175 41.713373 
L 58.018178 41.287504 
L 57.809362 40.861636 
L 57.570223 40.435767 
L 57.307038 40.009899 
L 57.018482 39.584031 
L 56.721734 39.158162 
L 56.400905 38.732294 
L 56.04234 38.306425 
L 55.636002 37.880557 
L 55.172333 37.454689 
L 54.627015 37.02882 
L 53.950279 36.602952 
L 53.064955 36.177083 
L 51.863504 35.751215 
L 50.437134 35.325347 
L 49.332898 34.899478 
L 48.947823 34.47361 
L 48.90125 34.047742 
L 48.966025 33.621873 
L 49.601416 33.196005 
L 50.847679 32.770136 
L 52.129563 32.344268 
L 53.101905 31.9184 
L 53.810336 31.492531 
L 54.358055 31.066663 
L 54.807243 30.640794 
L 55.190058 30.214926 
L 55.531069 29.789058 
L 55.844194 29.363189 
L 56.129641 28.937321 
L 56.385314 28.511452 
L 56.619877 28.085584 
L 56.840264 27.659716 
L 57.039652 27.233847 
L 57.206178 26.807979 
L 57.356467 26.38211 
L 57.509053 25.956242 
L 57.658276 25.530374 
L 57.799551 25.104505 
L 57.943479 24.678637 
L 58.086495 24.252769 
L 58.215794 23.8269 
L 58.317404 23.401032 
L 58.391276 22.975163 
L 58.463651 22.549295 
L 58.560353 22.123427 
L 58.671699 21.697558 
L 58.772558 21.27169 
L 58.859894 20.845821 
L 58.942657 20.419953 
L 59.019149 19.994085 
L 59.086395 19.568216 
L 59.152332 19.142348 
L 59.221933 18.716479 
L 59.284116 18.290611 
L 59.341919 17.864743 
L 59.463516 17.438874 
L 59.87874 17.013006 
L 61.025633 16.587138 
L 62.993939 16.161269 
L 69.908561 16.161269 
L 69.908561 16.161269 
L 71.876867 16.587138 
L 73.02376 17.013006 
L 73.438984 17.438874 
L 73.560581 17.864743 
L 73.618384 18.290611 
L 73.680567 18.716479 
L 73.750168 19.142348 
L 73.816105 19.568216 
L 73.883351 19.994085 
L 73.959843 20.419953 
L 74.042606 20.845821 
L 74.129942 21.27169 
L 74.230801 21.697558 
L 74.342147 22.123427 
L 74.438849 22.549295 
L 74.511224 22.975163 
L 74.585096 23.401032 
L 74.686706 23.8269 
L 74.816005 24.252769 
L 74.959021 24.678637 
L 75.102949 25.104505 
L 75.244224 25.530374 
L 75.393447 25.956242 
L 75.546033 26.38211 
L 75.696322 26.807979 
L 75.862848 27.233847 
L 76.062236 27.659716 
L 76.282623 28.085584 
L 76.517186 28.511452 
L 76.772859 28.937321 
L 77.058306 29.363189 
L 77.371431 29.789058 
L 77.712442 30.214926 
L 78.095257 30.640794 
L 78.544445 31.066663 
L 79.092164 31.492531 
L 79.800595 31.9184 
L 80.772937 32.344268 
L 82.054821 32.770136 
L 83.301084 33.196005 
L 83.936475 33.621873 
L 84.00125 34.047742 
L 83.954677 34.47361 
L 83.569602 34.899478 
L 82.465366 35.325347 
L 81.038996 35.751215 
L 79.837545 36.177083 
L 78.952221 36.602952 
L 78.275485 37.02882 
L 77.730167 37.454689 
L 77.266498 37.880557 
L 76.86016 38.306425 
L 76.501595 38.732294 
L 76.180766 39.158162 
L 75.884018 39.584031 
L 75.595462 40.009899 
L 75.332277 40.435767 
L 75.093138 40.861636 
L 74.884322 41.287504 
L 74.674325 41.713373 
L 74.479374 42.139241 
L 74.299246 42.565109 
L 74.141192 42.990978 
L 74.005037 43.416846 
L 73.85143 43.842714 
L 73.725828 44.268583 
L 73.586583 44.694451 
L 73.45203 45.12032 
L 73.325291 45.546188 
L 73.198764 45.972056 
L 73.081648 46.397925 
L 72.947906 46.823793 
L 72.829482 47.249662 
L 72.720281 47.67553 
L 72.616681 48.101398 
L 72.525045 48.527267 
L 72.431586 48.953135 
L 72.341227 49.379004 
L 72.251972 49.804872 
L 72.168529 50.23074 
L 72.097331 50.656609 
L 72.036565 51.082477 
L 71.971681 51.508345 
L 71.898188 51.934214 
L 71.820348 52.360082 
L 71.743386 52.785951 
L 71.676925 53.211819 
L 71.619418 53.637687 
L 71.554827 54.063556 
L 71.479056 54.489424 
L 71.410108 54.915293 
L 71.357801 55.341161 
L 71.310996 55.767029 
L 71.25295 56.192898 
L 71.181731 56.618766 
L 71.082355 57.044635 
L 70.813225 57.470503 
L 70.060125 57.896371 
L 68.751751 58.32224 
z
" clip-path="url(#p1b3aa77a5f)" style="fill: #1f77b4; fill-opacity: 0.3"/>
   </g>
   <g id="PolyCollection_2">
    <path d="M 118.007393 150.084 
L 113.175107 150.084 
L 111.782387 149.437899 
L 110.961339 148.791798 
L 110.642334 148.145696 
L 110.515138 147.499595 
L 110.428571 146.853494 
L 110.34934 146.207393 
L 110.276682 145.561292 
L 110.203814 144.91519 
L 110.116227 144.269089 
L 110.016786 143.622988 
L 109.91025 142.976887 
L 109.806871 142.330785 
L 109.712726 141.684684 
L 109.633199 141.038583 
L 109.547791 140.392482 
L 109.446226 139.746381 
L 109.332297 139.100279 
L 109.211218 138.454178 
L 109.114266 137.808077 
L 109.010289 137.161976 
L 108.898477 136.515875 
L 108.762372 135.869773 
L 108.625197 135.223672 
L 108.491204 134.577571 
L 108.344103 133.93147 
L 108.193695 133.285369 
L 108.018859 132.639267 
L 107.845885 131.993166 
L 107.685599 131.347065 
L 107.519093 130.700964 
L 107.347555 130.054862 
L 107.14869 129.408761 
L 106.945082 128.76266 
L 106.730289 128.116559 
L 106.498277 127.470458 
L 106.25374 126.824356 
L 105.982747 126.178255 
L 105.700472 125.532154 
L 105.378724 124.886053 
L 105.025906 124.239952 
L 104.627503 123.59385 
L 104.182676 122.947749 
L 103.674905 122.301648 
L 103.08661 121.655547 
L 102.32821 121.009446 
L 101.277782 120.363344 
L 99.919028 119.717243 
L 98.707611 119.071142 
L 98.35819 118.425041 
L 98.839859 117.77894 
L 99.361744 117.132838 
L 99.411479 116.486737 
L 98.925818 115.840636 
L 98.213206 115.194535 
L 98.04125 114.548433 
L 98.882707 113.902332 
L 100.198236 113.256231 
L 101.312777 112.61013 
L 102.090245 111.964029 
L 102.662394 111.317927 
L 103.134378 110.671826 
L 103.546753 110.025725 
L 103.912046 109.379624 
L 104.243855 108.733523 
L 104.536897 108.087421 
L 104.798483 107.44132 
L 105.029606 106.795219 
L 105.242096 106.149118 
L 105.436754 105.503017 
L 105.636354 104.856915 
L 105.81753 104.210814 
L 105.980253 103.564713 
L 106.112083 102.918612 
L 106.239919 102.27251 
L 106.380004 101.626409 
L 106.524832 100.980308 
L 106.669733 100.334207 
L 106.808972 99.688106 
L 106.944108 99.042004 
L 107.061136 98.395903 
L 107.168901 97.749802 
L 107.257622 97.103701 
L 107.340388 96.4576 
L 107.427856 95.811498 
L 107.520759 95.165397 
L 107.612016 94.519296 
L 107.702199 93.873195 
L 107.780903 93.227094 
L 107.846284 92.580992 
L 107.905741 91.934891 
L 107.973021 91.28879 
L 108.052494 90.642689 
L 108.131294 89.996587 
L 108.194023 89.350486 
L 108.24071 88.704385 
L 108.336951 88.058284 
L 108.739231 87.412183 
L 109.924535 86.766081 
L 111.98672 86.11998 
L 119.19578 86.11998 
L 119.19578 86.11998 
L 121.257965 86.766081 
L 122.443269 87.412183 
L 122.845549 88.058284 
L 122.94179 88.704385 
L 122.988477 89.350486 
L 123.051206 89.996587 
L 123.130006 90.642689 
L 123.209479 91.28879 
L 123.276759 91.934891 
L 123.336216 92.580992 
L 123.401597 93.227094 
L 123.480301 93.873195 
L 123.570484 94.519296 
L 123.661741 95.165397 
L 123.754644 95.811498 
L 123.842112 96.4576 
L 123.924878 97.103701 
L 124.013599 97.749802 
L 124.121364 98.395903 
L 124.238392 99.042004 
L 124.373528 99.688106 
L 124.512767 100.334207 
L 124.657668 100.980308 
L 124.802496 101.626409 
L 124.942581 102.27251 
L 125.070417 102.918612 
L 125.202247 103.564713 
L 125.36497 104.210814 
L 125.546146 104.856915 
L 125.745746 105.503017 
L 125.940404 106.149118 
L 126.152894 106.795219 
L 126.384017 107.44132 
L 126.645603 108.087421 
L 126.938645 108.733523 
L 127.270454 109.379624 
L 127.635747 110.025725 
L 128.048122 110.671826 
L 128.520106 111.317927 
L 129.092255 111.964029 
L 129.869723 112.61013 
L 130.984264 113.256231 
L 132.299793 113.902332 
L 133.14125 114.548433 
L 132.969294 115.194535 
L 132.256682 115.840636 
L 131.771021 116.486737 
L 131.820756 117.132838 
L 132.342641 117.77894 
L 132.82431 118.425041 
L 132.474889 119.071142 
L 131.263472 119.717243 
L 129.904718 120.363344 
L 128.85429 121.009446 
L 128.09589 121.655547 
L 127.507595 122.301648 
L 126.999824 122.947749 
L 126.554997 123.59385 
L 126.156594 124.239952 
L 125.803776 124.886053 
L 125.482028 125.532154 
L 125.199753 126.178255 
L 124.92876 126.824356 
L 124.684223 127.470458 
L 124.452211 128.116559 
L 124.237418 128.76266 
L 124.03381 129.408761 
L 123.834945 130.054862 
L 123.663407 130.700964 
L 123.496901 131.347065 
L 123.336615 131.993166 
L 123.163641 132.639267 
L 122.988805 133.285369 
L 122.838397 133.93147 
L 122.691296 134.577571 
L 122.557303 135.223672 
L 122.420128 135.869773 
L 122.284023 136.515875 
L 122.172211 137.161976 
L 122.068234 137.808077 
L 121.971282 138.454178 
L 121.850203 139.100279 
L 121.736274 139.746381 
L 121.634709 140.392482 
L 121.549301 141.038583 
L 121.469774 141.684684 
L 121.375629 142.330785 
L 121.27225 142.976887 
L 121.165714 143.622988 
L 121.066273 144.269089 
L 120.978686 144.91519 
L 120.905818 145.561292 
L 120.83316 146.207393 
L 120.753929 146.853494 
L 120.667362 147.499595 
L 120.540166 148.145696 
L 120.221161 148.791798 
L 119.400113 149.437899 
L 118.007393 150.084 
z
" clip-path="url(#p1b3aa77a5f)" style="fill: #1f77b4; fill-opacity: 0.3"/>
   </g>
   <g id="PolyCollection_3">
    <path d="M 167.447436 52.28299 
L 162.015064 52.28299 
L 160.480401 51.896333 
L 159.571003 51.509677 
L 159.228172 51.12302 
L 159.111182 50.736364 
L 159.039093 50.349708 
L 158.964657 49.963051 
L 158.882971 49.576395 
L 158.804125 49.189738 
L 158.732637 48.803082 
L 158.663017 48.416425 
L 158.600267 48.029769 
L 158.534585 47.643112 
L 158.465676 47.256456 
L 158.373285 46.869799 
L 158.276786 46.483143 
L 158.182461 46.096486 
L 158.07509 45.70983 
L 157.981117 45.323174 
L 157.860446 44.936517 
L 157.759594 44.549861 
L 157.686053 44.163204 
L 157.569539 43.776548 
L 157.463311 43.389891 
L 157.345607 43.003235 
L 157.192502 42.616578 
L 157.089968 42.229922 
L 156.955857 41.843265 
L 156.789889 41.456609 
L 156.668916 41.069952 
L 156.509856 40.683296 
L 156.36098 40.29664 
L 156.233995 39.909983 
L 156.02301 39.523327 
L 155.807383 39.13667 
L 155.624619 38.750014 
L 155.384623 38.363357 
L 155.190436 37.976701 
L 154.988699 37.590044 
L 154.684867 37.203388 
L 154.379847 36.816731 
L 154.05522 36.430075 
L 153.689624 36.043418 
L 153.340633 35.656762 
L 152.89955 35.270105 
L 152.349353 34.883449 
L 151.673568 34.496793 
L 150.724559 34.110136 
L 149.502203 33.72348 
L 148.381221 33.336823 
L 148.096826 32.950167 
L 148.792168 32.56351 
L 149.746779 32.176854 
L 150.449658 31.790197 
L 150.853343 31.403541 
L 151.080204 31.016884 
L 151.212887 30.630228 
L 151.264896 30.243571 
L 151.230352 29.856915 
L 151.114042 29.470259 
L 150.919191 29.083602 
L 150.610774 28.696946 
L 150.112903 28.310289 
L 149.308503 27.923633 
L 148.174198 27.536976 
L 147.18914 27.15032 
L 147.18125 26.763663 
L 148.224654 26.377007 
L 149.528179 25.99035 
L 150.535681 25.603694 
L 151.23239 25.217037 
L 151.748892 24.830381 
L 152.187161 24.443725 
L 152.563861 24.057068 
L 152.887632 23.670412 
L 153.168274 23.283755 
L 153.418308 22.897099 
L 153.633945 22.510442 
L 153.83453 22.123786 
L 154.0242 21.737129 
L 154.205766 21.350473 
L 154.386839 20.963816 
L 154.553789 20.57716 
L 154.696737 20.190503 
L 154.828612 19.803847 
L 154.971316 19.41719 
L 155.114724 19.030534 
L 155.245805 18.643878 
L 155.363211 18.257221 
L 155.470136 17.870565 
L 155.570259 17.483908 
L 155.664436 17.097252 
L 155.742978 16.710595 
L 155.800053 16.323939 
L 155.85333 15.937282 
L 155.936509 15.550626 
L 156.115687 15.163969 
L 156.653844 14.777313 
L 158.079146 14.390656 
L 160.481319 14.004 
L 168.981181 14.004 
L 168.981181 14.004 
L 171.383354 14.390656 
L 172.808656 14.777313 
L 173.346813 15.163969 
L 173.525991 15.550626 
L 173.60917 15.937282 
L 173.662447 16.323939 
L 173.719522 16.710595 
L 173.798064 17.097252 
L 173.892241 17.483908 
L 173.992364 17.870565 
L 174.099289 18.257221 
L 174.216695 18.643878 
L 174.347776 19.030534 
L 174.491184 19.41719 
L 174.633888 19.803847 
L 174.765763 20.190503 
L 174.908711 20.57716 
L 175.075661 20.963816 
L 175.256734 21.350473 
L 175.4383 21.737129 
L 175.62797 22.123786 
L 175.828555 22.510442 
L 176.044192 22.897099 
L 176.294226 23.283755 
L 176.574868 23.670412 
L 176.898639 24.057068 
L 177.275339 24.443725 
L 177.713608 24.830381 
L 178.23011 25.217037 
L 178.926819 25.603694 
L 179.934321 25.99035 
L 181.237846 26.377007 
L 182.28125 26.763663 
L 182.27336 27.15032 
L 181.288302 27.536976 
L 180.153997 27.923633 
L 179.349597 28.310289 
L 178.851726 28.696946 
L 178.543309 29.083602 
L 178.348458 29.470259 
L 178.232148 29.856915 
L 178.197604 30.243571 
L 178.249613 30.630228 
L 178.382296 31.016884 
L 178.609157 31.403541 
L 179.012842 31.790197 
L 179.715721 32.176854 
L 180.670332 32.56351 
L 181.365674 32.950167 
L 181.081279 33.336823 
L 179.960297 33.72348 
L 178.737941 34.110136 
L 177.788932 34.496793 
L 177.113147 34.883449 
L 176.56295 35.270105 
L 176.121867 35.656762 
L 175.772876 36.043418 
L 175.40728 36.430075 
L 175.082653 36.816731 
L 174.777633 37.203388 
L 174.473801 37.590044 
L 174.272064 37.976701 
L 174.077877 38.363357 
L 173.837881 38.750014 
L 173.655117 39.13667 
L 173.43949 39.523327 
L 173.228505 39.909983 
L 173.10152 40.29664 
L 172.952644 40.683296 
L 172.793584 41.069952 
L 172.672611 41.456609 
L 172.506643 41.843265 
L 172.372532 42.229922 
L 172.269998 42.616578 
L 172.116893 43.003235 
L 171.999189 43.389891 
L 171.892961 43.776548 
L 171.776447 44.163204 
L 171.702906 44.549861 
L 171.602054 44.936517 
L 171.481383 45.323174 
L 171.38741 45.70983 
L 171.280039 46.096486 
L 171.185714 46.483143 
L 171.089215 46.869799 
L 170.996824 47.256456 
L 170.927915 47.643112 
L 170.862233 48.029769 
L 170.799483 48.416425 
L 170.729863 48.803082 
L 170.658375 49.189738 
L 170.579529 49.576395 
L 170.497843 49.963051 
L 170.423407 50.349708 
L 170.351318 50.736364 
L 170.234328 51.12302 
L 169.891497 51.509677 
L 168.982099 51.896333 
L 167.447436 52.28299 
z
" clip-path="url(#p1b3aa77a5f)" style="fill: #1f77b4; fill-opacity: 0.3"/>
   </g>
   <g id="PolyCollection_4">
    <path d="M 216.180243 148.659931 
L 211.562257 148.659931 
L 210.227054 147.907873 
L 209.449861 147.155815 
L 209.161575 146.403757 
L 209.049969 145.651699 
L 208.965815 144.899641 
L 208.883314 144.147583 
L 208.80364 143.395525 
L 208.72068 142.643467 
L 208.627497 141.891409 
L 208.537576 141.139351 
L 208.462006 140.387293 
L 208.389252 139.635235 
L 208.295552 138.883177 
L 208.186181 138.131119 
L 208.087343 137.379061 
L 207.989288 136.627003 
L 207.893976 135.874945 
L 207.781357 135.122887 
L 207.673986 134.370829 
L 207.553614 133.618771 
L 207.428517 132.866714 
L 207.298821 132.114656 
L 207.161561 131.362598 
L 207.047863 130.61054 
L 206.916887 129.858482 
L 206.779708 129.106424 
L 206.633904 128.354366 
L 206.478022 127.602308 
L 206.322496 126.85025 
L 206.134892 126.098192 
L 205.949684 125.346134 
L 205.759617 124.594076 
L 205.558622 123.842018 
L 205.345956 123.08996 
L 205.118925 122.337902 
L 204.900556 121.585844 
L 204.662027 120.833786 
L 204.39278 120.081728 
L 204.084623 119.32967 
L 203.757341 118.577612 
L 203.398445 117.825554 
L 203.000705 117.073497 
L 202.555697 116.321439 
L 202.064342 115.569381 
L 201.483919 114.817323 
L 200.741555 114.065265 
L 199.721068 113.313207 
L 198.38581 112.561149 
L 197.126468 111.809091 
L 196.681977 111.057033 
L 197.083412 110.304975 
L 197.542757 109.552917 
L 197.474189 108.800859 
L 196.867998 108.048801 
L 196.32125 107.296743 
L 196.643586 106.544685 
L 197.808857 105.792627 
L 199.07076 105.040569 
L 200.020311 104.288511 
L 200.697647 103.536453 
L 201.221872 102.784395 
L 201.6632 102.032337 
L 202.048047 101.28028 
L 202.383426 100.528222 
L 202.677388 99.776164 
L 202.955376 99.024106 
L 203.222446 98.272048 
L 203.458431 97.51999 
L 203.649771 96.767932 
L 203.807474 96.015874 
L 203.970735 95.263816 
L 204.145704 94.511758 
L 204.328244 93.7597 
L 204.48685 93.007642 
L 204.625709 92.255584 
L 204.754873 91.503526 
L 204.883456 90.751468 
L 204.997634 89.99941 
L 205.102177 89.247352 
L 205.21275 88.495294 
L 205.323182 87.743236 
L 205.421648 86.991178 
L 205.511827 86.23912 
L 205.60632 85.487063 
L 205.697964 84.735005 
L 205.779918 83.982947 
L 205.853152 83.230889 
L 205.925702 82.478831 
L 206.001166 81.726773 
L 206.079593 80.974715 
L 206.157871 80.222657 
L 206.229184 79.470599 
L 206.292329 78.718541 
L 206.352472 77.966483 
L 206.41755 77.214425 
L 206.537735 76.462367 
L 206.950034 75.710309 
L 208.142183 74.958251 
L 210.227056 74.206193 
L 217.515444 74.206193 
L 217.515444 74.206193 
L 219.600317 74.958251 
L 220.792466 75.710309 
L 221.204765 76.462367 
L 221.32495 77.214425 
L 221.390028 77.966483 
L 221.450171 78.718541 
L 221.513316 79.470599 
L 221.584629 80.222657 
L 221.662907 80.974715 
L 221.741334 81.726773 
L 221.816798 82.478831 
L 221.889348 83.230889 
L 221.962582 83.982947 
L 222.044536 84.735005 
L 222.13618 85.487063 
L 222.230673 86.23912 
L 222.320852 86.991178 
L 222.419318 87.743236 
L 222.52975 88.495294 
L 222.640323 89.247352 
L 222.744866 89.99941 
L 222.859044 90.751468 
L 222.987627 91.503526 
L 223.116791 92.255584 
L 223.25565 93.007642 
L 223.414256 93.7597 
L 223.596796 94.511758 
L 223.771765 95.263816 
L 223.935026 96.015874 
L 224.092729 96.767932 
L 224.284069 97.51999 
L 224.520054 98.272048 
L 224.787124 99.024106 
L 225.065112 99.776164 
L 225.359074 100.528222 
L 225.694453 101.28028 
L 226.0793 102.032337 
L 226.520628 102.784395 
L 227.044853 103.536453 
L 227.722189 104.288511 
L 228.67174 105.040569 
L 229.933643 105.792627 
L 231.098914 106.544685 
L 231.42125 107.296743 
L 230.874502 108.048801 
L 230.268311 108.800859 
L 230.199743 109.552917 
L 230.659088 110.304975 
L 231.060523 111.057033 
L 230.616032 111.809091 
L 229.35669 112.561149 
L 228.021432 113.313207 
L 227.000945 114.065265 
L 226.258581 114.817323 
L 225.678158 115.569381 
L 225.186803 116.321439 
L 224.741795 117.073497 
L 224.344055 117.825554 
L 223.985159 118.577612 
L 223.657877 119.32967 
L 223.34972 120.081728 
L 223.080473 120.833786 
L 222.841944 121.585844 
L 222.623575 122.337902 
L 222.396544 123.08996 
L 222.183878 123.842018 
L 221.982883 124.594076 
L 221.792816 125.346134 
L 221.607608 126.098192 
L 221.420004 126.85025 
L 221.264478 127.602308 
L 221.108596 128.354366 
L 220.962792 129.106424 
L 220.825613 129.858482 
L 220.694637 130.61054 
L 220.580939 131.362598 
L 220.443679 132.114656 
L 220.313983 132.866714 
L 220.188886 133.618771 
L 220.068514 134.370829 
L 219.961143 135.122887 
L 219.848524 135.874945 
L 219.753212 136.627003 
L 219.655157 137.379061 
L 219.556319 138.131119 
L 219.446948 138.883177 
L 219.353248 139.635235 
L 219.280494 140.387293 
L 219.204924 141.139351 
L 219.115003 141.891409 
L 219.02182 142.643467 
L 218.93886 143.395525 
L 218.859186 144.147583 
L 218.776685 144.899641 
L 218.692531 145.651699 
L 218.580925 146.403757 
L 218.292639 147.155815 
L 217.515446 147.907873 
L 216.180243 148.659931 
z
" clip-path="url(#p1b3aa77a5f)" style="fill: #1f77b4; fill-opacity: 0.3"/>
   </g>
   <g id="matplotlib.axis_1">
    <g id="xtick_1">
     <g id="line2d_1">
      <defs>
       <path id="m6c89381ec0" d="M 0 0 
L 0 3.5 
" style="stroke: #000000; stroke-width: 0.8"/>
      </defs>
      <g>
       <use xlink:href="#m6c89381ec0" x="66.45125" y="156.888" style="stroke: #000000; stroke-width: 0.8"/>
      </g>
     </g>
     <g id="text_1">
      <!-- a -->
      <g transform="translate(64.782969 168.182687) scale(0.06 -0.06)">
       <defs>
        <path id="Arial-ItalicMT-61" d="M 2450 413 
Q 2156 159 1884 42 
Q 1613 -75 1303 -75 
Q 844 -75 562 195 
Q 281 466 281 888 
Q 281 1166 407 1380 
Q 534 1594 743 1723 
Q 953 1853 1256 1909 
Q 1447 1947 1980 1969 
Q 2513 1991 2744 2081 
Q 2809 2313 2809 2466 
Q 2809 2663 2666 2775 
Q 2469 2931 2091 2931 
Q 1734 2931 1507 2773 
Q 1281 2616 1178 2325 
L 606 2375 
Q 781 2869 1161 3131 
Q 1541 3394 2119 3394 
Q 2734 3394 3094 3100 
Q 3369 2881 3369 2531 
Q 3369 2266 3291 1916 
L 3106 1091 
Q 3019 697 3019 450 
Q 3019 294 3088 0 
L 2516 0 
Q 2469 163 2450 413 
z
M 2659 1681 
Q 2541 1634 2405 1609 
Q 2269 1584 1950 1556 
Q 1456 1513 1253 1445 
Q 1050 1378 947 1231 
Q 844 1084 844 906 
Q 844 669 1008 516 
Q 1172 363 1475 363 
Q 1756 363 2015 511 
Q 2275 659 2425 925 
Q 2575 1191 2659 1681 
z
" transform="scale(0.015625)"/>
       </defs>
       <use xlink:href="#Arial-ItalicMT-61"/>
      </g>
     </g>
    </g>
    <g id="xtick_2">
     <g id="line2d_2">
      <g>
       <use xlink:href="#m6c89381ec0" x="115.59125" y="156.888" style="stroke: #000000; stroke-width: 0.8"/>
      </g>
     </g>
     <g id="text_2">
      <!-- b -->
      <g transform="translate(113.922969 168.182687) scale(0.06 -0.06)">
       <defs>
        <path id="Arial-ItalicMT-62" d="M 213 0 
L 1169 4581 
L 1734 4581 
L 1394 2944 
Q 1663 3191 1881 3292 
Q 2100 3394 2338 3394 
Q 2803 3394 3114 3047 
Q 3425 2700 3425 2038 
Q 3425 1597 3300 1231 
Q 3175 866 2990 617 
Q 2806 369 2609 220 
Q 2413 72 2206 -1 
Q 2000 -75 1809 -75 
Q 1481 -75 1231 98 
Q 981 272 841 628 
L 709 0 
L 213 0 
z
M 1050 1363 
L 1047 1256 
Q 1047 831 1250 609 
Q 1453 388 1756 388 
Q 2053 388 2301 595 
Q 2550 803 2709 1243 
Q 2869 1684 2869 2056 
Q 2869 2475 2667 2706 
Q 2466 2938 2169 2938 
Q 1863 2938 1606 2702 
Q 1350 2466 1178 1975 
Q 1050 1609 1050 1363 
z
" transform="scale(0.015625)"/>
       </defs>
       <use xlink:href="#Arial-ItalicMT-62"/>
      </g>
     </g>
    </g>
    <g id="xtick_3">
     <g id="line2d_3">
      <g>
       <use xlink:href="#m6c89381ec0" x="164.73125" y="156.888" style="stroke: #000000; stroke-width: 0.8"/>
      </g>
     </g>
     <g id="text_3">
      <!-- c -->
      <g transform="translate(163.23125 168.182687) scale(0.06 -0.06)">
       <defs>
        <path id="Arial-ItalicMT-63" d="M 2503 1209 
L 3069 1150 
Q 2856 528 2464 226 
Q 2072 -75 1572 -75 
Q 1031 -75 695 275 
Q 359 625 359 1253 
Q 359 1797 575 2322 
Q 791 2847 1192 3120 
Q 1594 3394 2109 3394 
Q 2644 3394 2956 3092 
Q 3269 2791 3269 2294 
L 2713 2256 
Q 2709 2572 2529 2750 
Q 2350 2928 2056 2928 
Q 1716 2928 1466 2712 
Q 1216 2497 1073 2058 
Q 931 1619 931 1213 
Q 931 788 1118 575 
Q 1306 363 1581 363 
Q 1856 363 2107 572 
Q 2359 781 2503 1209 
z
" transform="scale(0.015625)"/>
       </defs>
       <use xlink:href="#Arial-ItalicMT-63"/>
      </g>
     </g>
    </g>
    <g id="xtick_4">
     <g id="line2d_4">
      <g>
       <use xlink:href="#m6c89381ec0" x="213.87125" y="156.888" style="stroke: #000000; stroke-width: 0.8"/>
      </g>
     </g>
     <g id="text_4">
      <!-- d -->
      <g transform="translate(212.202969 168.182687) scale(0.06 -0.06)">
       <defs>
        <path id="Arial-ItalicMT-64" d="M 2450 481 
Q 1966 -75 1438 -75 
Q 966 -75 652 273 
Q 338 622 338 1284 
Q 338 1891 586 2392 
Q 834 2894 1207 3144 
Q 1581 3394 1956 3394 
Q 2575 3394 2891 2797 
L 3266 4581 
L 3828 4581 
L 2872 0 
L 2350 0 
L 2450 481 
z
M 900 1391 
Q 900 1044 969 844 
Q 1038 644 1203 511 
Q 1369 378 1600 378 
Q 1984 378 2297 778 
Q 2716 1309 2716 2091 
Q 2716 2484 2509 2706 
Q 2303 2928 1991 2928 
Q 1788 2928 1620 2837 
Q 1453 2747 1289 2530 
Q 1125 2313 1012 1978 
Q 900 1644 900 1391 
z
" transform="scale(0.015625)"/>
       </defs>
       <use xlink:href="#Arial-ItalicMT-64"/>
      </g>
     </g>
    </g>
    <g id="text_5">
     <!-- Distance type -->
     <g transform="translate(121.986406 177.669875) scale(0.06 -0.06)">
      <defs>
       <path id="ArialMT-44" d="M 494 0 
L 494 4581 
L 2072 4581 
Q 2606 4581 2888 4516 
Q 3281 4425 3559 4188 
Q 3922 3881 4101 3404 
Q 4281 2928 4281 2316 
Q 4281 1794 4159 1391 
Q 4038 988 3847 723 
Q 3656 459 3429 307 
Q 3203 156 2883 78 
Q 2563 0 2147 0 
L 494 0 
z
M 1100 541 
L 2078 541 
Q 2531 541 2789 625 
Q 3047 709 3200 863 
Q 3416 1078 3536 1442 
Q 3656 1806 3656 2325 
Q 3656 3044 3420 3430 
Q 3184 3816 2847 3947 
Q 2603 4041 2063 4041 
L 1100 4041 
L 1100 541 
z
" transform="scale(0.015625)"/>
       <path id="ArialMT-69" d="M 425 3934 
L 425 4581 
L 988 4581 
L 988 3934 
L 425 3934 
z
M 425 0 
L 425 3319 
L 988 3319 
L 988 0 
L 425 0 
z
" transform="scale(0.015625)"/>
       <path id="ArialMT-73" d="M 197 991 
L 753 1078 
Q 800 744 1014 566 
Q 1228 388 1613 388 
Q 2000 388 2187 545 
Q 2375 703 2375 916 
Q 2375 1106 2209 1216 
Q 2094 1291 1634 1406 
Q 1016 1563 777 1677 
Q 538 1791 414 1992 
Q 291 2194 291 2438 
Q 291 2659 392 2848 
Q 494 3038 669 3163 
Q 800 3259 1026 3326 
Q 1253 3394 1513 3394 
Q 1903 3394 2198 3281 
Q 2494 3169 2634 2976 
Q 2775 2784 2828 2463 
L 2278 2388 
Q 2241 2644 2061 2787 
Q 1881 2931 1553 2931 
Q 1166 2931 1000 2803 
Q 834 2675 834 2503 
Q 834 2394 903 2306 
Q 972 2216 1119 2156 
Q 1203 2125 1616 2013 
Q 2213 1853 2448 1751 
Q 2684 1650 2818 1456 
Q 2953 1263 2953 975 
Q 2953 694 2789 445 
Q 2625 197 2315 61 
Q 2006 -75 1616 -75 
Q 969 -75 630 194 
Q 291 463 197 991 
z
" transform="scale(0.015625)"/>
       <path id="ArialMT-74" d="M 1650 503 
L 1731 6 
Q 1494 -44 1306 -44 
Q 1000 -44 831 53 
Q 663 150 594 308 
Q 525 466 525 972 
L 525 2881 
L 113 2881 
L 113 3319 
L 525 3319 
L 525 4141 
L 1084 4478 
L 1084 3319 
L 1650 3319 
L 1650 2881 
L 1084 2881 
L 1084 941 
Q 1084 700 1114 631 
Q 1144 563 1211 522 
Q 1278 481 1403 481 
Q 1497 481 1650 503 
z
" transform="scale(0.015625)"/>
       <path id="ArialMT-61" d="M 2588 409 
Q 2275 144 1986 34 
Q 1697 -75 1366 -75 
Q 819 -75 525 192 
Q 231 459 231 875 
Q 231 1119 342 1320 
Q 453 1522 633 1644 
Q 813 1766 1038 1828 
Q 1203 1872 1538 1913 
Q 2219 1994 2541 2106 
Q 2544 2222 2544 2253 
Q 2544 2597 2384 2738 
Q 2169 2928 1744 2928 
Q 1347 2928 1158 2789 
Q 969 2650 878 2297 
L 328 2372 
Q 403 2725 575 2942 
Q 747 3159 1072 3276 
Q 1397 3394 1825 3394 
Q 2250 3394 2515 3294 
Q 2781 3194 2906 3042 
Q 3031 2891 3081 2659 
Q 3109 2516 3109 2141 
L 3109 1391 
Q 3109 606 3145 398 
Q 3181 191 3288 0 
L 2700 0 
Q 2613 175 2588 409 
z
M 2541 1666 
Q 2234 1541 1622 1453 
Q 1275 1403 1131 1340 
Q 988 1278 909 1158 
Q 831 1038 831 891 
Q 831 666 1001 516 
Q 1172 366 1500 366 
Q 1825 366 2078 508 
Q 2331 650 2450 897 
Q 2541 1088 2541 1459 
L 2541 1666 
z
" transform="scale(0.015625)"/>
       <path id="ArialMT-6e" d="M 422 0 
L 422 3319 
L 928 3319 
L 928 2847 
Q 1294 3394 1984 3394 
Q 2284 3394 2536 3286 
Q 2788 3178 2913 3003 
Q 3038 2828 3088 2588 
Q 3119 2431 3119 2041 
L 3119 0 
L 2556 0 
L 2556 2019 
Q 2556 2363 2490 2533 
Q 2425 2703 2258 2804 
Q 2091 2906 1866 2906 
Q 1506 2906 1245 2678 
Q 984 2450 984 1813 
L 984 0 
L 422 0 
z
" transform="scale(0.015625)"/>
       <path id="ArialMT-63" d="M 2588 1216 
L 3141 1144 
Q 3050 572 2676 248 
Q 2303 -75 1759 -75 
Q 1078 -75 664 370 
Q 250 816 250 1647 
Q 250 2184 428 2587 
Q 606 2991 970 3192 
Q 1334 3394 1763 3394 
Q 2303 3394 2647 3120 
Q 2991 2847 3088 2344 
L 2541 2259 
Q 2463 2594 2264 2762 
Q 2066 2931 1784 2931 
Q 1359 2931 1093 2626 
Q 828 2322 828 1663 
Q 828 994 1084 691 
Q 1341 388 1753 388 
Q 2084 388 2306 591 
Q 2528 794 2588 1216 
z
" transform="scale(0.015625)"/>
       <path id="ArialMT-65" d="M 2694 1069 
L 3275 997 
Q 3138 488 2766 206 
Q 2394 -75 1816 -75 
Q 1088 -75 661 373 
Q 234 822 234 1631 
Q 234 2469 665 2931 
Q 1097 3394 1784 3394 
Q 2450 3394 2872 2941 
Q 3294 2488 3294 1666 
Q 3294 1616 3291 1516 
L 816 1516 
Q 847 969 1125 678 
Q 1403 388 1819 388 
Q 2128 388 2347 550 
Q 2566 713 2694 1069 
z
M 847 1978 
L 2700 1978 
Q 2663 2397 2488 2606 
Q 2219 2931 1791 2931 
Q 1403 2931 1139 2672 
Q 875 2413 847 1978 
z
" transform="scale(0.015625)"/>
       <path id="ArialMT-20" transform="scale(0.015625)"/>
       <path id="ArialMT-79" d="M 397 -1278 
L 334 -750 
Q 519 -800 656 -800 
Q 844 -800 956 -737 
Q 1069 -675 1141 -563 
Q 1194 -478 1313 -144 
Q 1328 -97 1363 -6 
L 103 3319 
L 709 3319 
L 1400 1397 
Q 1534 1031 1641 628 
Q 1738 1016 1872 1384 
L 2581 3319 
L 3144 3319 
L 1881 -56 
Q 1678 -603 1566 -809 
Q 1416 -1088 1222 -1217 
Q 1028 -1347 759 -1347 
Q 597 -1347 397 -1278 
z
" transform="scale(0.015625)"/>
       <path id="ArialMT-70" d="M 422 -1272 
L 422 3319 
L 934 3319 
L 934 2888 
Q 1116 3141 1344 3267 
Q 1572 3394 1897 3394 
Q 2322 3394 2647 3175 
Q 2972 2956 3137 2557 
Q 3303 2159 3303 1684 
Q 3303 1175 3120 767 
Q 2938 359 2589 142 
Q 2241 -75 1856 -75 
Q 1575 -75 1351 44 
Q 1128 163 984 344 
L 984 -1272 
L 422 -1272 
z
M 931 1641 
Q 931 1000 1190 694 
Q 1450 388 1819 388 
Q 2194 388 2461 705 
Q 2728 1022 2728 1688 
Q 2728 2322 2467 2637 
Q 2206 2953 1844 2953 
Q 1484 2953 1207 2617 
Q 931 2281 931 1641 
z
" transform="scale(0.015625)"/>
      </defs>
      <use xlink:href="#ArialMT-44"/>
      <use xlink:href="#ArialMT-69" x="72.216797"/>
      <use xlink:href="#ArialMT-73" x="94.433594"/>
      <use xlink:href="#ArialMT-74" x="144.433594"/>
      <use xlink:href="#ArialMT-61" x="172.216797"/>
      <use xlink:href="#ArialMT-6e" x="227.832031"/>
      <use xlink:href="#ArialMT-63" x="283.447266"/>
      <use xlink:href="#ArialMT-65" x="333.447266"/>
      <use xlink:href="#ArialMT-20" x="389.0625"/>
      <use xlink:href="#ArialMT-74" x="416.845703"/>
      <use xlink:href="#ArialMT-79" x="444.628906"/>
      <use xlink:href="#ArialMT-70" x="494.628906"/>
      <use xlink:href="#ArialMT-65" x="550.244141"/>
     </g>
    </g>
   </g>
   <g id="matplotlib.axis_2">
    <g id="ytick_1">
     <g id="line2d_5">
      <path d="M 31.35125 151.490306 
L 248.97125 151.490306 
" clip-path="url(#p1b3aa77a5f)" style="fill: none; stroke: #b0b0b0; stroke-opacity: 0.3; stroke-width: 0.8; stroke-linecap: square"/>
     </g>
     <g id="line2d_6">
      <defs>
       <path id="m193056254d" d="M 0 0 
L -3.5 0 
" style="stroke: #000000; stroke-width: 0.8"/>
      </defs>
      <g>
       <use xlink:href="#m193056254d" x="31.35125" y="151.490306" style="stroke: #000000; stroke-width: 0.8"/>
      </g>
     </g>
     <g id="text_6">
      <!-- 6 -->
      <g transform="translate(21.014688 153.63765) scale(0.06 -0.06)">
       <defs>
        <path id="ArialMT-36" d="M 3184 3459 
L 2625 3416 
Q 2550 3747 2413 3897 
Q 2184 4138 1850 4138 
Q 1581 4138 1378 3988 
Q 1113 3794 959 3422 
Q 806 3050 800 2363 
Q 1003 2672 1297 2822 
Q 1591 2972 1913 2972 
Q 2475 2972 2870 2558 
Q 3266 2144 3266 1488 
Q 3266 1056 3080 686 
Q 2894 316 2569 119 
Q 2244 -78 1831 -78 
Q 1128 -78 684 439 
Q 241 956 241 2144 
Q 241 3472 731 4075 
Q 1159 4600 1884 4600 
Q 2425 4600 2770 4297 
Q 3116 3994 3184 3459 
z
M 888 1484 
Q 888 1194 1011 928 
Q 1134 663 1356 523 
Q 1578 384 1822 384 
Q 2178 384 2434 671 
Q 2691 959 2691 1453 
Q 2691 1928 2437 2201 
Q 2184 2475 1800 2475 
Q 1419 2475 1153 2201 
Q 888 1928 888 1484 
z
" transform="scale(0.015625)"/>
       </defs>
       <use xlink:href="#ArialMT-36"/>
      </g>
     </g>
    </g>
    <g id="ytick_2">
     <g id="line2d_7">
      <path d="M 31.35125 127.086151 
L 248.97125 127.086151 
" clip-path="url(#p1b3aa77a5f)" style="fill: none; stroke: #b0b0b0; stroke-opacity: 0.3; stroke-width: 0.8; stroke-linecap: square"/>
     </g>
     <g id="line2d_8">
      <g>
       <use xlink:href="#m193056254d" x="31.35125" y="127.086151" style="stroke: #000000; stroke-width: 0.8"/>
      </g>
     </g>
     <g id="text_7">
      <!-- 8 -->
      <g transform="translate(21.014688 129.233495) scale(0.06 -0.06)">
       <defs>
        <path id="ArialMT-38" d="M 1131 2484 
Q 781 2613 612 2850 
Q 444 3088 444 3419 
Q 444 3919 803 4259 
Q 1163 4600 1759 4600 
Q 2359 4600 2725 4251 
Q 3091 3903 3091 3403 
Q 3091 3084 2923 2848 
Q 2756 2613 2416 2484 
Q 2838 2347 3058 2040 
Q 3278 1734 3278 1309 
Q 3278 722 2862 322 
Q 2447 -78 1769 -78 
Q 1091 -78 675 323 
Q 259 725 259 1325 
Q 259 1772 486 2073 
Q 713 2375 1131 2484 
z
M 1019 3438 
Q 1019 3113 1228 2906 
Q 1438 2700 1772 2700 
Q 2097 2700 2305 2904 
Q 2513 3109 2513 3406 
Q 2513 3716 2298 3927 
Q 2084 4138 1766 4138 
Q 1444 4138 1231 3931 
Q 1019 3725 1019 3438 
z
M 838 1322 
Q 838 1081 952 856 
Q 1066 631 1291 507 
Q 1516 384 1775 384 
Q 2178 384 2440 643 
Q 2703 903 2703 1303 
Q 2703 1709 2433 1975 
Q 2163 2241 1756 2241 
Q 1359 2241 1098 1978 
Q 838 1716 838 1322 
z
" transform="scale(0.015625)"/>
       </defs>
       <use xlink:href="#ArialMT-38"/>
      </g>
     </g>
    </g>
    <g id="ytick_3">
     <g id="line2d_9">
      <path d="M 31.35125 102.681996 
L 248.97125 102.681996 
" clip-path="url(#p1b3aa77a5f)" style="fill: none; stroke: #b0b0b0; stroke-opacity: 0.3; stroke-width: 0.8; stroke-linecap: square"/>
     </g>
     <g id="line2d_10">
      <g>
       <use xlink:href="#m193056254d" x="31.35125" y="102.681996" style="stroke: #000000; stroke-width: 0.8"/>
      </g>
     </g>
     <g id="text_8">
      <!-- 10 -->
      <g transform="translate(17.678125 104.82934) scale(0.06 -0.06)">
       <defs>
        <path id="ArialMT-31" d="M 2384 0 
L 1822 0 
L 1822 3584 
Q 1619 3391 1289 3197 
Q 959 3003 697 2906 
L 697 3450 
Q 1169 3672 1522 3987 
Q 1875 4303 2022 4600 
L 2384 4600 
L 2384 0 
z
" transform="scale(0.015625)"/>
        <path id="ArialMT-30" d="M 266 2259 
Q 266 3072 433 3567 
Q 600 4063 929 4331 
Q 1259 4600 1759 4600 
Q 2128 4600 2406 4451 
Q 2684 4303 2865 4023 
Q 3047 3744 3150 3342 
Q 3253 2941 3253 2259 
Q 3253 1453 3087 958 
Q 2922 463 2592 192 
Q 2263 -78 1759 -78 
Q 1097 -78 719 397 
Q 266 969 266 2259 
z
M 844 2259 
Q 844 1131 1108 757 
Q 1372 384 1759 384 
Q 2147 384 2411 759 
Q 2675 1134 2675 2259 
Q 2675 3391 2411 3762 
Q 2147 4134 1753 4134 
Q 1366 4134 1134 3806 
Q 844 3388 844 2259 
z
" transform="scale(0.015625)"/>
       </defs>
       <use xlink:href="#ArialMT-31"/>
       <use xlink:href="#ArialMT-30" x="55.615234"/>
      </g>
     </g>
    </g>
    <g id="ytick_4">
     <g id="line2d_11">
      <path d="M 31.35125 78.277841 
L 248.97125 78.277841 
" clip-path="url(#p1b3aa77a5f)" style="fill: none; stroke: #b0b0b0; stroke-opacity: 0.3; stroke-width: 0.8; stroke-linecap: square"/>
     </g>
     <g id="line2d_12">
      <g>
       <use xlink:href="#m193056254d" x="31.35125" y="78.277841" style="stroke: #000000; stroke-width: 0.8"/>
      </g>
     </g>
     <g id="text_9">
      <!-- 12 -->
      <g transform="translate(17.678125 80.425185) scale(0.06 -0.06)">
       <defs>
        <path id="ArialMT-32" d="M 3222 541 
L 3222 0 
L 194 0 
Q 188 203 259 391 
Q 375 700 629 1000 
Q 884 1300 1366 1694 
Q 2113 2306 2375 2664 
Q 2638 3022 2638 3341 
Q 2638 3675 2398 3904 
Q 2159 4134 1775 4134 
Q 1369 4134 1125 3890 
Q 881 3647 878 3216 
L 300 3275 
Q 359 3922 746 4261 
Q 1134 4600 1788 4600 
Q 2447 4600 2831 4234 
Q 3216 3869 3216 3328 
Q 3216 3053 3103 2787 
Q 2991 2522 2730 2228 
Q 2469 1934 1863 1422 
Q 1356 997 1212 845 
Q 1069 694 975 541 
L 3222 541 
z
" transform="scale(0.015625)"/>
       </defs>
       <use xlink:href="#ArialMT-31"/>
       <use xlink:href="#ArialMT-32" x="55.615234"/>
      </g>
     </g>
    </g>
    <g id="ytick_5">
     <g id="line2d_13">
      <path d="M 31.35125 53.873686 
L 248.97125 53.873686 
" clip-path="url(#p1b3aa77a5f)" style="fill: none; stroke: #b0b0b0; stroke-opacity: 0.3; stroke-width: 0.8; stroke-linecap: square"/>
     </g>
     <g id="line2d_14">
      <g>
       <use xlink:href="#m193056254d" x="31.35125" y="53.873686" style="stroke: #000000; stroke-width: 0.8"/>
      </g>
     </g>
     <g id="text_10">
      <!-- 14 -->
      <g transform="translate(17.678125 56.02103) scale(0.06 -0.06)">
       <defs>
        <path id="ArialMT-34" d="M 2069 0 
L 2069 1097 
L 81 1097 
L 81 1613 
L 2172 4581 
L 2631 4581 
L 2631 1613 
L 3250 1613 
L 3250 1097 
L 2631 1097 
L 2631 0 
L 2069 0 
z
M 2069 1613 
L 2069 3678 
L 634 1613 
L 2069 1613 
z
" transform="scale(0.015625)"/>
       </defs>
       <use xlink:href="#ArialMT-31"/>
       <use xlink:href="#ArialMT-34" x="55.615234"/>
      </g>
     </g>
    </g>
    <g id="ytick_6">
     <g id="line2d_15">
      <path d="M 31.35125 29.469531 
L 248.97125 29.469531 
" clip-path="url(#p1b3aa77a5f)" style="fill: none; stroke: #b0b0b0; stroke-opacity: 0.3; stroke-width: 0.8; stroke-linecap: square"/>
     </g>
     <g id="line2d_16">
      <g>
       <use xlink:href="#m193056254d" x="31.35125" y="29.469531" style="stroke: #000000; stroke-width: 0.8"/>
      </g>
     </g>
     <g id="text_11">
      <!-- 16 -->
      <g transform="translate(17.678125 31.616875) scale(0.06 -0.06)">
       <use xlink:href="#ArialMT-31"/>
       <use xlink:href="#ArialMT-36" x="55.615234"/>
      </g>
     </g>
    </g>
    <g id="text_12">
     <!-- N···N distance (Å) -->
     <g transform="translate(12.415313 106.21275) rotate(-90) scale(0.06 -0.06)">
      <defs>
       <path id="ArialMT-4e" d="M 488 0 
L 488 4581 
L 1109 4581 
L 3516 984 
L 3516 4581 
L 4097 4581 
L 4097 0 
L 3475 0 
L 1069 3600 
L 1069 0 
L 488 0 
z
" transform="scale(0.015625)"/>
       <path id="ArialMT-b7" d="M 744 1991 
L 744 2631 
L 1384 2631 
L 1384 1991 
L 744 1991 
z
" transform="scale(0.015625)"/>
       <path id="ArialMT-64" d="M 2575 0 
L 2575 419 
Q 2259 -75 1647 -75 
Q 1250 -75 917 144 
Q 584 363 401 755 
Q 219 1147 219 1656 
Q 219 2153 384 2558 
Q 550 2963 881 3178 
Q 1213 3394 1622 3394 
Q 1922 3394 2156 3267 
Q 2391 3141 2538 2938 
L 2538 4581 
L 3097 4581 
L 3097 0 
L 2575 0 
z
M 797 1656 
Q 797 1019 1065 703 
Q 1334 388 1700 388 
Q 2069 388 2326 689 
Q 2584 991 2584 1609 
Q 2584 2291 2321 2609 
Q 2059 2928 1675 2928 
Q 1300 2928 1048 2622 
Q 797 2316 797 1656 
z
" transform="scale(0.015625)"/>
       <path id="ArialMT-28" d="M 1497 -1347 
Q 1031 -759 709 28 
Q 388 816 388 1659 
Q 388 2403 628 3084 
Q 909 3875 1497 4659 
L 1900 4659 
Q 1522 4009 1400 3731 
Q 1209 3300 1100 2831 
Q 966 2247 966 1656 
Q 966 153 1900 -1347 
L 1497 -1347 
z
" transform="scale(0.015625)"/>
       <path id="ArialMT-c5" d="M -9 0 
L 1750 4581 
L 2403 4581 
L 4278 0 
L 3588 0 
L 3053 1388 
L 1138 1388 
L 634 0 
L -9 0 
z
M 1313 1881 
L 2866 1881 
L 2388 3150 
Q 2169 3728 2063 4100 
Q 1975 3659 1816 3225 
L 1313 1881 
z
M 1503 5003 
Q 1503 5231 1670 5397 
Q 1838 5563 2066 5563 
Q 2297 5563 2462 5395 
Q 2628 5228 2628 4991 
Q 2628 4750 2462 4584 
Q 2297 4419 2069 4419 
Q 1834 4419 1668 4586 
Q 1503 4753 1503 5003 
z
M 1741 5000 
Q 1741 4853 1839 4753 
Q 1938 4653 2072 4653 
Q 2206 4653 2304 4753 
Q 2403 4853 2403 4994 
Q 2403 5135 2306 5235 
Q 2209 5335 2072 5335 
Q 1938 5335 1839 5236 
Q 1741 5138 1741 5000 
z
" transform="scale(0.015625)"/>
       <path id="ArialMT-29" d="M 791 -1347 
L 388 -1347 
Q 1322 153 1322 1656 
Q 1322 2244 1188 2822 
Q 1081 3291 891 3722 
Q 769 4003 388 4659 
L 791 4659 
Q 1378 3875 1659 3084 
Q 1900 2403 1900 1659 
Q 1900 816 1576 28 
Q 1253 -759 791 -1347 
z
" transform="scale(0.015625)"/>
      </defs>
      <use xlink:href="#ArialMT-4e"/>
      <use xlink:href="#ArialMT-b7" x="72.216797"/>
      <use xlink:href="#ArialMT-b7" x="105.517578"/>
      <use xlink:href="#ArialMT-b7" x="138.818359"/>
      <use xlink:href="#ArialMT-4e" x="172.119141"/>
      <use xlink:href="#ArialMT-20" x="244.335938"/>
      <use xlink:href="#ArialMT-64" x="272.119141"/>
      <use xlink:href="#ArialMT-69" x="327.734375"/>
      <use xlink:href="#ArialMT-73" x="349.951172"/>
      <use xlink:href="#ArialMT-74" x="399.951172"/>
      <use xlink:href="#ArialMT-61" x="427.734375"/>
      <use xlink:href="#ArialMT-6e" x="483.349609"/>
      <use xlink:href="#ArialMT-63" x="538.964844"/>
      <use xlink:href="#ArialMT-65" x="588.964844"/>
      <use xlink:href="#ArialMT-20" x="644.580078"/>
      <use xlink:href="#ArialMT-28" x="672.363281"/>
      <use xlink:href="#ArialMT-c5" x="705.664062"/>
      <use xlink:href="#ArialMT-29" x="772.363281"/>
     </g>
    </g>
   </g>
   <g id="LineCollection_1">
    <path d="M 57.67625 16.161269 
L 75.22625 16.161269 
" clip-path="url(#p1b3aa77a5f)" style="fill: none; stroke: #1f77b4; stroke-width: 1.5"/>
    <path d="M 106.81625 86.11998 
L 124.36625 86.11998 
" clip-path="url(#p1b3aa77a5f)" style="fill: none; stroke: #1f77b4; stroke-width: 1.5"/>
    <path d="M 155.95625 14.004 
L 173.50625 14.004 
" clip-path="url(#p1b3aa77a5f)" style="fill: none; stroke: #1f77b4; stroke-width: 1.5"/>
    <path d="M 205.09625 74.206193 
L 222.64625 74.206193 
" clip-path="url(#p1b3aa77a5f)" style="fill: none; stroke: #1f77b4; stroke-width: 1.5"/>
   </g>
   <g id="LineCollection_2">
    <path d="M 57.67625 58.32224 
L 75.22625 58.32224 
" clip-path="url(#p1b3aa77a5f)" style="fill: none; stroke: #1f77b4; stroke-width: 1.5"/>
    <path d="M 106.81625 150.084 
L 124.36625 150.084 
" clip-path="url(#p1b3aa77a5f)" style="fill: none; stroke: #1f77b4; stroke-width: 1.5"/>
    <path d="M 155.95625 52.28299 
L 173.50625 52.28299 
" clip-path="url(#p1b3aa77a5f)" style="fill: none; stroke: #1f77b4; stroke-width: 1.5"/>
    <path d="M 205.09625 148.659931 
L 222.64625 148.659931 
" clip-path="url(#p1b3aa77a5f)" style="fill: none; stroke: #1f77b4; stroke-width: 1.5"/>
   </g>
   <g id="LineCollection_3">
    <path d="M 66.45125 58.32224 
L 66.45125 16.161269 
" clip-path="url(#p1b3aa77a5f)" style="fill: none; stroke: #1f77b4; stroke-width: 1.5"/>
    <path d="M 115.59125 150.084 
L 115.59125 86.11998 
" clip-path="url(#p1b3aa77a5f)" style="fill: none; stroke: #1f77b4; stroke-width: 1.5"/>
    <path d="M 164.73125 52.28299 
L 164.73125 14.004 
" clip-path="url(#p1b3aa77a5f)" style="fill: none; stroke: #1f77b4; stroke-width: 1.5"/>
    <path d="M 213.87125 148.659931 
L 213.87125 74.206193 
" clip-path="url(#p1b3aa77a5f)" style="fill: none; stroke: #1f77b4; stroke-width: 1.5"/>
   </g>
   <g id="LineCollection_4">
    <path d="M 57.67625 34.540877 
L 75.22625 34.540877 
" clip-path="url(#p1b3aa77a5f)" style="fill: none; stroke: #1f77b4; stroke-width: 1.5"/>
    <path d="M 106.81625 115.80888 
L 124.36625 115.80888 
" clip-path="url(#p1b3aa77a5f)" style="fill: none; stroke: #1f77b4; stroke-width: 1.5"/>
    <path d="M 155.95625 30.663557 
L 173.50625 30.663557 
" clip-path="url(#p1b3aa77a5f)" style="fill: none; stroke: #1f77b4; stroke-width: 1.5"/>
    <path d="M 205.09625 108.301343 
L 222.64625 108.301343 
" clip-path="url(#p1b3aa77a5f)" style="fill: none; stroke: #1f77b4; stroke-width: 1.5"/>
   </g>
   <g id="patch_3">
    <path d="M 31.35125 156.888 
L 31.35125 7.2 
" style="fill: none; stroke: #000000; stroke-width: 0.8; stroke-linejoin: miter; stroke-linecap: square"/>
   </g>
   <g id="patch_4">
    <path d="M 248.97125 156.888 
L 248.97125 7.2 
" style="fill: none; stroke: #000000; stroke-width: 0.8; stroke-linejoin: miter; stroke-linecap: square"/>
   </g>
   <g id="patch_5">
    <path d="M 31.35125 156.888 
L 248.97125 156.888 
" style="fill: none; stroke: #000000; stroke-width: 0.8; stroke-linejoin: miter; stroke-linecap: square"/>
   </g>
   <g id="patch_6">
    <path d="M 31.35125 7.2 
L 248.97125 7.2 
" style="fill: none; stroke: #000000; stroke-width: 0.8; stroke-linejoin: miter; stroke-linecap: square"/>
   </g>
   <g id="text_13">
    <!-- Median: 15.58 -->
    <g transform="translate(47.439219 32.738273) scale(0.06 -0.06)">
     <defs>
      <path id="ArialMT-4d" d="M 475 0 
L 475 4581 
L 1388 4581 
L 2472 1338 
Q 2622 884 2691 659 
Q 2769 909 2934 1394 
L 4031 4581 
L 4847 4581 
L 4847 0 
L 4263 0 
L 4263 3834 
L 2931 0 
L 2384 0 
L 1059 3900 
L 1059 0 
L 475 0 
z
" transform="scale(0.015625)"/>
      <path id="ArialMT-3a" d="M 578 2678 
L 578 3319 
L 1219 3319 
L 1219 2678 
L 578 2678 
z
M 578 0 
L 578 641 
L 1219 641 
L 1219 0 
L 578 0 
z
" transform="scale(0.015625)"/>
      <path id="ArialMT-35" d="M 266 1200 
L 856 1250 
Q 922 819 1161 601 
Q 1400 384 1738 384 
Q 2144 384 2425 690 
Q 2706 997 2706 1503 
Q 2706 1984 2436 2262 
Q 2166 2541 1728 2541 
Q 1456 2541 1237 2417 
Q 1019 2294 894 2097 
L 366 2166 
L 809 4519 
L 3088 4519 
L 3088 3981 
L 1259 3981 
L 1013 2750 
Q 1425 3038 1878 3038 
Q 2478 3038 2890 2622 
Q 3303 2206 3303 1553 
Q 3303 931 2941 478 
Q 2500 -78 1738 -78 
Q 1113 -78 717 272 
Q 322 622 266 1200 
z
" transform="scale(0.015625)"/>
      <path id="ArialMT-2e" d="M 581 0 
L 581 641 
L 1222 641 
L 1222 0 
L 581 0 
z
" transform="scale(0.015625)"/>
     </defs>
     <use xlink:href="#ArialMT-4d"/>
     <use xlink:href="#ArialMT-65" x="83.300781"/>
     <use xlink:href="#ArialMT-64" x="138.916016"/>
     <use xlink:href="#ArialMT-69" x="194.53125"/>
     <use xlink:href="#ArialMT-61" x="216.748047"/>
     <use xlink:href="#ArialMT-6e" x="272.363281"/>
     <use xlink:href="#ArialMT-3a" x="327.978516"/>
     <use xlink:href="#ArialMT-20" x="355.761719"/>
     <use xlink:href="#ArialMT-31" x="383.544922"/>
     <use xlink:href="#ArialMT-35" x="439.160156"/>
     <use xlink:href="#ArialMT-2e" x="494.775391"/>
     <use xlink:href="#ArialMT-35" x="522.558594"/>
     <use xlink:href="#ArialMT-38" x="578.173828"/>
    </g>
   </g>
   <g id="text_14">
    <!-- Median: 8.92 -->
    <g transform="translate(98.2475 114.006276) scale(0.06 -0.06)">
     <defs>
      <path id="ArialMT-39" d="M 350 1059 
L 891 1109 
Q 959 728 1153 556 
Q 1347 384 1650 384 
Q 1909 384 2104 503 
Q 2300 622 2425 820 
Q 2550 1019 2634 1356 
Q 2719 1694 2719 2044 
Q 2719 2081 2716 2156 
Q 2547 1888 2255 1720 
Q 1963 1553 1622 1553 
Q 1053 1553 659 1965 
Q 266 2378 266 3053 
Q 266 3750 677 4175 
Q 1088 4600 1706 4600 
Q 2153 4600 2523 4359 
Q 2894 4119 3086 3673 
Q 3278 3228 3278 2384 
Q 3278 1506 3087 986 
Q 2897 466 2520 194 
Q 2144 -78 1638 -78 
Q 1100 -78 759 220 
Q 419 519 350 1059 
z
M 2653 3081 
Q 2653 3566 2395 3850 
Q 2138 4134 1775 4134 
Q 1400 4134 1122 3828 
Q 844 3522 844 3034 
Q 844 2597 1108 2323 
Q 1372 2050 1759 2050 
Q 2150 2050 2401 2323 
Q 2653 2597 2653 3081 
z
" transform="scale(0.015625)"/>
     </defs>
     <use xlink:href="#ArialMT-4d"/>
     <use xlink:href="#ArialMT-65" x="83.300781"/>
     <use xlink:href="#ArialMT-64" x="138.916016"/>
     <use xlink:href="#ArialMT-69" x="194.53125"/>
     <use xlink:href="#ArialMT-61" x="216.748047"/>
     <use xlink:href="#ArialMT-6e" x="272.363281"/>
     <use xlink:href="#ArialMT-3a" x="327.978516"/>
     <use xlink:href="#ArialMT-20" x="355.761719"/>
     <use xlink:href="#ArialMT-38" x="383.544922"/>
     <use xlink:href="#ArialMT-2e" x="439.160156"/>
     <use xlink:href="#ArialMT-39" x="466.943359"/>
     <use xlink:href="#ArialMT-32" x="522.558594"/>
    </g>
   </g>
   <g id="text_15">
    <!-- Median: 15.90 -->
    <g transform="translate(145.719219 28.860953) scale(0.06 -0.06)">
     <use xlink:href="#ArialMT-4d"/>
     <use xlink:href="#ArialMT-65" x="83.300781"/>
     <use xlink:href="#ArialMT-64" x="138.916016"/>
     <use xlink:href="#ArialMT-69" x="194.53125"/>
     <use xlink:href="#ArialMT-61" x="216.748047"/>
     <use xlink:href="#ArialMT-6e" x="272.363281"/>
     <use xlink:href="#ArialMT-3a" x="327.978516"/>
     <use xlink:href="#ArialMT-20" x="355.761719"/>
     <use xlink:href="#ArialMT-31" x="383.544922"/>
     <use xlink:href="#ArialMT-35" x="439.160156"/>
     <use xlink:href="#ArialMT-2e" x="494.775391"/>
     <use xlink:href="#ArialMT-39" x="522.558594"/>
     <use xlink:href="#ArialMT-30" x="578.173828"/>
    </g>
   </g>
   <g id="text_16">
    <!-- Median: 9.54 -->
    <g transform="translate(196.5275 106.498739) scale(0.06 -0.06)">
     <use xlink:href="#ArialMT-4d"/>
     <use xlink:href="#ArialMT-65" x="83.300781"/>
     <use xlink:href="#ArialMT-64" x="138.916016"/>
     <use xlink:href="#ArialMT-69" x="194.53125"/>
     <use xlink:href="#ArialMT-61" x="216.748047"/>
     <use xlink:href="#ArialMT-6e" x="272.363281"/>
     <use xlink:href="#ArialMT-3a" x="327.978516"/>
     <use xlink:href="#ArialMT-20" x="355.761719"/>
     <use xlink:href="#ArialMT-39" x="383.544922"/>
     <use xlink:href="#ArialMT-2e" x="439.160156"/>
     <use xlink:href="#ArialMT-35" x="466.943359"/>
     <use xlink:href="#ArialMT-34" x="522.558594"/>
    </g>
   </g>
  </g>
 </g>
 <defs>
  <clipPath id="p1b3aa77a5f">
   <rect x="31.35125" y="7.2" width="217.62" height="149.688"/>
  </clipPath>
 </defs>
</svg>
