<?xml version="1.0" encoding="utf-8" standalone="no"?>
<!DOCTYPE svg PUBLIC "-//W3C//DTD SVG 1.1//EN"
  "http://www.w3.org/Graphics/SVG/1.1/DTD/svg11.dtd">
<svg xmlns:xlink="http://www.w3.org/1999/xlink" width="518.4pt" height="291.6pt" viewBox="0 0 518.4 291.6" xmlns="http://www.w3.org/2000/svg" version="1.1">
 <metadata>
  <rdf:RDF xmlns:dc="http://purl.org/dc/elements/1.1/" xmlns:cc="http://creativecommons.org/ns#" xmlns:rdf="http://www.w3.org/1999/02/22-rdf-syntax-ns#">
   <cc:Work>
    <dc:type rdf:resource="http://purl.org/dc/dcmitype/StillImage"/>
    <dc:date>2025-11-24T10:38:51.666829</dc:date>
    <dc:format>image/svg+xml</dc:format>
    <dc:creator>
     <cc:Agent>
      <dc:title>Matplotlib v3.9.2, https://matplotlib.org/</dc:title>
     </cc:Agent>
    </dc:creator>
   </cc:Work>
  </rdf:RDF>
 </metadata>
 <defs>
  <style type="text/css">*{stroke-linejoin: round; stroke-linecap: butt}</style>
 </defs>
 <g id="figure_1">
  <g id="patch_1">
   <path d="M 0 291.6 
L 518.4 291.6 
L 518.4 0 
L 0 0 
L 0 291.6 
z
" style="fill: none"/>
  </g>
  <g id="axes_1">
   <g id="patch_2">
    <path d="M 64.8 259.524 
L 466.56 259.524 
L 466.56 34.992 
L 64.8 34.992 
L 64.8 259.524 
z
" style="fill: none"/>
   </g>
   <g id="line2d_1">
    <path d="M 83.061818 259.524 
L 83.061818 34.992 
" clip-path="url(#p4ee52f4093)" style="fill: none; stroke-dasharray: 3.7,1.6; stroke-dashoffset: 0; stroke: #808080; stroke-opacity: 0.6"/>
   </g>
   <g id="line2d_2">
    <path d="M 157.18 259.524 
L 157.18 34.992 
" clip-path="url(#p4ee52f4093)" style="fill: none; stroke-dasharray: 3.7,1.6; stroke-dashoffset: 0; stroke: #808080; stroke-opacity: 0.6"/>
   </g>
   <g id="line2d_3">
    <path d="M 161.970909 259.524 
L 161.970909 34.992 
" clip-path="url(#p4ee52f4093)" style="fill: none; stroke-dasharray: 3.7,1.6; stroke-dashoffset: 0; stroke: #808080; stroke-opacity: 0.6"/>
   </g>
   <g id="line2d_4">
    <path d="M 167.607273 259.524 
L 167.607273 34.992 
" clip-path="url(#p4ee52f4093)" style="fill: none; stroke-dasharray: 3.7,1.6; stroke-dashoffset: 0; stroke: #808080; stroke-opacity: 0.6"/>
   </g>
   <g id="line2d_5">
    <path d="M 172.68 259.524 
L 172.68 34.992 
" clip-path="url(#p4ee52f4093)" style="fill: none; stroke-dasharray: 3.7,1.6; stroke-dashoffset: 0; stroke: #808080; stroke-opacity: 0.6"/>
   </g>
   <g id="line2d_6">
    <path d="M 182.261818 259.524 
L 182.261818 34.992 
" clip-path="url(#p4ee52f4093)" style="fill: none; stroke-dasharray: 3.7,1.6; stroke-dashoffset: 0; stroke: #808080; stroke-opacity: 0.6"/>
   </g>
   <g id="line2d_7">
    <path d="M 186.770909 259.524 
L 186.770909 34.992 
" clip-path="url(#p4ee52f4093)" style="fill: none; stroke-dasharray: 3.7,1.6; stroke-dashoffset: 0; stroke: #808080; stroke-opacity: 0.6"/>
   </g>
   <g id="line2d_8">
    <path d="M 191.843636 259.524 
L 191.843636 34.992 
" clip-path="url(#p4ee52f4093)" style="fill: none; stroke-dasharray: 3.7,1.6; stroke-dashoffset: 0; stroke: #808080; stroke-opacity: 0.6"/>
   </g>
   <g id="line2d_9">
    <path d="M 197.198182 259.524 
L 197.198182 34.992 
" clip-path="url(#p4ee52f4093)" style="fill: none; stroke-dasharray: 3.7,1.6; stroke-dashoffset: 0; stroke: #808080; stroke-opacity: 0.6"/>
   </g>
   <g id="line2d_10">
    <path d="M 202.270909 259.524 
L 202.270909 34.992 
" clip-path="url(#p4ee52f4093)" style="fill: none; stroke-dasharray: 3.7,1.6; stroke-dashoffset: 0; stroke: #808080; stroke-opacity: 0.6"/>
   </g>
   <g id="line2d_11">
    <path d="M 324.861818 259.524 
L 324.861818 34.992 
" clip-path="url(#p4ee52f4093)" style="fill: none; stroke-dasharray: 3.7,1.6; stroke-dashoffset: 0; stroke: #808080; stroke-opacity: 0.6"/>
   </g>
   <g id="line2d_12">
    <path d="M 325.425455 259.524 
L 325.425455 34.992 
" clip-path="url(#p4ee52f4093)" style="fill: none; stroke-dasharray: 3.7,1.6; stroke-dashoffset: 0; stroke: #808080; stroke-opacity: 0.6"/>
   </g>
   <g id="line2d_13">
    <path d="M 335.007273 259.524 
L 335.007273 34.992 
" clip-path="url(#p4ee52f4093)" style="fill: none; stroke-dasharray: 3.7,1.6; stroke-dashoffset: 0; stroke: #808080; stroke-opacity: 0.6"/>
   </g>
   <g id="line2d_14">
    <path d="M 339.798182 259.524 
L 339.798182 34.992 
" clip-path="url(#p4ee52f4093)" style="fill: none; stroke-dasharray: 3.7,1.6; stroke-dashoffset: 0; stroke: #808080; stroke-opacity: 0.6"/>
   </g>
   <g id="line2d_15">
    <path d="M 344.589091 259.524 
L 344.589091 34.992 
" clip-path="url(#p4ee52f4093)" style="fill: none; stroke-dasharray: 3.7,1.6; stroke-dashoffset: 0; stroke: #808080; stroke-opacity: 0.6"/>
   </g>
   <g id="line2d_16">
    <path d="M 344.870909 259.524 
L 344.870909 34.992 
" clip-path="url(#p4ee52f4093)" style="fill: none; stroke-dasharray: 3.7,1.6; stroke-dashoffset: 0; stroke: #808080; stroke-opacity: 0.6"/>
   </g>
   <g id="line2d_17">
    <path d="M 345.152727 259.524 
L 345.152727 34.992 
" clip-path="url(#p4ee52f4093)" style="fill: none; stroke-dasharray: 3.7,1.6; stroke-dashoffset: 0; stroke: #808080; stroke-opacity: 0.6"/>
   </g>
   <g id="line2d_18">
    <path d="M 345.716364 259.524 
L 345.716364 34.992 
" clip-path="url(#p4ee52f4093)" style="fill: none; stroke-dasharray: 3.7,1.6; stroke-dashoffset: 0; stroke: #808080; stroke-opacity: 0.6"/>
   </g>
   <g id="line2d_19">
    <path d="M 349.943636 259.524 
L 349.943636 34.992 
" clip-path="url(#p4ee52f4093)" style="fill: none; stroke-dasharray: 3.7,1.6; stroke-dashoffset: 0; stroke: #808080; stroke-opacity: 0.6"/>
   </g>
   <g id="line2d_20">
    <path d="M 350.225455 259.524 
L 350.225455 34.992 
" clip-path="url(#p4ee52f4093)" style="fill: none; stroke-dasharray: 3.7,1.6; stroke-dashoffset: 0; stroke: #808080; stroke-opacity: 0.6"/>
   </g>
   <g id="line2d_21">
    <path d="M 354.452727 259.524 
L 354.452727 34.992 
" clip-path="url(#p4ee52f4093)" style="fill: none; stroke-dasharray: 3.7,1.6; stroke-dashoffset: 0; stroke: #808080; stroke-opacity: 0.6"/>
   </g>
   <g id="line2d_22">
    <path d="M 355.016364 259.524 
L 355.016364 34.992 
" clip-path="url(#p4ee52f4093)" style="fill: none; stroke-dasharray: 3.7,1.6; stroke-dashoffset: 0; stroke: #808080; stroke-opacity: 0.6"/>
   </g>
   <g id="line2d_23">
    <path d="M 355.298182 259.524 
L 355.298182 34.992 
" clip-path="url(#p4ee52f4093)" style="fill: none; stroke-dasharray: 3.7,1.6; stroke-dashoffset: 0; stroke: #808080; stroke-opacity: 0.6"/>
   </g>
   <g id="line2d_24">
    <path d="M 359.807273 259.524 
L 359.807273 34.992 
" clip-path="url(#p4ee52f4093)" style="fill: none; stroke-dasharray: 3.7,1.6; stroke-dashoffset: 0; stroke: #808080; stroke-opacity: 0.6"/>
   </g>
   <g id="line2d_25">
    <path d="M 364.316364 259.524 
L 364.316364 34.992 
" clip-path="url(#p4ee52f4093)" style="fill: none; stroke-dasharray: 3.7,1.6; stroke-dashoffset: 0; stroke: #808080; stroke-opacity: 0.6"/>
   </g>
   <g id="line2d_26">
    <path d="M 364.598182 259.524 
L 364.598182 34.992 
" clip-path="url(#p4ee52f4093)" style="fill: none; stroke-dasharray: 3.7,1.6; stroke-dashoffset: 0; stroke: #808080; stroke-opacity: 0.6"/>
   </g>
   <g id="line2d_27">
    <path d="M 364.88 259.524 
L 364.88 34.992 
" clip-path="url(#p4ee52f4093)" style="fill: none; stroke-dasharray: 3.7,1.6; stroke-dashoffset: 0; stroke: #808080; stroke-opacity: 0.6"/>
   </g>
   <g id="line2d_28">
    <path d="M 365.161818 259.524 
L 365.161818 34.992 
" clip-path="url(#p4ee52f4093)" style="fill: none; stroke-dasharray: 3.7,1.6; stroke-dashoffset: 0; stroke: #808080; stroke-opacity: 0.6"/>
   </g>
   <g id="line2d_29">
    <path d="M 365.443636 259.524 
L 365.443636 34.992 
" clip-path="url(#p4ee52f4093)" style="fill: none; stroke-dasharray: 3.7,1.6; stroke-dashoffset: 0; stroke: #808080; stroke-opacity: 0.6"/>
   </g>
   <g id="line2d_30">
    <path d="M 366.570909 259.524 
L 366.570909 34.992 
" clip-path="url(#p4ee52f4093)" style="fill: none; stroke-dasharray: 3.7,1.6; stroke-dashoffset: 0; stroke: #808080; stroke-opacity: 0.6"/>
   </g>
   <g id="line2d_31">
    <path d="M 366.852727 259.524 
L 366.852727 34.992 
" clip-path="url(#p4ee52f4093)" style="fill: none; stroke-dasharray: 3.7,1.6; stroke-dashoffset: 0; stroke: #808080; stroke-opacity: 0.6"/>
   </g>
   <g id="line2d_32">
    <path d="M 367.416364 259.524 
L 367.416364 34.992 
" clip-path="url(#p4ee52f4093)" style="fill: none; stroke-dasharray: 3.7,1.6; stroke-dashoffset: 0; stroke: #808080; stroke-opacity: 0.6"/>
   </g>
   <g id="line2d_33">
    <path d="M 368.825455 259.524 
L 368.825455 34.992 
" clip-path="url(#p4ee52f4093)" style="fill: none; stroke-dasharray: 3.7,1.6; stroke-dashoffset: 0; stroke: #808080; stroke-opacity: 0.6"/>
   </g>
   <g id="line2d_34">
    <path d="M 369.389091 259.524 
L 369.389091 34.992 
" clip-path="url(#p4ee52f4093)" style="fill: none; stroke-dasharray: 3.7,1.6; stroke-dashoffset: 0; stroke: #808080; stroke-opacity: 0.6"/>
   </g>
   <g id="line2d_35">
    <path d="M 369.670909 259.524 
L 369.670909 34.992 
" clip-path="url(#p4ee52f4093)" style="fill: none; stroke-dasharray: 3.7,1.6; stroke-dashoffset: 0; stroke: #808080; stroke-opacity: 0.6"/>
   </g>
   <g id="line2d_36">
    <path d="M 374.743636 259.524 
L 374.743636 34.992 
" clip-path="url(#p4ee52f4093)" style="fill: none; stroke-dasharray: 3.7,1.6; stroke-dashoffset: 0; stroke: #808080; stroke-opacity: 0.6"/>
   </g>
   <g id="line2d_37">
    <path d="M 375.025455 259.524 
L 375.025455 34.992 
" clip-path="url(#p4ee52f4093)" style="fill: none; stroke-dasharray: 3.7,1.6; stroke-dashoffset: 0; stroke: #808080; stroke-opacity: 0.6"/>
   </g>
   <g id="line2d_38">
    <path d="M 375.307273 259.524 
L 375.307273 34.992 
" clip-path="url(#p4ee52f4093)" style="fill: none; stroke-dasharray: 3.7,1.6; stroke-dashoffset: 0; stroke: #808080; stroke-opacity: 0.6"/>
   </g>
   <g id="line2d_39">
    <path d="M 379.816364 259.524 
L 379.816364 34.992 
" clip-path="url(#p4ee52f4093)" style="fill: none; stroke-dasharray: 3.7,1.6; stroke-dashoffset: 0; stroke: #808080; stroke-opacity: 0.6"/>
   </g>
   <g id="line2d_40">
    <path d="M 384.043636 259.524 
L 384.043636 34.992 
" clip-path="url(#p4ee52f4093)" style="fill: none; stroke-dasharray: 3.7,1.6; stroke-dashoffset: 0; stroke: #808080; stroke-opacity: 0.6"/>
   </g>
   <g id="line2d_41">
    <path d="M 384.607273 259.524 
L 384.607273 34.992 
" clip-path="url(#p4ee52f4093)" style="fill: none; stroke-dasharray: 3.7,1.6; stroke-dashoffset: 0; stroke: #808080; stroke-opacity: 0.6"/>
   </g>
   <g id="line2d_42">
    <path d="M 384.889091 259.524 
L 384.889091 34.992 
" clip-path="url(#p4ee52f4093)" style="fill: none; stroke-dasharray: 3.7,1.6; stroke-dashoffset: 0; stroke: #808080; stroke-opacity: 0.6"/>
   </g>
   <g id="line2d_43">
    <path d="M 394.189091 259.524 
L 394.189091 34.992 
" clip-path="url(#p4ee52f4093)" style="fill: none; stroke-dasharray: 3.7,1.6; stroke-dashoffset: 0; stroke: #808080; stroke-opacity: 0.6"/>
   </g>
   <g id="line2d_44">
    <path d="M 394.470909 259.524 
L 394.470909 34.992 
" clip-path="url(#p4ee52f4093)" style="fill: none; stroke-dasharray: 3.7,1.6; stroke-dashoffset: 0; stroke: #808080; stroke-opacity: 0.6"/>
   </g>
   <g id="line2d_45">
    <path d="M 394.752727 259.524 
L 394.752727 34.992 
" clip-path="url(#p4ee52f4093)" style="fill: none; stroke-dasharray: 3.7,1.6; stroke-dashoffset: 0; stroke: #808080; stroke-opacity: 0.6"/>
   </g>
   <g id="line2d_46">
    <path d="M 404.334545 259.524 
L 404.334545 34.992 
" clip-path="url(#p4ee52f4093)" style="fill: none; stroke-dasharray: 3.7,1.6; stroke-dashoffset: 0; stroke: #808080; stroke-opacity: 0.6"/>
   </g>
   <g id="line2d_47">
    <path d="M 404.898182 259.524 
L 404.898182 34.992 
" clip-path="url(#p4ee52f4093)" style="fill: none; stroke-dasharray: 3.7,1.6; stroke-dashoffset: 0; stroke: #808080; stroke-opacity: 0.6"/>
   </g>
   <g id="line2d_48">
    <path d="M 417.861818 259.524 
L 417.861818 34.992 
" clip-path="url(#p4ee52f4093)" style="fill: none; stroke-dasharray: 3.7,1.6; stroke-dashoffset: 0; stroke: #808080; stroke-opacity: 0.6"/>
   </g>
   <g id="line2d_49">
    <path d="M 421.243636 259.524 
L 421.243636 34.992 
" clip-path="url(#p4ee52f4093)" style="fill: none; stroke-dasharray: 3.7,1.6; stroke-dashoffset: 0; stroke: #808080; stroke-opacity: 0.6"/>
   </g>
   <g id="line2d_50">
    <path d="M 428.289091 259.524 
L 428.289091 34.992 
" clip-path="url(#p4ee52f4093)" style="fill: none; stroke-dasharray: 3.7,1.6; stroke-dashoffset: 0; stroke: #808080; stroke-opacity: 0.6"/>
   </g>
   <g id="line2d_51">
    <path d="M 432.234545 259.524 
L 432.234545 34.992 
" clip-path="url(#p4ee52f4093)" style="fill: none; stroke-dasharray: 3.7,1.6; stroke-dashoffset: 0; stroke: #808080; stroke-opacity: 0.6"/>
   </g>
   <g id="line2d_52">
    <path d="M 438.152727 259.524 
L 438.152727 34.992 
" clip-path="url(#p4ee52f4093)" style="fill: none; stroke-dasharray: 3.7,1.6; stroke-dashoffset: 0; stroke: #808080; stroke-opacity: 0.6"/>
   </g>
   <g id="line2d_53">
    <path d="M 442.098182 259.524 
L 442.098182 34.992 
" clip-path="url(#p4ee52f4093)" style="fill: none; stroke-dasharray: 3.7,1.6; stroke-dashoffset: 0; stroke: #808080; stroke-opacity: 0.6"/>
   </g>
   <g id="line2d_54">
    <path d="M 442.38 259.524 
L 442.38 34.992 
" clip-path="url(#p4ee52f4093)" style="fill: none; stroke-dasharray: 3.7,1.6; stroke-dashoffset: 0; stroke: #808080; stroke-opacity: 0.6"/>
   </g>
   <g id="line2d_55">
    <path d="M 448.016364 259.524 
L 448.016364 34.992 
" clip-path="url(#p4ee52f4093)" style="fill: none; stroke-dasharray: 3.7,1.6; stroke-dashoffset: 0; stroke: #808080; stroke-opacity: 0.6"/>
   </g>
   <g id="line2d_56">
    <path d="M 448.298182 259.524 
L 448.298182 34.992 
" clip-path="url(#p4ee52f4093)" style="fill: none; stroke-dasharray: 3.7,1.6; stroke-dashoffset: 0; stroke: #808080; stroke-opacity: 0.6"/>
   </g>
   <g id="matplotlib.axis_1">
    <g id="xtick_1">
     <g id="line2d_57">
      <defs>
       <path id="m05e0acc9cc" d="M 0 0 
L 0 3.5 
" style="stroke: #000000; stroke-width: 0.8"/>
      </defs>
      <g>
       <use xlink:href="#m05e0acc9cc" x="83.061818" y="259.524" style="stroke: #000000; stroke-width: 0.8"/>
      </g>
     </g>
     <g id="text_1">
      <!-- 0 -->
      <g transform="translate(80.560099 272.950562) scale(0.09 -0.09)">
       <defs>
        <path id="HelveticaNeue-30" d="M 845 2234 
Q 845 2400 848 2601 
Q 851 2803 880 3004 
Q 909 3206 963 3398 
Q 1018 3590 1123 3734 
Q 1229 3878 1389 3968 
Q 1549 4058 1779 4058 
Q 2010 4058 2170 3968 
Q 2330 3878 2435 3734 
Q 2541 3590 2595 3398 
Q 2650 3206 2678 3004 
Q 2707 2803 2710 2601 
Q 2714 2400 2714 2234 
Q 2714 1978 2698 1661 
Q 2682 1344 2595 1065 
Q 2509 787 2317 595 
Q 2125 403 1779 403 
Q 1434 403 1242 595 
Q 1050 787 963 1065 
Q 877 1344 861 1661 
Q 845 1978 845 2234 
z
M 269 2227 
Q 269 1978 281 1709 
Q 294 1440 345 1184 
Q 397 928 493 701 
Q 589 474 755 301 
Q 922 128 1174 29 
Q 1427 -70 1779 -70 
Q 2138 -70 2387 29 
Q 2637 128 2803 301 
Q 2970 474 3066 701 
Q 3162 928 3213 1184 
Q 3264 1440 3277 1709 
Q 3290 1978 3290 2227 
Q 3290 2477 3277 2745 
Q 3264 3014 3213 3270 
Q 3162 3526 3066 3756 
Q 2970 3987 2803 4160 
Q 2637 4333 2384 4435 
Q 2131 4538 1779 4538 
Q 1427 4538 1174 4435 
Q 922 4333 755 4160 
Q 589 3987 493 3756 
Q 397 3526 345 3270 
Q 294 3014 281 2745 
Q 269 2477 269 2227 
z
" transform="scale(0.015625)"/>
       </defs>
       <use xlink:href="#HelveticaNeue-30"/>
      </g>
     </g>
    </g>
    <g id="xtick_2">
     <g id="line2d_58">
      <g>
       <use xlink:href="#m05e0acc9cc" x="139.425455" y="259.524" style="stroke: #000000; stroke-width: 0.8"/>
      </g>
     </g>
     <g id="text_2">
      <!-- 200 -->
      <g transform="translate(131.920298 272.950562) scale(0.09 -0.09)">
       <defs>
        <path id="HelveticaNeue-32" d="M 282 2931 
L 826 2931 
Q 819 3136 867 3337 
Q 915 3539 1024 3699 
Q 1133 3859 1302 3958 
Q 1472 4058 1709 4058 
Q 1888 4058 2048 4000 
Q 2208 3942 2326 3833 
Q 2445 3725 2515 3574 
Q 2586 3424 2586 3238 
Q 2586 3002 2512 2822 
Q 2438 2643 2294 2489 
Q 2150 2336 1932 2185 
Q 1715 2035 1427 1856 
Q 1190 1715 972 1555 
Q 755 1395 582 1184 
Q 410 973 298 688 
Q 186 403 154 0 
L 3117 0 
L 3117 480 
L 787 480 
Q 826 691 950 854 
Q 1075 1018 1251 1158 
Q 1427 1299 1638 1424 
Q 1850 1549 2061 1677 
Q 2272 1811 2470 1958 
Q 2669 2106 2822 2288 
Q 2976 2470 3069 2700 
Q 3162 2931 3162 3232 
Q 3162 3552 3050 3795 
Q 2938 4038 2746 4201 
Q 2554 4365 2294 4451 
Q 2035 4538 1741 4538 
Q 1382 4538 1100 4416 
Q 819 4294 630 4080 
Q 442 3866 352 3571 
Q 262 3277 282 2931 
z
" transform="scale(0.015625)"/>
       </defs>
       <use xlink:href="#HelveticaNeue-32"/>
       <use xlink:href="#HelveticaNeue-30" x="55.599991"/>
       <use xlink:href="#HelveticaNeue-30" x="111.199982"/>
      </g>
     </g>
    </g>
    <g id="xtick_3">
     <g id="line2d_59">
      <g>
       <use xlink:href="#m05e0acc9cc" x="195.789091" y="259.524" style="stroke: #000000; stroke-width: 0.8"/>
      </g>
     </g>
     <g id="text_3">
      <!-- 400 -->
      <g transform="translate(188.283935 272.950562) scale(0.09 -0.09)">
       <defs>
        <path id="HelveticaNeue-34" d="M 2170 1542 
L 646 1542 
L 2157 3763 
L 2170 3763 
L 2170 1542 
z
M 2682 1542 
L 2682 4538 
L 2246 4538 
L 179 1587 
L 179 1062 
L 2170 1062 
L 2170 0 
L 2682 0 
L 2682 1062 
L 3296 1062 
L 3296 1542 
L 2682 1542 
z
" transform="scale(0.015625)"/>
       </defs>
       <use xlink:href="#HelveticaNeue-34"/>
       <use xlink:href="#HelveticaNeue-30" x="55.599991"/>
       <use xlink:href="#HelveticaNeue-30" x="111.199982"/>
      </g>
     </g>
    </g>
    <g id="xtick_4">
     <g id="line2d_60">
      <g>
       <use xlink:href="#m05e0acc9cc" x="252.152727" y="259.524" style="stroke: #000000; stroke-width: 0.8"/>
      </g>
     </g>
     <g id="text_4">
      <!-- 600 -->
      <g transform="translate(244.647571 272.950562) scale(0.09 -0.09)">
       <defs>
        <path id="HelveticaNeue-36" d="M 2650 3379 
L 3194 3379 
Q 3142 3942 2809 4240 
Q 2477 4538 1914 4538 
Q 1427 4538 1107 4333 
Q 787 4128 595 3789 
Q 403 3450 323 3011 
Q 243 2573 243 2106 
Q 243 1747 297 1363 
Q 352 979 518 659 
Q 685 339 992 134 
Q 1299 -70 1805 -70 
Q 2234 -70 2525 74 
Q 2816 218 2992 438 
Q 3168 659 3245 928 
Q 3322 1197 3322 1446 
Q 3322 1760 3226 2029 
Q 3130 2298 2954 2496 
Q 2778 2694 2518 2806 
Q 2259 2918 1933 2918 
Q 1562 2918 1277 2777 
Q 992 2637 800 2323 
L 787 2336 
Q 794 2598 838 2899 
Q 883 3200 1001 3459 
Q 1120 3718 1331 3888 
Q 1542 4058 1888 4058 
Q 2214 4058 2412 3872 
Q 2611 3686 2650 3379 
z
M 1830 2438 
Q 2061 2438 2233 2355 
Q 2406 2272 2521 2134 
Q 2637 1997 2691 1808 
Q 2746 1619 2746 1408 
Q 2746 1210 2685 1027 
Q 2624 845 2509 704 
Q 2394 563 2224 483 
Q 2054 403 1830 403 
Q 1606 403 1430 483 
Q 1254 563 1136 697 
Q 1018 832 954 1017 
Q 890 1203 890 1414 
Q 890 1626 950 1814 
Q 1011 2003 1132 2140 
Q 1254 2278 1427 2358 
Q 1600 2438 1830 2438 
z
" transform="scale(0.015625)"/>
       </defs>
       <use xlink:href="#HelveticaNeue-36"/>
       <use xlink:href="#HelveticaNeue-30" x="55.599991"/>
       <use xlink:href="#HelveticaNeue-30" x="111.199982"/>
      </g>
     </g>
    </g>
    <g id="xtick_5">
     <g id="line2d_61">
      <g>
       <use xlink:href="#m05e0acc9cc" x="308.516364" y="259.524" style="stroke: #000000; stroke-width: 0.8"/>
      </g>
     </g>
     <g id="text_5">
      <!-- 800 -->
      <g transform="translate(301.011207 272.950562) scale(0.09 -0.09)">
       <defs>
        <path id="HelveticaNeue-38" d="M 992 3360 
Q 992 3533 1056 3661 
Q 1120 3789 1225 3878 
Q 1331 3968 1478 4013 
Q 1626 4058 1786 4058 
Q 2118 4058 2332 3882 
Q 2547 3706 2547 3360 
Q 2547 3014 2336 2822 
Q 2125 2630 1798 2630 
Q 1632 2630 1485 2675 
Q 1338 2720 1229 2809 
Q 1120 2899 1056 3036 
Q 992 3174 992 3360 
z
M 416 3379 
Q 416 3072 589 2813 
Q 762 2554 1050 2438 
Q 666 2304 461 2006 
Q 256 1709 256 1306 
Q 256 960 374 701 
Q 493 442 701 269 
Q 909 96 1190 13 
Q 1472 -70 1798 -70 
Q 2112 -70 2387 19 
Q 2662 109 2864 285 
Q 3066 461 3184 717 
Q 3302 973 3302 1306 
Q 3302 1728 3104 2019 
Q 2906 2310 2496 2438 
Q 2784 2566 2953 2819 
Q 3123 3072 3123 3379 
Q 3123 3597 3046 3805 
Q 2970 4013 2806 4176 
Q 2643 4339 2380 4438 
Q 2118 4538 1747 4538 
Q 1485 4538 1245 4461 
Q 1005 4384 819 4237 
Q 634 4090 525 3875 
Q 416 3661 416 3379 
z
M 832 1280 
Q 832 1478 905 1638 
Q 979 1798 1110 1913 
Q 1242 2029 1418 2089 
Q 1594 2150 1792 2150 
Q 1984 2150 2153 2083 
Q 2323 2016 2451 1901 
Q 2579 1786 2652 1629 
Q 2726 1472 2726 1286 
Q 2726 1094 2659 934 
Q 2592 774 2467 656 
Q 2342 538 2172 470 
Q 2003 403 1798 403 
Q 1376 403 1104 636 
Q 832 870 832 1280 
z
" transform="scale(0.015625)"/>
       </defs>
       <use xlink:href="#HelveticaNeue-38"/>
       <use xlink:href="#HelveticaNeue-30" x="55.599991"/>
       <use xlink:href="#HelveticaNeue-30" x="111.199982"/>
      </g>
     </g>
    </g>
    <g id="xtick_6">
     <g id="line2d_62">
      <g>
       <use xlink:href="#m05e0acc9cc" x="364.88" y="259.524" style="stroke: #000000; stroke-width: 0.8"/>
      </g>
     </g>
     <g id="text_6">
      <!-- 1000 -->
      <g transform="translate(354.873125 272.950562) scale(0.09 -0.09)">
       <defs>
        <path id="HelveticaNeue-31" d="M 2278 0 
L 2278 4538 
L 1862 4538 
Q 1818 4282 1696 4115 
Q 1574 3949 1398 3853 
Q 1222 3757 1004 3721 
Q 787 3686 557 3686 
L 557 3251 
L 1734 3251 
L 1734 0 
L 2278 0 
z
" transform="scale(0.015625)"/>
       </defs>
       <use xlink:href="#HelveticaNeue-31"/>
       <use xlink:href="#HelveticaNeue-30" x="55.599991"/>
       <use xlink:href="#HelveticaNeue-30" x="111.199982"/>
       <use xlink:href="#HelveticaNeue-30" x="166.799973"/>
      </g>
     </g>
    </g>
    <g id="xtick_7">
     <g id="line2d_63">
      <g>
       <use xlink:href="#m05e0acc9cc" x="421.243636" y="259.524" style="stroke: #000000; stroke-width: 0.8"/>
      </g>
     </g>
     <g id="text_7">
      <!-- 1200 -->
      <g transform="translate(411.236761 272.950562) scale(0.09 -0.09)">
       <use xlink:href="#HelveticaNeue-31"/>
       <use xlink:href="#HelveticaNeue-32" x="55.599991"/>
       <use xlink:href="#HelveticaNeue-30" x="111.199982"/>
       <use xlink:href="#HelveticaNeue-30" x="166.799973"/>
      </g>
     </g>
    </g>
    <g id="text_8">
     <!-- Index of Structure -->
     <g transform="translate(229.595625 285.150406) scale(0.09 -0.09)">
      <defs>
       <path id="HelveticaNeue-49" d="M 525 4570 
L 525 0 
L 1133 0 
L 1133 4570 
L 525 4570 
z
" transform="scale(0.015625)"/>
       <path id="HelveticaNeue-6e" d="M 410 3309 
L 410 0 
L 954 0 
L 954 1869 
Q 954 2093 1014 2281 
Q 1075 2470 1196 2611 
Q 1318 2752 1500 2829 
Q 1683 2906 1933 2906 
Q 2246 2906 2425 2726 
Q 2605 2547 2605 2240 
L 2605 0 
L 3149 0 
L 3149 2176 
Q 3149 2445 3094 2665 
Q 3040 2886 2905 3046 
Q 2771 3206 2553 3296 
Q 2336 3386 2010 3386 
Q 1274 3386 934 2784 
L 922 2784 
L 922 3309 
L 410 3309 
z
" transform="scale(0.015625)"/>
       <path id="HelveticaNeue-64" d="M 806 1626 
Q 806 1869 857 2099 
Q 909 2330 1024 2509 
Q 1139 2688 1331 2797 
Q 1523 2906 1798 2906 
Q 2080 2906 2278 2800 
Q 2477 2694 2601 2521 
Q 2726 2349 2784 2121 
Q 2842 1894 2842 1651 
Q 2842 1421 2787 1197 
Q 2733 973 2611 797 
Q 2490 621 2298 512 
Q 2106 403 1830 403 
Q 1568 403 1373 505 
Q 1178 608 1053 781 
Q 928 954 867 1174 
Q 806 1395 806 1626 
z
M 3366 0 
L 3366 4570 
L 2822 4570 
L 2822 2867 
L 2810 2867 
Q 2720 3014 2589 3113 
Q 2458 3213 2310 3273 
Q 2163 3334 2016 3360 
Q 1869 3386 1741 3386 
Q 1363 3386 1078 3248 
Q 794 3110 605 2876 
Q 416 2643 323 2329 
Q 230 2016 230 1664 
Q 230 1312 326 998 
Q 422 685 611 448 
Q 800 211 1085 70 
Q 1370 -70 1754 -70 
Q 2099 -70 2387 51 
Q 2675 173 2810 448 
L 2822 448 
L 2822 0 
L 3366 0 
z
" transform="scale(0.015625)"/>
       <path id="HelveticaNeue-65" d="M 2707 1971 
L 806 1971 
Q 819 2163 889 2332 
Q 960 2502 1081 2630 
Q 1203 2758 1372 2832 
Q 1542 2906 1754 2906 
Q 1958 2906 2128 2832 
Q 2298 2758 2422 2633 
Q 2547 2509 2620 2336 
Q 2694 2163 2707 1971 
z
M 3232 1050 
L 2694 1050 
Q 2624 723 2403 563 
Q 2182 403 1837 403 
Q 1568 403 1369 492 
Q 1171 582 1043 732 
Q 915 883 857 1078 
Q 800 1274 806 1491 
L 3283 1491 
Q 3296 1792 3229 2125 
Q 3162 2458 2986 2739 
Q 2810 3021 2518 3203 
Q 2227 3386 1786 3386 
Q 1446 3386 1161 3258 
Q 877 3130 669 2899 
Q 461 2669 345 2355 
Q 230 2042 230 1664 
Q 243 1286 342 966 
Q 442 646 640 416 
Q 838 186 1129 58 
Q 1421 -70 1818 -70 
Q 2381 -70 2752 211 
Q 3123 493 3232 1050 
z
" transform="scale(0.015625)"/>
       <path id="HelveticaNeue-78" d="M 1299 1741 
L 58 0 
L 717 0 
L 1638 1370 
L 2560 0 
L 3258 0 
L 1978 1786 
L 3117 3309 
L 2464 3309 
L 1638 2150 
L 845 3309 
L 147 3309 
L 1299 1741 
z
" transform="scale(0.015625)"/>
       <path id="HelveticaNeue-20" transform="scale(0.015625)"/>
       <path id="HelveticaNeue-6f" d="M 806 1651 
Q 806 1952 886 2185 
Q 966 2419 1107 2579 
Q 1248 2739 1437 2822 
Q 1626 2906 1837 2906 
Q 2048 2906 2237 2822 
Q 2426 2739 2566 2579 
Q 2707 2419 2787 2185 
Q 2867 1952 2867 1651 
Q 2867 1350 2787 1116 
Q 2707 883 2566 726 
Q 2426 570 2237 486 
Q 2048 403 1837 403 
Q 1626 403 1437 486 
Q 1248 570 1107 726 
Q 966 883 886 1116 
Q 806 1350 806 1651 
z
M 230 1651 
Q 230 1286 332 972 
Q 435 659 640 425 
Q 845 192 1145 61 
Q 1446 -70 1837 -70 
Q 2234 -70 2531 61 
Q 2829 192 3033 425 
Q 3238 659 3340 972 
Q 3443 1286 3443 1651 
Q 3443 2016 3340 2333 
Q 3238 2650 3033 2883 
Q 2829 3117 2531 3251 
Q 2234 3386 1837 3386 
Q 1446 3386 1145 3251 
Q 845 3117 640 2883 
Q 435 2650 332 2333 
Q 230 2016 230 1651 
z
" transform="scale(0.015625)"/>
       <path id="HelveticaNeue-66" d="M 634 2829 
L 634 0 
L 1178 0 
L 1178 2829 
L 1818 2829 
L 1818 3309 
L 1178 3309 
L 1178 3770 
Q 1178 3987 1286 4064 
Q 1395 4141 1594 4141 
Q 1664 4141 1747 4131 
Q 1830 4122 1901 4096 
L 1901 4570 
Q 1824 4595 1725 4608 
Q 1626 4621 1549 4621 
Q 1101 4621 867 4413 
Q 634 4205 634 3802 
L 634 3309 
L 77 3309 
L 77 2829 
L 634 2829 
z
" transform="scale(0.015625)"/>
       <path id="HelveticaNeue-53" d="M 3142 3232 
L 3718 3232 
Q 3706 3610 3574 3882 
Q 3443 4154 3216 4333 
Q 2989 4512 2688 4595 
Q 2387 4678 2035 4678 
Q 1722 4678 1424 4598 
Q 1126 4518 892 4355 
Q 659 4192 518 3939 
Q 378 3686 378 3341 
Q 378 3027 502 2819 
Q 627 2611 835 2480 
Q 1043 2349 1305 2269 
Q 1568 2189 1840 2128 
Q 2112 2067 2374 2009 
Q 2637 1952 2845 1859 
Q 3053 1766 3177 1619 
Q 3302 1472 3302 1235 
Q 3302 986 3200 826 
Q 3098 666 2931 573 
Q 2765 480 2557 441 
Q 2349 403 2144 403 
Q 1888 403 1645 467 
Q 1402 531 1219 665 
Q 1037 800 925 1008 
Q 813 1216 813 1504 
L 237 1504 
Q 237 1088 387 784 
Q 538 480 797 285 
Q 1056 90 1398 -6 
Q 1741 -102 2125 -102 
Q 2438 -102 2755 -28 
Q 3072 45 3328 208 
Q 3584 371 3747 630 
Q 3910 890 3910 1254 
Q 3910 1594 3785 1818 
Q 3661 2042 3453 2189 
Q 3245 2336 2982 2422 
Q 2720 2509 2448 2573 
Q 2176 2637 1913 2691 
Q 1651 2746 1443 2829 
Q 1235 2912 1110 3043 
Q 986 3174 986 3386 
Q 986 3610 1072 3760 
Q 1158 3910 1302 4000 
Q 1446 4090 1632 4128 
Q 1818 4166 2010 4166 
Q 2483 4166 2787 3945 
Q 3091 3725 3142 3232 
z
" transform="scale(0.015625)"/>
       <path id="HelveticaNeue-74" d="M 1165 3309 
L 1165 4301 
L 621 4301 
L 621 3309 
L 58 3309 
L 58 2829 
L 621 2829 
L 621 723 
Q 621 493 665 352 
Q 710 211 803 134 
Q 896 58 1046 29 
Q 1197 0 1408 0 
L 1824 0 
L 1824 480 
L 1574 480 
Q 1446 480 1366 489 
Q 1286 499 1241 531 
Q 1197 563 1181 620 
Q 1165 678 1165 774 
L 1165 2829 
L 1824 2829 
L 1824 3309 
L 1165 3309 
z
" transform="scale(0.015625)"/>
       <path id="HelveticaNeue-72" d="M 390 3309 
L 390 0 
L 934 0 
L 934 1472 
Q 934 1792 998 2038 
Q 1062 2285 1203 2457 
Q 1344 2630 1574 2720 
Q 1805 2810 2131 2810 
L 2131 3386 
Q 1690 3398 1402 3206 
Q 1114 3014 915 2611 
L 902 2611 
L 902 3309 
L 390 3309 
z
" transform="scale(0.015625)"/>
       <path id="HelveticaNeue-75" d="M 3149 0 
L 3149 3309 
L 2605 3309 
L 2605 1440 
Q 2605 1216 2544 1027 
Q 2483 838 2361 697 
Q 2240 557 2057 480 
Q 1875 403 1626 403 
Q 1312 403 1133 582 
Q 954 762 954 1069 
L 954 3309 
L 410 3309 
L 410 1133 
Q 410 864 464 643 
Q 518 422 652 262 
Q 787 102 1004 16 
Q 1222 -70 1549 -70 
Q 1914 -70 2182 74 
Q 2451 218 2624 525 
L 2637 525 
L 2637 0 
L 3149 0 
z
" transform="scale(0.015625)"/>
       <path id="HelveticaNeue-63" d="M 2656 2246 
L 3219 2246 
Q 3187 2541 3065 2755 
Q 2944 2970 2755 3110 
Q 2566 3251 2320 3318 
Q 2074 3386 1792 3386 
Q 1402 3386 1107 3248 
Q 813 3110 617 2870 
Q 422 2630 326 2307 
Q 230 1984 230 1613 
Q 230 1242 329 931 
Q 429 621 624 397 
Q 819 173 1110 51 
Q 1402 -70 1779 -70 
Q 2413 -70 2781 262 
Q 3149 595 3238 1210 
L 2682 1210 
Q 2630 826 2403 614 
Q 2176 403 1773 403 
Q 1517 403 1331 505 
Q 1146 608 1030 777 
Q 915 947 860 1164 
Q 806 1382 806 1613 
Q 806 1862 857 2096 
Q 909 2330 1027 2509 
Q 1146 2688 1344 2797 
Q 1542 2906 1837 2906 
Q 2182 2906 2387 2733 
Q 2592 2560 2656 2246 
z
" transform="scale(0.015625)"/>
      </defs>
      <use xlink:href="#HelveticaNeue-49"/>
      <use xlink:href="#HelveticaNeue-6e" x="25.899994"/>
      <use xlink:href="#HelveticaNeue-64" x="81.499985"/>
      <use xlink:href="#HelveticaNeue-65" x="140.799973"/>
      <use xlink:href="#HelveticaNeue-78" x="194.499969"/>
      <use xlink:href="#HelveticaNeue-20" x="246.299957"/>
      <use xlink:href="#HelveticaNeue-6f" x="274.099945"/>
      <use xlink:href="#HelveticaNeue-66" x="331.499939"/>
      <use xlink:href="#HelveticaNeue-20" x="361.09993"/>
      <use xlink:href="#HelveticaNeue-53" x="388.899918"/>
      <use xlink:href="#HelveticaNeue-74" x="453.699905"/>
      <use xlink:href="#HelveticaNeue-72" x="485.19989"/>
      <use xlink:href="#HelveticaNeue-75" x="518.499878"/>
      <use xlink:href="#HelveticaNeue-63" x="574.099869"/>
      <use xlink:href="#HelveticaNeue-74" x="627.799866"/>
      <use xlink:href="#HelveticaNeue-75" x="659.29985"/>
      <use xlink:href="#HelveticaNeue-72" x="714.899841"/>
      <use xlink:href="#HelveticaNeue-65" x="748.199829"/>
     </g>
    </g>
   </g>
   <g id="matplotlib.axis_2">
    <g id="ytick_1">
     <g id="line2d_64">
      <defs>
       <path id="m0ff500a8cd" d="M 0 0 
L -3.5 0 
" style="stroke: #000000; stroke-width: 0.8"/>
      </defs>
      <g>
       <use xlink:href="#m0ff500a8cd" x="64.8" y="248.832" style="stroke: #000000; stroke-width: 0.8"/>
      </g>
     </g>
     <g id="text_9">
      <!-- 0 -->
      <g transform="translate(52.796563 252.045281) scale(0.09 -0.09)">
       <use xlink:href="#HelveticaNeue-30"/>
      </g>
     </g>
    </g>
    <g id="ytick_2">
     <g id="line2d_65">
      <g>
       <use xlink:href="#m0ff500a8cd" x="64.8" y="222.102" style="stroke: #000000; stroke-width: 0.8"/>
      </g>
     </g>
     <g id="text_10">
      <!-- 25 -->
      <g transform="translate(47.793125 225.315281) scale(0.09 -0.09)">
       <defs>
        <path id="HelveticaNeue-35" d="M 3008 3981 
L 3008 4461 
L 768 4461 
L 346 2106 
L 813 2080 
Q 973 2272 1181 2390 
Q 1389 2509 1658 2509 
Q 1888 2509 2077 2432 
Q 2266 2355 2400 2217 
Q 2534 2080 2608 1891 
Q 2682 1702 2682 1478 
Q 2682 1210 2605 1008 
Q 2528 806 2397 672 
Q 2266 538 2090 470 
Q 1914 403 1722 403 
Q 1517 403 1347 464 
Q 1178 525 1053 637 
Q 928 749 854 899 
Q 781 1050 768 1222 
L 224 1222 
Q 230 915 345 672 
Q 461 429 659 265 
Q 858 102 1117 16 
Q 1376 -70 1670 -70 
Q 2067 -70 2364 54 
Q 2662 179 2860 390 
Q 3059 602 3158 874 
Q 3258 1146 3258 1434 
Q 3258 1824 3142 2115 
Q 3027 2406 2828 2601 
Q 2630 2797 2361 2893 
Q 2093 2989 1792 2989 
Q 1562 2989 1328 2909 
Q 1094 2829 947 2662 
L 934 2675 
L 1178 3981 
L 3008 3981 
z
" transform="scale(0.015625)"/>
       </defs>
       <use xlink:href="#HelveticaNeue-32"/>
       <use xlink:href="#HelveticaNeue-35" x="55.599991"/>
      </g>
     </g>
    </g>
    <g id="ytick_3">
     <g id="line2d_66">
      <g>
       <use xlink:href="#m0ff500a8cd" x="64.8" y="195.372" style="stroke: #000000; stroke-width: 0.8"/>
      </g>
     </g>
     <g id="text_11">
      <!-- 50 -->
      <g transform="translate(47.793125 198.585281) scale(0.09 -0.09)">
       <use xlink:href="#HelveticaNeue-35"/>
       <use xlink:href="#HelveticaNeue-30" x="55.599991"/>
      </g>
     </g>
    </g>
    <g id="ytick_4">
     <g id="line2d_67">
      <g>
       <use xlink:href="#m0ff500a8cd" x="64.8" y="168.642" style="stroke: #000000; stroke-width: 0.8"/>
      </g>
     </g>
     <g id="text_12">
      <!-- 75 -->
      <g transform="translate(47.793125 171.855281) scale(0.09 -0.09)">
       <defs>
        <path id="HelveticaNeue-37" d="M 3258 3994 
L 3258 4461 
L 320 4461 
L 320 3949 
L 2701 3949 
Q 2342 3571 2032 3123 
Q 1722 2675 1485 2172 
Q 1248 1670 1097 1123 
Q 947 576 909 0 
L 1517 0 
Q 1549 531 1696 1094 
Q 1843 1658 2076 2189 
Q 2310 2720 2611 3187 
Q 2912 3654 3258 3994 
z
" transform="scale(0.015625)"/>
       </defs>
       <use xlink:href="#HelveticaNeue-37"/>
       <use xlink:href="#HelveticaNeue-35" x="55.599991"/>
      </g>
     </g>
    </g>
    <g id="ytick_5">
     <g id="line2d_68">
      <g>
       <use xlink:href="#m0ff500a8cd" x="64.8" y="141.912" style="stroke: #000000; stroke-width: 0.8"/>
      </g>
     </g>
     <g id="text_13">
      <!-- 100 -->
      <g transform="translate(42.789687 145.125281) scale(0.09 -0.09)">
       <use xlink:href="#HelveticaNeue-31"/>
       <use xlink:href="#HelveticaNeue-30" x="55.599991"/>
       <use xlink:href="#HelveticaNeue-30" x="111.199982"/>
      </g>
     </g>
    </g>
    <g id="ytick_6">
     <g id="line2d_69">
      <g>
       <use xlink:href="#m0ff500a8cd" x="64.8" y="115.182" style="stroke: #000000; stroke-width: 0.8"/>
      </g>
     </g>
     <g id="text_14">
      <!-- 125 -->
      <g transform="translate(42.789687 118.395281) scale(0.09 -0.09)">
       <use xlink:href="#HelveticaNeue-31"/>
       <use xlink:href="#HelveticaNeue-32" x="55.599991"/>
       <use xlink:href="#HelveticaNeue-35" x="111.199982"/>
      </g>
     </g>
    </g>
    <g id="ytick_7">
     <g id="line2d_70">
      <g>
       <use xlink:href="#m0ff500a8cd" x="64.8" y="88.452" style="stroke: #000000; stroke-width: 0.8"/>
      </g>
     </g>
     <g id="text_15">
      <!-- 150 -->
      <g transform="translate(42.789687 91.665281) scale(0.09 -0.09)">
       <use xlink:href="#HelveticaNeue-31"/>
       <use xlink:href="#HelveticaNeue-35" x="55.599991"/>
       <use xlink:href="#HelveticaNeue-30" x="111.199982"/>
      </g>
     </g>
    </g>
    <g id="ytick_8">
     <g id="line2d_71">
      <g>
       <use xlink:href="#m0ff500a8cd" x="64.8" y="61.722" style="stroke: #000000; stroke-width: 0.8"/>
      </g>
     </g>
     <g id="text_16">
      <!-- 175 -->
      <g transform="translate(42.789687 64.935281) scale(0.09 -0.09)">
       <use xlink:href="#HelveticaNeue-31"/>
       <use xlink:href="#HelveticaNeue-37" x="55.599991"/>
       <use xlink:href="#HelveticaNeue-35" x="111.199982"/>
      </g>
     </g>
    </g>
    <g id="ytick_9">
     <g id="line2d_72">
      <g>
       <use xlink:href="#m0ff500a8cd" x="64.8" y="34.992" style="stroke: #000000; stroke-width: 0.8"/>
      </g>
     </g>
     <g id="text_17">
      <!-- 200 -->
      <g transform="translate(42.789687 38.205281) scale(0.09 -0.09)">
       <use xlink:href="#HelveticaNeue-32"/>
       <use xlink:href="#HelveticaNeue-30" x="55.599991"/>
       <use xlink:href="#HelveticaNeue-30" x="111.199982"/>
      </g>
     </g>
    </g>
    <g id="text_18">
     <!-- DFT Energy (kcal·mol⁻¹) -->
     <g transform="translate(36.908125 193.888547) rotate(-90) scale(0.09 -0.09)">
      <defs>
       <path id="HelveticaNeue-44" d="M 1107 512 
L 1107 4058 
L 2131 4058 
Q 2554 4058 2842 3939 
Q 3130 3821 3312 3593 
Q 3494 3366 3574 3043 
Q 3654 2720 3654 2310 
Q 3654 1888 3568 1590 
Q 3482 1293 3347 1094 
Q 3213 896 3043 781 
Q 2874 666 2701 605 
Q 2528 544 2374 528 
Q 2221 512 2118 512 
L 1107 512 
z
M 499 4570 
L 499 0 
L 2067 0 
Q 2637 0 3053 160 
Q 3469 320 3737 624 
Q 4006 928 4134 1373 
Q 4262 1818 4262 2394 
Q 4262 3494 3692 4032 
Q 3123 4570 2067 4570 
L 499 4570 
z
" transform="scale(0.015625)"/>
       <path id="HelveticaNeue-46" d="M 499 4570 
L 499 0 
L 1107 0 
L 1107 2093 
L 3206 2093 
L 3206 2605 
L 1107 2605 
L 1107 4058 
L 3501 4058 
L 3501 4570 
L 499 4570 
z
" transform="scale(0.015625)"/>
       <path id="HelveticaNeue-54" d="M 1536 4058 
L 1536 0 
L 2144 0 
L 2144 4058 
L 3667 4058 
L 3667 4570 
L 13 4570 
L 13 4058 
L 1536 4058 
z
" transform="scale(0.015625)"/>
       <path id="HelveticaNeue-45" d="M 499 4570 
L 499 0 
L 3674 0 
L 3674 512 
L 1107 512 
L 1107 2093 
L 3482 2093 
L 3482 2605 
L 1107 2605 
L 1107 4058 
L 3654 4058 
L 3654 4570 
L 499 4570 
z
" transform="scale(0.015625)"/>
       <path id="HelveticaNeue-67" d="M 3264 282 
L 3264 3309 
L 2752 3309 
L 2752 2835 
L 2746 2835 
Q 2598 3110 2336 3248 
Q 2074 3386 1760 3386 
Q 1331 3386 1036 3222 
Q 742 3059 563 2806 
Q 384 2554 307 2243 
Q 230 1933 230 1638 
Q 230 1299 323 995 
Q 416 691 601 464 
Q 787 237 1062 102 
Q 1338 -32 1709 -32 
Q 2029 -32 2313 112 
Q 2598 256 2739 563 
L 2752 563 
L 2752 346 
Q 2752 70 2697 -160 
Q 2643 -390 2521 -553 
Q 2400 -717 2214 -809 
Q 2029 -902 1760 -902 
Q 1626 -902 1478 -873 
Q 1331 -845 1206 -781 
Q 1082 -717 995 -614 
Q 909 -512 902 -365 
L 358 -365 
Q 371 -634 499 -819 
Q 627 -1005 822 -1120 
Q 1018 -1235 1258 -1286 
Q 1498 -1338 1728 -1338 
Q 2522 -1338 2893 -934 
Q 3264 -531 3264 282 
z
M 1741 442 
Q 1472 442 1293 554 
Q 1114 666 1005 848 
Q 896 1030 851 1254 
Q 806 1478 806 1702 
Q 806 1939 860 2156 
Q 915 2374 1033 2540 
Q 1152 2707 1337 2806 
Q 1523 2906 1786 2906 
Q 2042 2906 2221 2803 
Q 2400 2701 2512 2531 
Q 2624 2362 2675 2150 
Q 2726 1939 2726 1722 
Q 2726 1491 2672 1260 
Q 2618 1030 2502 848 
Q 2387 666 2198 554 
Q 2010 442 1741 442 
z
" transform="scale(0.015625)"/>
       <path id="HelveticaNeue-79" d="M 1709 -442 
Q 1613 -685 1520 -851 
Q 1427 -1018 1315 -1123 
Q 1203 -1229 1065 -1277 
Q 928 -1325 749 -1325 
Q 653 -1325 557 -1312 
Q 461 -1299 371 -1267 
L 371 -768 
Q 442 -800 534 -822 
Q 627 -845 691 -845 
Q 858 -845 970 -765 
Q 1082 -685 1139 -538 
L 1363 19 
L 51 3309 
L 666 3309 
L 1632 602 
L 1645 602 
L 2573 3309 
L 3149 3309 
L 1709 -442 
z
" transform="scale(0.015625)"/>
       <path id="HelveticaNeue-28" d="M 1306 -1261 
L 1722 -1261 
Q 1267 -525 1072 198 
Q 877 922 877 1728 
Q 877 2515 1069 3232 
Q 1261 3949 1722 4678 
L 1306 4678 
Q 806 4019 553 3251 
Q 301 2483 301 1728 
Q 301 1306 371 922 
Q 442 538 573 173 
Q 704 -192 889 -547 
Q 1075 -902 1306 -1261 
z
" transform="scale(0.015625)"/>
       <path id="HelveticaNeue-6b" d="M 442 4570 
L 442 0 
L 986 0 
L 986 1254 
L 1498 1728 
L 2630 0 
L 3322 0 
L 1914 2106 
L 3226 3309 
L 2496 3309 
L 986 1862 
L 986 4570 
L 442 4570 
z
" transform="scale(0.015625)"/>
       <path id="HelveticaNeue-61" d="M 3341 13 
Q 3200 -70 2950 -70 
Q 2739 -70 2614 48 
Q 2490 166 2490 435 
Q 2266 166 1968 48 
Q 1670 -70 1325 -70 
Q 1101 -70 899 -19 
Q 698 32 550 141 
Q 403 250 316 426 
Q 230 602 230 851 
Q 230 1133 326 1312 
Q 422 1491 579 1603 
Q 736 1715 937 1772 
Q 1139 1830 1350 1869 
Q 1574 1914 1776 1936 
Q 1978 1958 2131 2000 
Q 2285 2042 2374 2122 
Q 2464 2202 2464 2355 
Q 2464 2534 2397 2643 
Q 2330 2752 2224 2809 
Q 2118 2867 1987 2886 
Q 1856 2906 1728 2906 
Q 1382 2906 1152 2774 
Q 922 2643 902 2278 
L 358 2278 
Q 371 2586 486 2797 
Q 602 3008 794 3139 
Q 986 3270 1232 3328 
Q 1478 3386 1760 3386 
Q 1984 3386 2205 3354 
Q 2426 3322 2605 3222 
Q 2784 3123 2893 2944 
Q 3002 2765 3002 2477 
L 3002 774 
Q 3002 582 3024 492 
Q 3046 403 3174 403 
Q 3245 403 3341 435 
L 3341 13 
z
M 2458 1709 
Q 2355 1632 2188 1597 
Q 2022 1562 1840 1539 
Q 1658 1517 1472 1488 
Q 1286 1459 1139 1395 
Q 992 1331 899 1212 
Q 806 1094 806 890 
Q 806 755 860 662 
Q 915 570 1001 512 
Q 1088 454 1203 428 
Q 1318 403 1446 403 
Q 1715 403 1907 476 
Q 2099 550 2220 662 
Q 2342 774 2400 905 
Q 2458 1037 2458 1152 
L 2458 1709 
z
" transform="scale(0.015625)"/>
       <path id="HelveticaNeue-6c" d="M 442 4570 
L 442 0 
L 986 0 
L 986 4570 
L 442 4570 
z
" transform="scale(0.015625)"/>
       <path id="HelveticaNeue-b7" d="M 480 1990 
Q 480 1824 605 1702 
Q 730 1581 896 1581 
Q 1056 1581 1177 1709 
Q 1299 1837 1299 1990 
Q 1299 2157 1177 2278 
Q 1056 2400 890 2400 
Q 723 2400 601 2278 
Q 480 2157 480 1990 
z
" transform="scale(0.015625)"/>
       <path id="HelveticaNeue-6d" d="M 410 3309 
L 410 0 
L 954 0 
L 954 2061 
Q 954 2157 1002 2301 
Q 1050 2445 1155 2579 
Q 1261 2714 1430 2810 
Q 1600 2906 1837 2906 
Q 2022 2906 2140 2851 
Q 2259 2797 2329 2697 
Q 2400 2598 2429 2464 
Q 2458 2330 2458 2170 
L 2458 0 
L 3002 0 
L 3002 2061 
Q 3002 2445 3232 2675 
Q 3462 2906 3866 2906 
Q 4064 2906 4189 2848 
Q 4314 2790 4384 2691 
Q 4454 2592 4480 2457 
Q 4506 2323 4506 2170 
L 4506 0 
L 5050 0 
L 5050 2426 
Q 5050 2682 4970 2864 
Q 4890 3046 4746 3161 
Q 4602 3277 4400 3331 
Q 4198 3386 3949 3386 
Q 3622 3386 3350 3238 
Q 3078 3091 2912 2822 
Q 2810 3130 2560 3258 
Q 2310 3386 2003 3386 
Q 1306 3386 934 2822 
L 922 2822 
L 922 3309 
L 410 3309 
z
" transform="scale(0.015625)"/>
       <path id="HelveticaNeue-207b" d="M 224 3802 
L 1376 3802 
L 1376 3392 
L 224 3392 
L 224 3802 
z
" transform="scale(0.015625)"/>
       <path id="HelveticaNeue-b9" d="M 1594 1792 
L 1594 4538 
L 1274 4538 
Q 1210 4275 973 4179 
Q 736 4083 422 4083 
L 422 3763 
L 1158 3763 
L 1158 1792 
L 1594 1792 
z
" transform="scale(0.015625)"/>
       <path id="HelveticaNeue-29" d="M -58 -1261 
L 352 -1261 
Q 851 -602 1104 163 
Q 1357 928 1357 1683 
Q 1357 2106 1286 2490 
Q 1216 2874 1085 3242 
Q 954 3610 768 3965 
Q 582 4320 352 4678 
L -58 4678 
Q 390 3942 585 3216 
Q 781 2490 781 1683 
Q 781 902 589 182 
Q 397 -538 -58 -1261 
z
" transform="scale(0.015625)"/>
      </defs>
      <use xlink:href="#HelveticaNeue-44"/>
      <use xlink:href="#HelveticaNeue-46" x="70.399994"/>
      <use xlink:href="#HelveticaNeue-54" x="127.799988"/>
      <use xlink:href="#HelveticaNeue-20" x="185.199982"/>
      <use xlink:href="#HelveticaNeue-45" x="212.999969"/>
      <use xlink:href="#HelveticaNeue-6e" x="274.09996"/>
      <use xlink:href="#HelveticaNeue-65" x="329.699951"/>
      <use xlink:href="#HelveticaNeue-72" x="383.399948"/>
      <use xlink:href="#HelveticaNeue-67" x="416.699936"/>
      <use xlink:href="#HelveticaNeue-79" x="474.09993"/>
      <use xlink:href="#HelveticaNeue-20" x="524.099915"/>
      <use xlink:href="#HelveticaNeue-28" x="551.899902"/>
      <use xlink:href="#HelveticaNeue-6b" x="577.799896"/>
      <use xlink:href="#HelveticaNeue-63" x="629.69989"/>
      <use xlink:href="#HelveticaNeue-61" x="683.399887"/>
      <use xlink:href="#HelveticaNeue-6c" x="737.099884"/>
      <use xlink:href="#HelveticaNeue-b7" x="759.299881"/>
      <use xlink:href="#HelveticaNeue-6d" x="787.099869"/>
      <use xlink:href="#HelveticaNeue-6f" x="872.399857"/>
      <use xlink:href="#HelveticaNeue-6c" x="929.79985"/>
      <use xlink:href="#HelveticaNeue-207b" x="951.999847"/>
      <use xlink:href="#HelveticaNeue-b9" x="976.999832"/>
      <use xlink:href="#HelveticaNeue-29" x="1010.29982"/>
     </g>
    </g>
   </g>
   <g id="line2d_73">
    <path d="M 83.343636 243.125729 
L 83.907273 243.586005 
L 84.189091 242.633085 
L 84.470909 238.775174 
L 84.752727 230.391798 
L 85.598182 196.831047 
L 85.88 194.914662 
L 86.161818 199.033113 
L 86.725455 221.655748 
L 87.289091 240.357239 
L 87.570909 243.347903 
L 87.852727 243.785969 
L 88.416364 242.973788 
L 88.698182 243.104892 
L 88.98 243.072218 
L 89.261818 241.585931 
L 89.543636 236.263007 
L 89.825455 224.83838 
L 90.670909 179.041906 
L 90.952727 176.455593 
L 91.234545 181.387971 
L 91.516364 194.032917 
L 92.08 227.933398 
L 92.361818 237.94359 
L 92.643636 242.395515 
L 92.925455 243.464063 
L 93.207273 243.304975 
L 93.489091 243.369559 
L 94.334545 245.460152 
L 94.616364 243.718009 
L 94.898182 238.238123 
L 95.461818 215.825681 
L 96.025455 191.066233 
L 96.307273 186.153512 
L 96.589091 191.199331 
L 97.434545 232.098719 
L 97.716364 239.017866 
L 97.998182 241.973494 
L 98.28 242.856755 
L 98.561818 243.252197 
L 99.125455 244.833805 
L 99.407273 244.911728 
L 99.689091 242.397329 
L 99.970909 235.150656 
L 100.534545 205.616424 
L 101.098182 171.519143 
L 101.38 163.225817 
L 101.661818 169.376831 
L 102.507273 227.738122 
L 102.789091 237.296082 
L 103.070909 241.463853 
L 104.198182 246.520101 
L 104.48 247.445326 
L 104.761818 246.719573 
L 105.043636 242.65156 
L 105.325455 233.819267 
L 105.889091 199.054908 
L 106.452727 160.780282 
L 106.734545 158.20531 
L 107.016364 170.938247 
L 107.861818 229.007461 
L 108.143636 238.053977 
L 108.425455 241.907515 
L 108.989091 245.003023 
L 109.552727 247.103818 
L 109.834545 245.929835 
L 110.116364 240.752525 
L 110.398182 229.710795 
L 110.68 211.285856 
L 111.525455 128.161672 
L 111.807273 122.548763 
L 112.089091 143.925196 
L 112.934545 225.386497 
L 113.216364 236.957354 
L 113.498182 241.68365 
L 113.78 242.994211 
L 114.343636 247.507447 
L 114.625455 248.798148 
L 114.907273 248.397723 
L 115.189091 244.489399 
L 115.470909 234.500306 
L 115.752727 215.402369 
L 116.316364 149.142248 
L 116.88 90.762084 
L 117.161818 95.961466 
L 117.443636 118.599211 
L 118.007273 206.744427 
L 118.289091 229.475303 
L 118.570909 239.15338 
L 118.852727 243.252385 
L 119.416364 247.446381 
L 119.698182 248.601156 
L 119.98 247.869702 
L 120.261818 243.218327 
L 120.543636 231.368813 
L 120.825455 207.768612 
L 121.389091 117.179807 
L 121.952727 25.736569 
L 122.234545 46.487702 
L 122.516364 81.816038 
L 123.08 199.745457 
L 123.361818 227.27755 
L 123.643636 238.450471 
L 123.925455 239.785721 
L 124.489091 246.978318 
L 124.770909 248.520487 
L 125.052727 247.803993 
L 125.334545 242.588717 
L 125.616364 229.003923 
L 125.898182 201.750825 
L 126.461818 98.070383 
L 126.80249 -1 
M 127.765521 -1 
L 128.152727 168.361099 
L 128.434545 214.551231 
L 128.716364 232.882612 
L 128.998182 240.58536 
L 129.561818 247.141195 
L 129.843636 248.442264 
L 130.125455 247.383234 
L 130.407273 241.484928 
L 130.689091 225.731406 
L 130.970909 192.387184 
L 131.252727 134.592002 
L 131.641295 -1 
M 132.91536 -1 
L 132.943636 22.423538 
L 133.225455 158.397036 
L 133.507273 211.134628 
L 133.789091 231.429435 
L 134.070909 232.818155 
L 134.352727 239.63586 
L 134.634545 243.63826 
L 134.916364 245.178103 
L 135.198182 243.150643 
L 135.48 234.503236 
L 135.761818 213.576802 
L 136.043636 172.680664 
L 136.325455 106.59893 
L 136.595698 -1 
M 138.111338 -1 
L 138.298182 129.794538 
L 138.58 196.208929 
L 138.861818 222.681834 
L 139.143636 234.464189 
L 139.425455 240.637387 
L 139.707273 244.081782 
L 139.989091 245.182157 
L 140.270909 242.605151 
L 140.552727 232.91066 
L 140.834545 208.742868 
L 141.116364 158.990621 
L 141.398182 72.992836 
L 141.528261 -1 
M 143.202799 -1 
L 143.370909 120.999621 
L 143.652727 191.617925 
L 143.934545 220.092692 
L 144.216364 222.367146 
L 144.498182 231.501778 
L 144.78 236.170782 
L 145.061818 236.517376 
L 145.343636 230.934176 
L 145.625455 215.022971 
L 145.907273 180.783094 
L 146.189091 118.400382 
L 146.485778 -1 
M 148.252702 -1 
L 148.443636 110.646987 
L 148.725455 178.93248 
L 149.007273 209.733684 
L 149.289091 224.854132 
L 149.570909 232.937412 
L 149.852727 236.669026 
L 150.134545 236.219543 
L 150.416364 229.631633 
L 150.698182 211.758612 
L 150.98 172.367199 
L 151.261818 97.417014 
L 151.462863 -1 
M 153.345485 -1 
L 153.516364 101.003333 
L 153.798182 173.212549 
L 154.08 205.862998 
L 154.361818 211.694343 
L 154.643636 220.914976 
L 154.925455 223.749703 
L 155.207273 219.806709 
L 155.489091 206.369475 
L 155.770909 177.128083 
L 156.052727 121.661275 
L 156.369606 -1 
M 158.361663 -1 
L 158.589091 107.863408 
L 158.870909 168.879952 
L 159.152727 198.673791 
L 159.434545 214.371152 
L 159.716364 222.14563 
L 159.998182 223.664119 
L 160.28 218.435902 
L 160.561818 203.208936 
L 160.843636 170.761563 
L 161.125455 108.278646 
L 161.392084 -1 
M 163.471574 -1 
L 163.661818 98.017636 
L 163.943636 162.61587 
L 164.225455 194.261842 
L 164.507273 204.74911 
L 164.789091 209.570906 
L 165.070909 206.230407 
L 165.352727 193.3079 
L 165.634545 166.28587 
L 165.916364 115.860372 
L 166.231547 -1 
M 168.399463 -1 
L 168.452727 38.00754 
L 168.734545 129.043473 
L 169.016364 172.063995 
L 169.298182 194.984719 
L 169.58 206.49346 
L 169.861818 209.638191 
L 170.143636 204.642551 
L 170.425455 189.81405 
L 170.707273 160.304503 
L 170.989091 106.315333 
L 171.276872 -1 
M 173.491109 -1 
L 173.525455 26.526144 
L 173.807273 121.346237 
L 174.089091 166.32979 
L 174.370909 191.297934 
L 174.652727 203.148873 
L 174.934545 199.73774 
L 175.216364 186.729418 
L 175.498182 160.603519 
L 175.78 112.413307 
L 176.082038 -1 
M 178.29582 -1 
L 178.316364 14.593748 
L 178.598182 112.553496 
L 178.88 160.706906 
L 179.161818 186.755893 
L 179.443636 199.722118 
L 179.725455 203.208739 
L 180.007273 198.005317 
L 180.289091 182.984294 
L 180.570909 154.700981 
L 180.852727 104.505162 
L 181.139533 -1 
M 183.384163 -1 
L 183.389091 3.082702 
L 183.670909 104.348074 
L 183.952727 154.474468 
L 184.234545 182.742894 
L 184.516364 197.822985 
L 184.798182 206.463567 
L 185.08 194.960837 
L 185.361818 171.967295 
L 185.643636 128.863506 
L 185.978357 -1 
M 188.145489 -1 
L 188.18 22.020743 
L 188.461818 116.174783 
L 188.743636 166.390925 
L 189.025455 193.337513 
L 189.307273 206.246351 
L 189.589091 209.594473 
L 189.870909 204.846221 
L 190.152727 191.522126 
L 190.434545 166.544328 
L 190.716364 121.625019 
L 191.033289 -1 
M 193.245657 -1 
L 193.252727 4.456429 
L 193.534545 106.471132 
L 193.816364 160.13974 
L 194.098182 189.597463 
L 194.38 204.507942 
L 194.943636 214.304656 
L 195.225455 198.547749 
L 195.507273 168.607056 
L 195.789091 107.321563 
L 196.014091 -1 
M 198.007204 -1 
L 198.043636 24.757923 
L 198.325455 122.090726 
L 198.607273 177.258649 
L 198.889091 206.420794 
L 199.170909 219.840193 
L 199.452727 223.778059 
L 199.734545 220.953662 
L 200.016364 211.764488 
L 200.298182 194.388756 
L 200.58 162.642507 
L 200.861818 97.907945 
L 201.050902 -1 
M 203.129135 -1 
L 203.398182 108.651396 
L 203.68 170.73154 
L 203.961818 203.085578 
L 204.243636 218.329383 
L 204.525455 223.603357 
L 204.807273 222.080974 
L 205.089091 224.75224 
L 205.370909 209.542041 
L 205.652727 178.563974 
L 205.934545 109.903006 
L 206.123432 -1 
M 207.891507 -1 
L 207.907273 12.555926 
L 208.189091 118.835798 
L 208.470909 180.931904 
L 208.752727 215.087208 
L 209.034545 230.965957 
L 209.316364 236.56973 
L 209.598182 236.202309 
L 209.88 231.530329 
L 210.161818 222.395194 
L 210.443636 205.838536 
L 210.725455 173.005248 
L 211.007273 100.15575 
L 211.174726 -1 
M 213.059607 -1 
L 213.261818 97.767553 
L 213.543636 172.496128 
L 213.825455 211.732889 
L 214.107273 229.56512 
L 214.389091 236.179921 
L 214.670909 236.636242 
L 214.952727 232.874239 
L 215.234545 234.350262 
L 215.516364 222.485828 
L 215.798182 195.817437 
L 216.08 129.112965 
L 216.26488 -1 
M 217.782019 -1 
L 218.052727 106.915102 
L 218.616364 213.641475 
L 218.898182 234.541976 
L 219.18 243.170153 
L 219.461818 245.215773 
L 219.743636 243.651667 
L 220.025455 239.62344 
L 220.307273 232.790742 
L 220.589091 219.98712 
L 220.870909 191.269703 
L 221.152727 120.111186 
L 221.318949 -1 
M 222.995985 -1 
L 223.125455 73.14414 
L 223.407273 159.086314 
L 223.689091 208.801993 
L 223.970909 232.912783 
L 224.252727 242.551541 
L 224.534545 245.134005 
L 224.816364 244.035737 
L 225.098182 240.547194 
L 225.38 240.491908 
L 225.661818 232.716095 
L 225.943636 214.234518 
L 226.225455 167.703898 
L 226.608561 -1 
M 227.579278 -1 
L 228.48 201.795492 
L 228.761818 229.030884 
L 229.043636 242.622312 
L 229.325455 247.814944 
L 229.607273 248.536233 
L 229.889091 246.97695 
L 230.170909 244.093837 
L 230.452727 239.751292 
L 230.734545 231.314453 
L 231.016364 210.796083 
L 231.298182 157.416748 
L 231.603242 -1 
M 232.886175 -1 
L 233.270909 134.557468 
L 233.552727 192.407936 
L 233.834545 225.779072 
L 234.116364 241.510421 
L 234.398182 247.331287 
L 234.68 248.38142 
L 234.961818 247.080329 
L 235.243636 244.494884 
L 235.525455 243.180074 
L 235.807273 239.024734 
L 236.089091 229.251573 
L 236.370909 206.333259 
L 237.216364 95.348352 
L 237.498182 89.918157 
L 237.78 113.14542 
L 238.625455 215.460393 
L 238.907273 234.568265 
L 239.189091 244.541534 
L 239.470909 248.431548 
L 239.752727 248.832 
L 240.034545 247.522512 
L 240.598182 242.967738 
L 240.88 238.37493 
L 241.161818 227.02146 
L 241.443636 199.02248 
L 242.289091 43.984759 
L 242.570909 22.196826 
L 242.852727 58.810686 
L 243.416364 168.120767 
L 243.698182 207.814432 
L 243.98 231.478919 
L 244.261818 243.274685 
L 244.543636 247.8496 
L 244.825455 248.560539 
L 245.107273 247.403045 
L 245.952727 241.866384 
L 246.234545 237.953552 
L 246.516364 228.812205 
L 247.08 190.825431 
L 247.643636 157.699568 
L 247.925455 160.467773 
L 248.489091 199.119946 
L 249.052727 233.985664 
L 249.334545 242.806791 
L 249.616364 246.838452 
L 249.898182 247.549053 
L 250.18 246.585314 
L 251.025455 241.703668 
L 251.307273 236.862875 
L 251.589091 225.076362 
L 252.152727 172.901466 
L 252.716364 120.778365 
L 252.998182 127.074249 
L 254.125455 229.952376 
L 254.407273 240.932078 
L 254.689091 246.011893 
L 254.970909 247.141959 
L 255.252727 246.326925 
L 256.098182 242.808856 
L 256.38 241.884248 
L 256.661818 238.863044 
L 256.943636 231.884395 
L 257.507273 204.566279 
L 257.789091 190.737391 
L 258.070909 185.808667 
L 258.352727 190.991367 
L 259.48 238.420726 
L 259.761818 243.842613 
L 260.043636 245.559505 
L 260.325455 245.187309 
L 260.889091 243.398382 
L 261.170909 242.837347 
L 261.452727 241.422405 
L 261.734545 237.142399 
L 262.016364 227.390225 
L 262.58 188.112227 
L 262.861818 168.263436 
L 263.143636 162.307646 
L 263.425455 171.067812 
L 264.552727 235.3885 
L 264.834545 242.498462 
L 265.116364 244.936144 
L 265.398182 244.832829 
L 265.961818 242.922897 
L 266.525455 243.684278 
L 266.807273 243.185588 
L 267.089091 240.144067 
L 267.370909 232.888639 
L 268.216364 198.749766 
L 268.498182 194.882178 
L 268.78 197.021605 
L 269.061818 205.407284 
L 269.907273 238.941709 
L 270.189091 242.746427 
L 270.470909 243.637687 
L 271.034545 243.125624 
L 271.598182 243.435845 
L 271.88 242.29458 
L 272.161818 237.716491 
L 272.443636 227.480169 
L 273.289091 180.60797 
L 273.570909 176.067239 
L 273.852727 179.10545 
L 274.134545 190.350407 
L 274.98 236.437914 
L 275.261818 241.65077 
L 275.543636 243.066936 
L 276.107273 242.976933 
L 276.952727 245.604162 
L 277.234545 244.360764 
L 277.516364 239.536836 
L 278.08 217.137357 
L 278.643636 189.008613 
L 278.925455 181.673071 
L 279.207273 185.202812 
L 280.334545 237.513928 
L 280.616364 241.344452 
L 280.898182 242.638321 
L 281.461818 243.946789 
L 281.743636 244.777806 
L 282.025455 244.942444 
L 282.307273 242.716539 
L 282.589091 235.935203 
L 283.152727 205.993107 
L 283.716364 168.26447 
L 283.998182 157.372927 
L 284.28 161.14117 
L 285.407273 234.808403 
L 285.689091 240.208353 
L 285.970909 242.152828 
L 286.252727 242.941551 
L 286.816364 246.291059 
L 287.098182 247.400896 
L 287.38 246.932957 
L 287.661818 243.18039 
L 287.943636 234.370523 
L 288.225455 219.114071 
L 289.070909 153.39265 
L 289.352727 148.873556 
L 289.634545 161.158573 
L 290.48 224.655037 
L 290.761818 235.912372 
L 291.043636 240.995109 
L 291.607273 244.695595 
L 291.889091 245.972806 
L 292.170909 246.705466 
L 292.452727 245.546502 
L 292.734545 240.427529 
L 293.016364 229.134252 
L 293.298182 209.67811 
L 294.425455 103.005604 
L 294.707273 119.754745 
L 295.552727 217.209961 
L 295.834545 233.243366 
L 296.116364 240.123196 
L 296.398182 241.352208 
L 296.961818 246.951632 
L 297.243636 248.433647 
L 297.525455 248.154349 
L 297.807273 244.290806 
L 298.089091 233.979722 
L 298.370909 213.66324 
L 299.498182 73.856578 
L 299.78 77.348983 
L 300.061818 100.582216 
L 300.907273 222.974482 
L 301.189091 236.236736 
L 301.470909 241.826731 
L 302.034545 246.569605 
L 302.316364 247.647135 
L 302.598182 246.756035 
L 302.88 241.835604 
L 303.161818 229.289986 
L 303.443636 203.915304 
L 304.007273 104.762734 
L 304.440783 -1 
M 305.037834 -1 
L 305.134545 13.825654 
L 305.98 216.78475 
L 306.261818 234.505056 
L 306.543636 235.890163 
L 306.825455 242.045508 
L 307.107273 245.651805 
L 307.389091 247.547237 
L 307.670909 246.962066 
L 307.952727 241.595937 
L 308.234545 227.148236 
L 308.516364 197.465293 
L 309.08 87.179814 
L 309.352073 -1 
M 310.515992 -1 
L 310.770909 132.654137 
L 311.052727 199.068492 
L 311.334545 225.846552 
L 311.616364 236.913903 
L 311.898182 242.27141 
L 312.18 245.313097 
L 312.461818 246.670426 
L 312.743636 245.401661 
L 313.025455 238.940773 
L 313.307273 221.71663 
L 313.589091 184.888914 
L 313.870909 121.263572 
L 314.197556 -1 
M 315.768174 -1 
L 315.843636 84.836784 
L 316.125455 187.30236 
L 316.407273 222.590566 
L 316.689091 224.385823 
L 316.970909 234.741321 
L 317.252727 240.470323 
L 317.534545 242.870466 
L 317.816364 241.06508 
L 318.098182 231.768895 
L 318.38 208.632794 
L 318.661818 163.292573 
L 318.943636 92.797325 
L 319.176579 -1 
M 320.858157 -1 
L 320.916364 68.046526 
L 321.198182 168.292192 
L 321.48 208.51178 
L 321.761818 226.46776 
L 322.043636 235.49843 
L 322.325455 240.311129 
L 322.607273 241.878531 
L 322.889091 239.07311 
L 323.170909 228.033234 
L 323.452727 200.445064 
L 323.734545 144.034951 
L 324.087328 -1 
M 325.985376 -1 
L 325.989091 6.792235 
L 326.270909 151.669422 
L 326.552727 203.059456 
L 326.834545 206.68148 
L 327.116364 221.76866 
L 327.398182 229.470247 
L 327.68 231.197622 
L 327.961818 225.424402 
L 328.243636 207.276491 
L 328.525455 167.990704 
L 328.807273 98.531059 
L 329.061148 -1 
M 331.023636 -1 
L 331.061818 31.166769 
L 331.343636 136.65363 
L 331.625455 185.583181 
L 331.907273 210.046264 
L 332.189091 223.099533 
L 332.470909 229.304195 
L 332.752727 229.662519 
L 333.034545 222.147485 
L 333.316364 200.69781 
L 333.598182 153.690531 
L 333.988492 -1 
M 336.19739 -1 
L 336.416364 116.241395 
L 336.698182 178.219563 
L 336.98 188.975976 
L 337.261818 205.142076 
L 337.543636 211.216693 
L 337.825455 207.751452 
L 338.107273 191.789811 
L 338.389091 156.327359 
L 338.670909 90.76553 
L 338.907469 -1 
M 341.19616 -1 
L 341.207273 8.218252 
L 341.489091 115.524048 
L 341.770909 166.33399 
L 342.052727 192.64231 
L 342.334545 206.298068 
L 342.616364 210.270512 
L 342.898182 204.577528 
L 343.18 185.395648 
L 343.461818 144.008405 
L 343.860549 -1 
M 346.362743 -1 
L 346.561818 98.333427 
L 346.843636 158.760108 
L 347.125455 178.37578 
L 347.407273 187.500878 
L 347.689091 184.474888 
L 347.970909 167.701266 
L 348.252727 132.381899 
L 348.534545 67.864002 
L 348.70024 -1 
M 351.258157 -1 
L 351.352727 52.305928 
L 351.634545 124.578181 
L 351.916364 161.603575 
L 352.198182 180.890839 
L 352.48 187.170883 
L 352.761818 181.32173 
L 353.043636 161.117276 
L 353.325455 120.676377 
L 353.692243 -1 
M 356.380613 -1 
L 356.425455 30.505275 
L 356.707273 113.568125 
L 356.989091 155.638767 
L 357.270909 176.192687 
L 357.552727 171.275635 
L 357.834545 152.052914 
L 358.116364 114.373506 
L 358.487826 -1 
M 361.128778 -1 
L 361.216364 43.750242 
L 361.498182 114.131754 
L 361.78 151.999863 
L 362.061818 171.336138 
L 362.343636 176.421567 
L 362.625455 168.400662 
L 362.907273 145.515276 
L 363.189091 103.082311 
L 363.511839 -1 
M 366.251405 -1 
L 366.289091 22.665648 
L 367.134545 167.955184 
L 367.698182 161.45175 
L 367.98 124.476448 
L 368.261818 52.520341 
L 368.357441 -1 
M 370.915701 -1 
L 371.08 67.447324 
L 371.361818 132.113441 
L 371.643636 167.48275 
L 371.925455 184.353064 
L 372.207273 187.5185 
L 372.489091 178.543065 
L 372.770909 156.055404 
L 373.052727 114.270214 
L 373.382688 -1 
M 376.069838 -1 
L 376.152727 44.205964 
L 376.434545 119.879284 
L 376.716364 160.381551 
L 376.998182 180.79143 
L 377.561818 192.265688 
L 377.843636 165.850745 
L 378.125455 114.857407 
L 378.416938 -1 
M 380.707407 -1 
L 380.943636 90.529272 
L 381.225455 156.074862 
L 381.507273 191.610227 
L 381.789091 207.644532 
L 382.070909 211.118533 
L 382.352727 205.065786 
L 382.634545 188.956099 
L 382.916364 158.84955 
L 383.198182 98.706506 
L 383.399111 -1 
M 385.900416 -1 
L 386.016364 62.644845 
L 386.298182 143.469595 
L 386.58 184.915443 
L 386.861818 204.181408 
L 387.143636 209.931549 
L 387.425455 205.943661 
L 387.707273 209.633899 
L 387.989091 184.994438 
L 388.270909 135.679845 
L 388.588685 -1 
M 390.553122 -1 
L 391.089091 167.888585 
L 391.370909 207.212805 
L 391.652727 225.387415 
L 391.934545 231.177247 
L 392.216364 229.420093 
L 392.498182 221.667354 
L 392.78 206.55376 
L 393.061818 178.001377 
L 393.343636 115.807027 
L 393.561031 -1 
M 395.771643 -1 
L 395.88 63.699045 
L 396.161818 153.588064 
L 396.443636 200.527236 
L 396.725455 221.955252 
L 397.007273 229.476829 
L 397.289091 229.081776 
L 397.570909 222.788192 
L 397.852727 226.099188 
L 398.134545 207.964661 
L 398.416364 167.411377 
L 398.698182 66.384355 
L 398.754102 -1 
M 400.438302 -1 
L 400.952727 163.183873 
L 401.234545 208.603357 
L 401.516364 231.764048 
L 401.798182 241.069502 
L 402.08 242.859191 
L 402.361818 240.406803 
L 402.643636 234.619661 
L 402.925455 224.18618 
L 403.207273 202.701316 
L 403.489091 150.938647 
L 403.773884 -1 
M 405.672305 -1 
L 405.743636 47.471881 
L 406.025455 144.084377 
L 406.307273 200.507324 
L 406.589091 228.004256 
L 406.870909 238.948297 
L 407.152727 241.723743 
L 407.434545 240.104277 
L 407.716364 235.231438 
L 407.998182 236.64117 
L 408.28 225.409028 
L 408.561818 198.270053 
L 408.843636 130.781163 
L 409.088962 -1 
M 410.264896 -1 
L 410.816364 149.002735 
L 411.38 227.139742 
L 411.661818 241.61571 
L 411.943636 246.97234 
L 412.225455 247.523053 
L 412.507273 245.597356 
L 412.789091 241.925499 
L 413.070909 235.718914 
L 413.352727 222.248368 
L 413.634545 186.445156 
L 413.916364 82.055643 
L 413.986466 -1 
M 415.562557 -1 
L 415.607273 27.992116 
L 416.170909 185.100665 
L 416.452727 221.846212 
L 416.734545 238.962494 
L 417.016364 245.303168 
L 417.298182 246.515036 
L 417.58 245.139694 
L 418.143636 241.576334 
L 418.425455 235.86323 
L 418.707273 222.375157 
L 418.989091 192.325883 
L 419.552727 99.274506 
L 419.834545 76.188658 
L 420.116364 72.741743 
L 420.68 140.71353 
L 420.961818 180.861593 
L 421.525455 233.977855 
L 421.807273 244.301231 
L 422.089091 248.125606 
L 422.370909 248.3765 
L 422.652727 246.868256 
L 422.934545 244.529495 
L 423.216364 241.164238 
L 423.498182 234.196695 
L 423.78 216.091138 
L 424.061818 170.701712 
L 424.698521 -1 
M 425.325066 -1 
L 426.034545 161.086944 
L 426.316364 204.165324 
L 426.598182 229.444985 
L 426.88 241.845032 
L 427.161818 246.626329 
L 427.443636 247.466024 
L 427.725455 246.375634 
L 428.570909 240.781514 
L 428.852727 235.589551 
L 429.134545 224.16116 
L 430.261818 148.181038 
L 430.543636 152.870255 
L 431.107273 197.162242 
L 431.670909 234.502643 
L 431.952727 243.278444 
L 432.516364 247.416479 
L 432.798182 246.269034 
L 433.361818 242.847211 
L 433.643636 239.980687 
L 433.925455 232.903326 
L 434.207273 216.485039 
L 434.770909 152.764387 
L 435.052727 118.147264 
L 435.334545 101.855013 
L 435.616364 116.502333 
L 436.743636 229.437419 
L 437.025455 240.545654 
L 437.307273 245.506813 
L 437.589091 246.608978 
L 437.870909 245.853964 
L 438.434545 243.137841 
L 438.716364 242.560057 
L 438.998182 241.206653 
L 439.28 237.300719 
L 439.561818 228.947566 
L 440.407273 184.731163 
L 440.689091 181.324978 
L 440.970909 188.91378 
L 441.816364 230.432818 
L 442.661818 245.717537 
L 442.943636 245.070895 
L 443.507273 242.97967 
L 443.789091 242.15089 
L 444.070909 240.108405 
L 444.352727 234.588818 
L 444.634545 222.883377 
L 445.48 160.51826 
L 445.761818 157.146156 
L 446.043636 168.557312 
L 447.170909 236.210498 
L 447.452727 242.800865 
L 447.734545 244.950228 
L 447.734545 244.950228 
" clip-path="url(#p4ee52f4093)" style="fill: none; stroke: #0000ff; stroke-opacity: 0.7; stroke-width: 1.5; stroke-linecap: square"/>
   </g>
   <g id="line2d_74">
    <path d="M 64.8 141.912 
L 466.56 141.912 
" clip-path="url(#p4ee52f4093)" style="fill: none; stroke-dasharray: 3.7,1.6; stroke-dashoffset: 0; stroke: #ffa500; stroke-opacity: 0.6"/>
   </g>
   <g id="patch_3">
    <path d="M 64.8 259.524 
L 64.8 34.992 
" style="fill: none; stroke: #000000; stroke-width: 0.8; stroke-linejoin: miter; stroke-linecap: square"/>
   </g>
   <g id="patch_4">
    <path d="M 466.56 259.524 
L 466.56 34.992 
" style="fill: none; stroke: #000000; stroke-width: 0.8; stroke-linejoin: miter; stroke-linecap: square"/>
   </g>
   <g id="patch_5">
    <path d="M 64.8 259.524 
L 466.56 259.524 
" style="fill: none; stroke: #000000; stroke-width: 0.8; stroke-linejoin: miter; stroke-linecap: square"/>
   </g>
   <g id="patch_6">
    <path d="M 64.8 34.992 
L 466.56 34.992 
" style="fill: none; stroke: #000000; stroke-width: 0.8; stroke-linejoin: miter; stroke-linecap: square"/>
   </g>
   <g id="text_19">
    <!-- DFT Energy vs. Structure Index -->
    <g transform="translate(190.372781 28.992) scale(0.108 -0.108)">
     <defs>
      <path id="HelveticaNeue-76" d="M 1901 0 
L 3110 3309 
L 2541 3309 
L 1638 550 
L 1626 550 
L 698 3309 
L 90 3309 
L 1318 0 
L 1901 0 
z
" transform="scale(0.015625)"/>
      <path id="HelveticaNeue-73" d="M 742 1043 
L 198 1043 
Q 211 736 326 521 
Q 442 307 634 176 
Q 826 45 1075 -12 
Q 1325 -70 1600 -70 
Q 1850 -70 2102 -22 
Q 2355 26 2556 147 
Q 2758 269 2883 467 
Q 3008 666 3008 966 
Q 3008 1203 2915 1363 
Q 2822 1523 2672 1628 
Q 2522 1734 2326 1798 
Q 2131 1862 1926 1907 
Q 1734 1952 1542 1993 
Q 1350 2035 1196 2096 
Q 1043 2157 944 2249 
Q 845 2342 845 2483 
Q 845 2611 909 2691 
Q 973 2771 1075 2819 
Q 1178 2867 1302 2886 
Q 1427 2906 1549 2906 
Q 1683 2906 1814 2877 
Q 1946 2848 2054 2784 
Q 2163 2720 2233 2614 
Q 2304 2509 2317 2349 
L 2861 2349 
Q 2842 2650 2733 2851 
Q 2624 3053 2441 3171 
Q 2259 3290 2022 3338 
Q 1786 3386 1504 3386 
Q 1286 3386 1065 3331 
Q 845 3277 669 3165 
Q 493 3053 381 2873 
Q 269 2694 269 2445 
Q 269 2125 429 1945 
Q 589 1766 829 1667 
Q 1069 1568 1350 1513 
Q 1632 1459 1872 1392 
Q 2112 1325 2272 1216 
Q 2432 1107 2432 896 
Q 2432 742 2355 643 
Q 2278 544 2160 493 
Q 2042 442 1901 422 
Q 1760 403 1632 403 
Q 1466 403 1309 435 
Q 1152 467 1027 540 
Q 902 614 825 739 
Q 749 864 742 1043 
z
" transform="scale(0.015625)"/>
      <path id="HelveticaNeue-2e" d="M 531 710 
L 531 0 
L 1242 0 
L 1242 710 
L 531 710 
z
" transform="scale(0.015625)"/>
     </defs>
     <use xlink:href="#HelveticaNeue-44"/>
     <use xlink:href="#HelveticaNeue-46" x="70.399994"/>
     <use xlink:href="#HelveticaNeue-54" x="127.799988"/>
     <use xlink:href="#HelveticaNeue-20" x="185.199982"/>
     <use xlink:href="#HelveticaNeue-45" x="212.999969"/>
     <use xlink:href="#HelveticaNeue-6e" x="274.09996"/>
     <use xlink:href="#HelveticaNeue-65" x="329.699951"/>
     <use xlink:href="#HelveticaNeue-72" x="383.399948"/>
     <use xlink:href="#HelveticaNeue-67" x="416.699936"/>
     <use xlink:href="#HelveticaNeue-79" x="474.09993"/>
     <use xlink:href="#HelveticaNeue-20" x="524.099915"/>
     <use xlink:href="#HelveticaNeue-76" x="551.899902"/>
     <use xlink:href="#HelveticaNeue-73" x="601.899887"/>
     <use xlink:href="#HelveticaNeue-2e" x="651.899872"/>
     <use xlink:href="#HelveticaNeue-20" x="679.69986"/>
     <use xlink:href="#HelveticaNeue-53" x="707.499847"/>
     <use xlink:href="#HelveticaNeue-74" x="772.299835"/>
     <use xlink:href="#HelveticaNeue-72" x="803.79982"/>
     <use xlink:href="#HelveticaNeue-75" x="837.099808"/>
     <use xlink:href="#HelveticaNeue-63" x="892.699799"/>
     <use xlink:href="#HelveticaNeue-74" x="946.399796"/>
     <use xlink:href="#HelveticaNeue-75" x="977.89978"/>
     <use xlink:href="#HelveticaNeue-72" x="1033.499771"/>
     <use xlink:href="#HelveticaNeue-65" x="1066.799759"/>
     <use xlink:href="#HelveticaNeue-20" x="1120.499756"/>
     <use xlink:href="#HelveticaNeue-49" x="1148.299744"/>
     <use xlink:href="#HelveticaNeue-6e" x="1174.199738"/>
     <use xlink:href="#HelveticaNeue-64" x="1229.799728"/>
     <use xlink:href="#HelveticaNeue-65" x="1289.099716"/>
     <use xlink:href="#HelveticaNeue-78" x="1342.799713"/>
    </g>
   </g>
   <g id="PathCollection_1">
    <defs>
     <path id="ma633fe0fe6" d="M 0 1.581139 
C 0.419323 1.581139 0.821528 1.41454 1.118034 1.118034 
C 1.41454 0.821528 1.581139 0.419323 1.581139 0 
C 1.581139 -0.419323 1.41454 -0.821528 1.118034 -1.118034 
C 0.821528 -1.41454 0.419323 -1.581139 0 -1.581139 
C -0.419323 -1.581139 -0.821528 -1.41454 -1.118034 -1.118034 
C -1.41454 -0.821528 -1.581139 -0.419323 -1.581139 0 
C -1.581139 0.419323 -1.41454 0.821528 -1.118034 1.118034 
C -0.821528 1.41454 -0.419323 1.581139 0 1.581139 
z
" style="stroke: #008000"/>
    </defs>
    <g clip-path="url(#p4ee52f4093)">
     <use xlink:href="#ma633fe0fe6" x="239.752727" y="248.832" style="fill: #008000; stroke: #008000"/>
    </g>
   </g>
   <g id="legend_1">
    <g id="patch_7">
     <path d="M 194.302266 67.699969 
L 337.057734 67.699969 
Q 338.857734 67.699969 338.857734 65.899969 
L 338.857734 41.292 
Q 338.857734 39.492 337.057734 39.492 
L 194.302266 39.492 
Q 192.502266 39.492 192.502266 41.292 
L 192.502266 65.899969 
Q 192.502266 67.699969 194.302266 67.699969 
z
" style="fill: #ffffff; opacity: 0.8; stroke: #cccccc; stroke-linejoin: miter"/>
    </g>
    <g id="line2d_75">
     <path d="M 196.102266 46.368563 
L 205.102266 46.368563 
L 214.102266 46.368563 
" style="fill: none; stroke-dasharray: 3.7,1.6; stroke-dashoffset: 0; stroke: #ffa500; stroke-opacity: 0.6"/>
    </g>
    <g id="text_20">
     <!-- Threshold: 100.00 kcal·mol⁻¹ -->
     <g transform="translate(221.302266 49.518563) scale(0.09 -0.09)">
      <defs>
       <path id="HelveticaNeue-68" d="M 410 4570 
L 410 0 
L 954 0 
L 954 1869 
Q 954 2093 1014 2281 
Q 1075 2470 1196 2611 
Q 1318 2752 1500 2829 
Q 1683 2906 1933 2906 
Q 2246 2906 2425 2726 
Q 2605 2547 2605 2240 
L 2605 0 
L 3149 0 
L 3149 2176 
Q 3149 2445 3094 2665 
Q 3040 2886 2905 3046 
Q 2771 3206 2553 3296 
Q 2336 3386 2010 3386 
Q 1862 3386 1705 3354 
Q 1549 3322 1405 3254 
Q 1261 3187 1145 3081 
Q 1030 2976 966 2822 
L 954 2822 
L 954 4570 
L 410 4570 
z
" transform="scale(0.015625)"/>
       <path id="HelveticaNeue-3a" d="M 1242 2598 
L 1242 3309 
L 531 3309 
L 531 2598 
L 1242 2598 
z
M 531 710 
L 531 0 
L 1242 0 
L 1242 710 
L 531 710 
z
" transform="scale(0.015625)"/>
      </defs>
      <use xlink:href="#HelveticaNeue-54"/>
      <use xlink:href="#HelveticaNeue-68" x="57.399994"/>
      <use xlink:href="#HelveticaNeue-72" x="112.999985"/>
      <use xlink:href="#HelveticaNeue-65" x="146.299973"/>
      <use xlink:href="#HelveticaNeue-73" x="199.999969"/>
      <use xlink:href="#HelveticaNeue-68" x="249.999954"/>
      <use xlink:href="#HelveticaNeue-6f" x="305.599945"/>
      <use xlink:href="#HelveticaNeue-6c" x="362.999939"/>
      <use xlink:href="#HelveticaNeue-64" x="385.199936"/>
      <use xlink:href="#HelveticaNeue-3a" x="444.499924"/>
      <use xlink:href="#HelveticaNeue-20" x="472.299911"/>
      <use xlink:href="#HelveticaNeue-31" x="500.099899"/>
      <use xlink:href="#HelveticaNeue-30" x="555.69989"/>
      <use xlink:href="#HelveticaNeue-30" x="611.299881"/>
      <use xlink:href="#HelveticaNeue-2e" x="666.899872"/>
      <use xlink:href="#HelveticaNeue-30" x="694.69986"/>
      <use xlink:href="#HelveticaNeue-30" x="750.29985"/>
      <use xlink:href="#HelveticaNeue-20" x="805.899841"/>
      <use xlink:href="#HelveticaNeue-6b" x="833.699829"/>
      <use xlink:href="#HelveticaNeue-63" x="885.599823"/>
      <use xlink:href="#HelveticaNeue-61" x="939.29982"/>
      <use xlink:href="#HelveticaNeue-6c" x="992.999817"/>
      <use xlink:href="#HelveticaNeue-b7" x="1015.199814"/>
      <use xlink:href="#HelveticaNeue-6d" x="1042.999802"/>
      <use xlink:href="#HelveticaNeue-6f" x="1128.299789"/>
      <use xlink:href="#HelveticaNeue-6c" x="1185.699783"/>
      <use xlink:href="#HelveticaNeue-207b" x="1207.89978"/>
      <use xlink:href="#HelveticaNeue-b9" x="1232.899765"/>
     </g>
    </g>
    <g id="PathCollection_2">
     <g>
      <use xlink:href="#ma633fe0fe6" x="205.102266" y="59.855906" style="fill: #008000; stroke: #008000"/>
     </g>
    </g>
    <g id="text_21">
     <!-- Min Energy: 0.00 -->
     <g transform="translate(221.302266 62.218406) scale(0.09 -0.09)">
      <defs>
       <path id="HelveticaNeue-4d" d="M 512 4570 
L 512 0 
L 1088 0 
L 1088 3802 
L 1101 3802 
L 2528 0 
L 3046 0 
L 4474 3802 
L 4486 3802 
L 4486 0 
L 5062 0 
L 5062 4570 
L 4230 4570 
L 2784 730 
L 1344 4570 
L 512 4570 
z
" transform="scale(0.015625)"/>
       <path id="HelveticaNeue-69" d="M 986 3904 
L 986 4570 
L 442 4570 
L 442 3904 
L 986 3904 
z
M 442 3309 
L 442 0 
L 986 0 
L 986 3309 
L 442 3309 
z
" transform="scale(0.015625)"/>
      </defs>
      <use xlink:href="#HelveticaNeue-4d"/>
      <use xlink:href="#HelveticaNeue-69" x="87.099991"/>
      <use xlink:href="#HelveticaNeue-6e" x="109.299988"/>
      <use xlink:href="#HelveticaNeue-20" x="164.899979"/>
      <use xlink:href="#HelveticaNeue-45" x="192.699966"/>
      <use xlink:href="#HelveticaNeue-6e" x="253.799957"/>
      <use xlink:href="#HelveticaNeue-65" x="309.399948"/>
      <use xlink:href="#HelveticaNeue-72" x="363.099945"/>
      <use xlink:href="#HelveticaNeue-67" x="396.399933"/>
      <use xlink:href="#HelveticaNeue-79" x="453.799927"/>
      <use xlink:href="#HelveticaNeue-3a" x="503.799911"/>
      <use xlink:href="#HelveticaNeue-20" x="531.599899"/>
      <use xlink:href="#HelveticaNeue-30" x="559.399887"/>
      <use xlink:href="#HelveticaNeue-2e" x="614.999878"/>
      <use xlink:href="#HelveticaNeue-30" x="642.799866"/>
      <use xlink:href="#HelveticaNeue-30" x="698.399857"/>
     </g>
    </g>
   </g>
  </g>
 </g>
 <defs>
  <clipPath id="p4ee52f4093">
   <rect x="64.8" y="34.992" width="401.76" height="224.532"/>
  </clipPath>
 </defs>
</svg>
